<svg width="328" height="708" viewBox="0 0 328 708" fill="none" xmlns="http://www.w3.org/2000/svg">
<rect width="328" height="708" fill="#47B18B"/>
<path d="M35.76 470C38.8 470 41.4133 470.573 43.6 471.72C45.8133 472.867 47.52 474.493 48.72 476.6C49.9467 478.707 50.56 481.213 50.56 484.12C50.56 487 49.9467 489.48 48.72 491.56C47.52 493.613 45.8133 495.2 43.6 496.32C41.4133 497.44 38.8 498 35.76 498H26.16V470H35.76ZM35.76 494.64C39.28 494.64 41.9467 493.72 43.76 491.88C45.6 490.013 46.52 487.427 46.52 484.12C46.52 480.76 45.6 478.133 43.76 476.24C41.9467 474.32 39.28 473.36 35.76 473.36H30.16V494.64H35.76ZM63.7006 498.28C61.7806 498.28 60.074 497.84 58.5806 496.96C57.114 496.053 55.954 494.813 55.1006 493.24C54.274 491.667 53.8606 489.867 53.8606 487.84C53.8606 485.893 54.274 484.16 55.1006 482.64C55.9273 481.12 57.0606 479.92 58.5006 479.04C59.9673 478.16 61.6206 477.72 63.4606 477.72C65.3273 477.72 66.9806 478.133 68.4206 478.96C69.8606 479.76 70.9806 480.893 71.7806 482.36C72.5806 483.8 72.9673 485.467 72.9406 487.36C72.9406 487.68 72.9273 488.013 72.9006 488.36C72.874 488.68 72.834 489.04 72.7806 489.44H57.9806C58.0606 490.507 58.354 491.453 58.8606 492.28C59.394 493.08 60.0606 493.707 60.8606 494.16C61.6873 494.613 62.6206 494.84 63.6606 494.84C64.994 494.84 66.154 494.587 67.1406 494.08C68.1273 493.547 68.8206 492.84 69.2206 491.96L72.5006 493.12C71.7006 494.747 70.5273 496.013 68.9806 496.92C67.4606 497.827 65.7006 498.28 63.7006 498.28ZM68.8206 486.2C68.8206 485.24 68.5806 484.373 68.1006 483.6C67.6206 482.827 66.9673 482.227 66.1406 481.8C65.3406 481.347 64.434 481.12 63.4206 481.12C62.514 481.12 61.674 481.347 60.9006 481.8C60.154 482.227 59.514 482.827 58.9806 483.6C58.474 484.347 58.154 485.213 58.0206 486.2H68.8206ZM79.7997 491.68C79.9864 492.48 80.3064 493.107 80.7597 493.56C81.213 494.013 81.7464 494.347 82.3597 494.56C82.9997 494.747 83.6664 494.84 84.3597 494.84C85.5597 494.84 86.493 494.6 87.1597 494.12C87.8264 493.64 88.1597 493.04 88.1597 492.32C88.1597 491.707 87.9464 491.227 87.5197 490.88C87.1197 490.507 86.573 490.213 85.8797 490C85.213 489.787 84.493 489.587 83.7197 489.4C83.0264 489.213 82.2664 489 81.4397 488.76C80.6397 488.52 79.8797 488.2 79.1597 487.8C78.4664 487.373 77.893 486.84 77.4397 486.2C76.9864 485.533 76.7597 484.693 76.7597 483.68C76.7597 482.48 77.0797 481.44 77.7197 480.56C78.3864 479.653 79.293 478.96 80.4397 478.48C81.613 477.973 82.933 477.72 84.3997 477.72C86.1064 477.72 87.5997 478.093 88.8797 478.84C90.1864 479.56 91.133 480.653 91.7197 482.12L88.3197 483.24C88.133 482.733 87.8264 482.32 87.3997 482C86.973 481.68 86.4797 481.467 85.9197 481.36C85.3864 481.227 84.853 481.16 84.3197 481.16C83.3064 481.16 82.4664 481.36 81.7997 481.76C81.133 482.16 80.7997 482.747 80.7997 483.52C80.7997 483.947 80.9064 484.307 81.1197 484.6C81.333 484.867 81.6264 485.093 81.9997 485.28C82.3997 485.44 82.8664 485.587 83.3997 485.72C83.933 485.853 84.5064 486 85.1197 486.16C85.9197 486.4 86.733 486.667 87.5597 486.96C88.3864 487.227 89.1464 487.573 89.8397 488C90.533 488.427 91.093 488.987 91.5197 489.68C91.9464 490.373 92.173 491.227 92.1997 492.24C92.1997 493.413 91.8664 494.453 91.1997 495.36C90.5597 496.267 89.6397 496.987 88.4397 497.52C87.2664 498.027 85.8664 498.28 84.2397 498.28C82.2664 498.28 80.5864 497.84 79.1997 496.96C77.813 496.08 76.8797 494.72 76.3997 492.88L79.7997 491.68ZM97.3784 478H101.178V498H97.3784V478ZM99.2984 474.48C98.5784 474.48 97.9784 474.24 97.4984 473.76C97.0184 473.28 96.7784 472.693 96.7784 472C96.7784 471.28 97.0184 470.68 97.4984 470.2C97.9784 469.693 98.5784 469.44 99.2984 469.44C99.9918 469.44 100.578 469.693 101.058 470.2C101.565 470.68 101.818 471.28 101.818 472C101.818 472.693 101.565 473.28 101.058 473.76C100.578 474.24 99.9918 474.48 99.2984 474.48ZM122.482 478H125.922V494.72C125.922 497.067 125.362 499.08 124.242 500.76C123.122 502.44 121.508 503.733 119.402 504.64C117.322 505.547 114.802 506 111.842 506L111.242 502.68C114.815 502.6 117.522 501.88 119.362 500.52C121.202 499.187 122.122 497.253 122.122 494.72V494.52L122.562 494.56C121.922 495.573 121.002 496.453 119.802 497.2C118.628 497.92 117.162 498.28 115.402 498.28C113.615 498.28 112.028 497.853 110.642 497C109.282 496.147 108.215 494.947 107.442 493.4C106.695 491.853 106.322 490.053 106.322 488C106.322 485.947 106.695 484.147 107.442 482.6C108.215 481.053 109.282 479.853 110.642 479C112.028 478.147 113.615 477.72 115.402 477.72C116.495 477.72 117.468 477.867 118.322 478.16C119.202 478.453 119.962 478.853 120.602 479.36C121.242 479.84 121.775 480.387 122.202 481L122.482 478ZM110.362 488C110.362 490.053 110.895 491.707 111.962 492.96C113.055 494.213 114.508 494.84 116.322 494.84C117.388 494.84 118.362 494.573 119.242 494.04C120.122 493.48 120.815 492.693 121.322 491.68C121.855 490.64 122.122 489.413 122.122 488C122.122 486.56 121.855 485.333 121.322 484.32C120.815 483.307 120.108 482.533 119.202 482C118.322 481.44 117.362 481.16 116.322 481.16C114.508 481.16 113.055 481.787 111.962 483.04C110.895 484.293 110.362 485.947 110.362 488ZM131.622 478H135.062L135.302 480.32C135.942 479.493 136.756 478.853 137.742 478.4C138.729 477.947 139.822 477.72 141.022 477.72C142.569 477.72 143.902 478.053 145.022 478.72C146.169 479.36 147.049 480.32 147.662 481.6C148.302 482.88 148.622 484.48 148.622 486.4V498H144.862V486.88C144.862 485.013 144.462 483.6 143.662 482.64C142.889 481.653 141.756 481.16 140.262 481.16C138.716 481.16 137.516 481.667 136.662 482.68C135.809 483.667 135.382 485.133 135.382 487.08V498H131.622V478ZM28.12 539.68C28.3067 540.48 28.6267 541.107 29.08 541.56C29.5333 542.013 30.0667 542.347 30.68 542.56C31.32 542.747 31.9867 542.84 32.68 542.84C33.88 542.84 34.8133 542.6 35.48 542.12C36.1467 541.64 36.48 541.04 36.48 540.32C36.48 539.707 36.2667 539.227 35.84 538.88C35.44 538.507 34.8933 538.213 34.2 538C33.5333 537.787 32.8133 537.587 32.04 537.4C31.3467 537.213 30.5867 537 29.76 536.76C28.96 536.52 28.2 536.2 27.48 535.8C26.7867 535.373 26.2133 534.84 25.76 534.2C25.3067 533.533 25.08 532.693 25.08 531.68C25.08 530.48 25.4 529.44 26.04 528.56C26.7067 527.653 27.6133 526.96 28.76 526.48C29.9333 525.973 31.2533 525.72 32.72 525.72C34.4267 525.72 35.92 526.093 37.2 526.84C38.5067 527.56 39.4533 528.653 40.04 530.12L36.64 531.24C36.4533 530.733 36.1467 530.32 35.72 530C35.2933 529.68 34.8 529.467 34.24 529.36C33.7067 529.227 33.1733 529.16 32.64 529.16C31.6267 529.16 30.7867 529.36 30.12 529.76C29.4533 530.16 29.12 530.747 29.12 531.52C29.12 531.947 29.2267 532.307 29.44 532.6C29.6533 532.867 29.9467 533.093 30.32 533.28C30.72 533.44 31.1867 533.587 31.72 533.72C32.2533 533.853 32.8267 534 33.44 534.16C34.24 534.4 35.0533 534.667 35.88 534.96C36.7067 535.227 37.4667 535.573 38.16 536C38.8533 536.427 39.4133 536.987 39.84 537.68C40.2667 538.373 40.4933 539.227 40.52 540.24C40.52 541.413 40.1867 542.453 39.52 543.36C38.88 544.267 37.96 544.987 36.76 545.52C35.5867 546.027 34.1867 546.28 32.56 546.28C30.5867 546.28 28.9067 545.84 27.52 544.96C26.1333 544.08 25.2 542.72 24.72 540.88L28.12 539.68ZM53.7788 546.28C51.8588 546.28 50.1521 545.84 48.6588 544.96C47.1921 544.053 46.0321 542.813 45.1788 541.24C44.3521 539.667 43.9388 537.867 43.9388 535.84C43.9388 533.893 44.3521 532.16 45.1788 530.64C46.0054 529.12 47.1388 527.92 48.5788 527.04C50.0454 526.16 51.6988 525.72 53.5388 525.72C55.4054 525.72 57.0588 526.133 58.4988 526.96C59.9388 527.76 61.0588 528.893 61.8588 530.36C62.6588 531.8 63.0454 533.467 63.0188 535.36C63.0188 535.68 63.0054 536.013 62.9788 536.36C62.9521 536.68 62.9121 537.04 62.8588 537.44H48.0588C48.1388 538.507 48.4321 539.453 48.9388 540.28C49.4721 541.08 50.1388 541.707 50.9388 542.16C51.7654 542.613 52.6988 542.84 53.7388 542.84C55.0721 542.84 56.2321 542.587 57.2188 542.08C58.2054 541.547 58.8988 540.84 59.2988 539.96L62.5788 541.12C61.7788 542.747 60.6054 544.013 59.0588 544.92C57.5388 545.827 55.7788 546.28 53.7788 546.28ZM58.8988 534.2C58.8988 533.24 58.6588 532.373 58.1788 531.6C57.6988 530.827 57.0454 530.227 56.2188 529.8C55.4188 529.347 54.5121 529.12 53.4988 529.12C52.5921 529.12 51.7521 529.347 50.9788 529.8C50.2321 530.227 49.5921 530.827 49.0588 531.6C48.5521 532.347 48.2321 533.213 48.0987 534.2H58.8988ZM67.6378 526H71.0778L71.3178 528.68C71.8778 527.987 72.5178 527.413 73.2378 526.96C73.9845 526.48 74.7845 526.147 75.6378 525.96C76.5178 525.773 77.4245 525.787 78.3578 526V529.56C77.4778 529.347 76.6245 529.32 75.7978 529.48C74.9711 529.64 74.2245 529.987 73.5578 530.52C72.9178 531.027 72.3978 531.707 71.9978 532.56C71.5978 533.413 71.3978 534.44 71.3978 535.64V546H67.6378V526ZM84.3291 526L90.0891 541.96L95.8891 526H99.8891L92.0891 546H88.0091L80.2491 526H84.3291ZM104.293 526H108.093V546H104.293V526ZM106.213 522.48C105.493 522.48 104.893 522.24 104.413 521.76C103.933 521.28 103.693 520.693 103.693 520C103.693 519.28 103.933 518.68 104.413 518.2C104.893 517.693 105.493 517.44 106.213 517.44C106.906 517.44 107.493 517.693 107.973 518.2C108.479 518.68 108.733 519.28 108.733 520C108.733 520.693 108.479 521.28 107.973 521.76C107.493 522.24 106.906 522.48 106.213 522.48ZM122.956 546.28C121.036 546.28 119.342 545.853 117.876 545C116.409 544.12 115.262 542.92 114.436 541.4C113.636 539.88 113.236 538.107 113.236 536.08C113.236 534.027 113.649 532.227 114.476 530.68C115.302 529.133 116.449 527.92 117.916 527.04C119.382 526.16 121.089 525.72 123.036 525.72C125.089 525.72 126.889 526.2 128.436 527.16C130.009 528.12 131.142 529.413 131.836 531.04L128.436 532.24C128.036 531.307 127.356 530.56 126.396 530C125.462 529.44 124.396 529.16 123.196 529.16C121.969 529.16 120.916 529.453 120.036 530.04C119.156 530.6 118.476 531.4 117.996 532.44C117.516 533.453 117.276 534.653 117.276 536.04C117.276 538.12 117.809 539.773 118.876 541C119.942 542.227 121.382 542.84 123.196 542.84C124.396 542.84 125.462 542.573 126.396 542.04C127.356 541.507 128.076 540.773 128.556 539.84L131.916 541.04C131.169 542.64 129.996 543.92 128.396 544.88C126.796 545.813 124.982 546.28 122.956 546.28ZM145.185 546.28C143.265 546.28 141.558 545.84 140.065 544.96C138.598 544.053 137.438 542.813 136.585 541.24C135.758 539.667 135.345 537.867 135.345 535.84C135.345 533.893 135.758 532.16 136.585 530.64C137.412 529.12 138.545 527.92 139.985 527.04C141.452 526.16 143.105 525.72 144.945 525.72C146.812 525.72 148.465 526.133 149.905 526.96C151.345 527.76 152.465 528.893 153.265 530.36C154.065 531.8 154.452 533.467 154.425 535.36C154.425 535.68 154.412 536.013 154.385 536.36C154.358 536.68 154.318 537.04 154.265 537.44H139.465C139.545 538.507 139.838 539.453 140.345 540.28C140.878 541.08 141.545 541.707 142.345 542.16C143.172 542.613 144.105 542.84 145.145 542.84C146.478 542.84 147.638 542.587 148.625 542.08C149.612 541.547 150.305 540.84 150.705 539.96L153.985 541.12C153.185 542.747 152.012 544.013 150.465 544.92C148.945 545.827 147.185 546.28 145.185 546.28ZM150.305 534.2C150.305 533.24 150.065 532.373 149.585 531.6C149.105 530.827 148.452 530.227 147.625 529.8C146.825 529.347 145.918 529.12 144.905 529.12C143.998 529.12 143.158 529.347 142.385 529.8C141.638 530.227 140.998 530.827 140.465 531.6C139.958 532.347 139.638 533.213 139.505 534.2H150.305ZM161.284 539.68C161.471 540.48 161.791 541.107 162.244 541.56C162.697 542.013 163.231 542.347 163.844 542.56C164.484 542.747 165.151 542.84 165.844 542.84C167.044 542.84 167.977 542.6 168.644 542.12C169.311 541.64 169.644 541.04 169.644 540.32C169.644 539.707 169.431 539.227 169.004 538.88C168.604 538.507 168.057 538.213 167.364 538C166.697 537.787 165.977 537.587 165.204 537.4C164.511 537.213 163.751 537 162.924 536.76C162.124 536.52 161.364 536.2 160.644 535.8C159.951 535.373 159.377 534.84 158.924 534.2C158.471 533.533 158.244 532.693 158.244 531.68C158.244 530.48 158.564 529.44 159.204 528.56C159.871 527.653 160.777 526.96 161.924 526.48C163.097 525.973 164.417 525.72 165.884 525.72C167.591 525.72 169.084 526.093 170.364 526.84C171.671 527.56 172.617 528.653 173.204 530.12L169.804 531.24C169.617 530.733 169.311 530.32 168.884 530C168.457 529.68 167.964 529.467 167.404 529.36C166.871 529.227 166.337 529.16 165.804 529.16C164.791 529.16 163.951 529.36 163.284 529.76C162.617 530.16 162.284 530.747 162.284 531.52C162.284 531.947 162.391 532.307 162.604 532.6C162.817 532.867 163.111 533.093 163.484 533.28C163.884 533.44 164.351 533.587 164.884 533.72C165.417 533.853 165.991 534 166.604 534.16C167.404 534.4 168.217 534.667 169.044 534.96C169.871 535.227 170.631 535.573 171.324 536C172.017 536.427 172.577 536.987 173.004 537.68C173.431 538.373 173.657 539.227 173.684 540.24C173.684 541.413 173.351 542.453 172.684 543.36C172.044 544.267 171.124 544.987 169.924 545.52C168.751 546.027 167.351 546.28 165.724 546.28C163.751 546.28 162.071 545.84 160.684 544.96C159.297 544.08 158.364 542.72 157.884 540.88L161.284 539.68Z" fill="#ECECEC"/>
<rect x="23" y="574" width="126" height="28" rx="14" fill="#0B5238"/>
<path d="M31.81 585H32.61V589.42C32.61 589.88 32.6933 590.253 32.86 590.54C33.0267 590.827 33.25 591.037 33.53 591.17C33.8167 591.303 34.14 591.37 34.5 591.37C34.8533 591.37 35.17 591.303 35.45 591.17C35.73 591.037 35.9533 590.827 36.12 590.54C36.2867 590.253 36.37 589.88 36.37 589.42V585H37.17V589.41C37.17 589.87 37.0967 590.267 36.95 590.6C36.81 590.933 36.6133 591.21 36.36 591.43C36.1067 591.643 35.82 591.803 35.5 591.91C35.18 592.017 34.8433 592.07 34.49 592.07C34.01 592.07 33.5667 591.977 33.16 591.79C32.7533 591.597 32.4267 591.303 32.18 590.91C31.9333 590.517 31.81 590.017 31.81 589.41V585ZM39.1527 590.47C39.1927 590.67 39.266 590.837 39.3727 590.97C39.4793 591.097 39.616 591.193 39.7827 591.26C39.956 591.327 40.156 591.36 40.3827 591.36C40.736 591.36 41.0027 591.293 41.1827 591.16C41.3693 591.02 41.4627 590.847 41.4627 590.64C41.4627 590.467 41.406 590.327 41.2927 590.22C41.186 590.113 41.0427 590.027 40.8627 589.96C40.6827 589.887 40.4827 589.823 40.2627 589.77C40.0893 589.73 39.9027 589.683 39.7027 589.63C39.5027 589.57 39.3127 589.49 39.1327 589.39C38.9527 589.29 38.806 589.16 38.6927 589C38.5793 588.84 38.5227 588.63 38.5227 588.37C38.5227 588.083 38.5993 587.833 38.7527 587.62C38.9127 587.4 39.1293 587.23 39.4027 587.11C39.6827 586.99 40.0027 586.93 40.3627 586.93C40.776 586.93 41.1427 587.02 41.4627 587.2C41.7893 587.38 42.016 587.66 42.1427 588.04L41.4427 588.28C41.396 588.107 41.3093 587.973 41.1827 587.88C41.0627 587.787 40.926 587.723 40.7727 587.69C40.626 587.657 40.4793 587.64 40.3327 587.64C40.0327 587.64 39.7893 587.7 39.6027 587.82C39.4227 587.933 39.3327 588.107 39.3327 588.34C39.3327 588.467 39.3627 588.573 39.4227 588.66C39.4827 588.74 39.566 588.807 39.6727 588.86C39.7793 588.913 39.906 588.96 40.0527 589C40.1993 589.033 40.3593 589.073 40.5327 589.12C40.726 589.167 40.9227 589.227 41.1227 589.3C41.3227 589.367 41.5093 589.457 41.6827 589.57C41.856 589.677 41.996 589.817 42.1027 589.99C42.216 590.157 42.2727 590.367 42.2727 590.62C42.2727 590.913 42.1927 591.17 42.0327 591.39C41.8727 591.603 41.6493 591.77 41.3627 591.89C41.0827 592.01 40.756 592.07 40.3827 592.07C39.8693 592.07 39.4427 591.957 39.1027 591.73C38.7693 591.497 38.546 591.157 38.4327 590.71L39.1527 590.47ZM45.5888 592.07C45.1221 592.07 44.7054 591.957 44.3388 591.73C43.9788 591.503 43.6954 591.193 43.4888 590.8C43.2821 590.407 43.1788 589.957 43.1788 589.45C43.1788 588.963 43.2821 588.53 43.4888 588.15C43.6954 587.77 43.9788 587.473 44.3388 587.26C44.6988 587.04 45.1088 586.93 45.5688 586.93C46.0221 586.93 46.4254 587.03 46.7788 587.23C47.1388 587.43 47.4188 587.707 47.6188 588.06C47.8188 588.413 47.9121 588.817 47.8988 589.27C47.8988 589.343 47.8954 589.42 47.8888 589.5C47.8821 589.58 47.8754 589.667 47.8688 589.76H43.9988C44.0121 590.073 44.0888 590.35 44.2288 590.59C44.3688 590.83 44.5521 591.02 44.7788 591.16C45.0121 591.293 45.2754 591.36 45.5688 591.36C45.9554 591.36 46.2821 591.287 46.5488 591.14C46.8221 590.993 47.0188 590.783 47.1388 590.51L47.7888 590.77C47.5888 591.19 47.2988 591.513 46.9188 591.74C46.5388 591.96 46.0954 592.07 45.5888 592.07ZM47.0788 589.11C47.0854 588.823 47.0221 588.57 46.8888 588.35C46.7621 588.13 46.5821 587.957 46.3488 587.83C46.1154 587.703 45.8454 587.64 45.5388 587.64C45.2721 587.64 45.0288 587.703 44.8088 587.83C44.5888 587.957 44.4054 588.133 44.2588 588.36C44.1188 588.58 44.0354 588.83 44.0088 589.11H47.0788ZM49.1333 587H49.8233L49.8633 587.73C49.9966 587.55 50.1566 587.397 50.3433 587.27C50.5366 587.143 50.7466 587.057 50.9733 587.01C51.2066 586.957 51.4533 586.953 51.7133 587V587.75C51.4333 587.697 51.1799 587.697 50.9533 587.75C50.7333 587.803 50.5433 587.903 50.3833 588.05C50.2233 588.197 50.0999 588.383 50.0133 588.61C49.9266 588.83 49.8833 589.087 49.8833 589.38V592H49.1333V587ZM55.8595 587V585.6H56.6095V587H57.9395V587.7H56.6095V590.39C56.6095 590.697 56.6729 590.92 56.7995 591.06C56.9329 591.2 57.0995 591.283 57.2995 591.31C57.5062 591.337 57.7195 591.337 57.9395 591.31V591.96C57.6795 592.02 57.4229 592.037 57.1695 592.01C56.9229 591.983 56.6995 591.91 56.4995 591.79C56.3062 591.663 56.1495 591.487 56.0295 591.26C55.9162 591.033 55.8595 590.743 55.8595 590.39V587.7H55.1095V587H55.8595ZM61.1552 592.07C60.6885 592.07 60.2718 591.957 59.9052 591.73C59.5452 591.503 59.2618 591.193 59.0552 590.8C58.8485 590.407 58.7452 589.957 58.7452 589.45C58.7452 588.963 58.8485 588.53 59.0552 588.15C59.2618 587.77 59.5452 587.473 59.9052 587.26C60.2652 587.04 60.6752 586.93 61.1352 586.93C61.5885 586.93 61.9918 587.03 62.3452 587.23C62.7052 587.43 62.9852 587.707 63.1852 588.06C63.3852 588.413 63.4785 588.817 63.4652 589.27C63.4652 589.343 63.4618 589.42 63.4552 589.5C63.4485 589.58 63.4418 589.667 63.4352 589.76H59.5652C59.5785 590.073 59.6552 590.35 59.7952 590.59C59.9352 590.83 60.1185 591.02 60.3452 591.16C60.5785 591.293 60.8418 591.36 61.1352 591.36C61.5218 591.36 61.8485 591.287 62.1152 591.14C62.3885 590.993 62.5852 590.783 62.7052 590.51L63.3552 590.77C63.1552 591.19 62.8652 591.513 62.4852 591.74C62.1052 591.96 61.6618 592.07 61.1552 592.07ZM62.6452 589.11C62.6518 588.823 62.5885 588.57 62.4552 588.35C62.3285 588.13 62.1485 587.957 61.9152 587.83C61.6818 587.703 61.4118 587.64 61.1052 587.64C60.8385 587.64 60.5952 587.703 60.3752 587.83C60.1552 587.957 59.9718 588.133 59.8252 588.36C59.6852 588.58 59.6018 588.83 59.5752 589.11H62.6452ZM65.1097 590.47C65.1497 590.67 65.223 590.837 65.3297 590.97C65.4364 591.097 65.573 591.193 65.7397 591.26C65.913 591.327 66.113 591.36 66.3397 591.36C66.693 591.36 66.9597 591.293 67.1397 591.16C67.3264 591.02 67.4197 590.847 67.4197 590.64C67.4197 590.467 67.363 590.327 67.2497 590.22C67.143 590.113 66.9997 590.027 66.8197 589.96C66.6397 589.887 66.4397 589.823 66.2197 589.77C66.0464 589.73 65.8597 589.683 65.6597 589.63C65.4597 589.57 65.2697 589.49 65.0897 589.39C64.9097 589.29 64.763 589.16 64.6497 589C64.5364 588.84 64.4797 588.63 64.4797 588.37C64.4797 588.083 64.5564 587.833 64.7097 587.62C64.8697 587.4 65.0864 587.23 65.3597 587.11C65.6397 586.99 65.9597 586.93 66.3197 586.93C66.733 586.93 67.0997 587.02 67.4197 587.2C67.7464 587.38 67.973 587.66 68.0997 588.04L67.3997 588.28C67.353 588.107 67.2664 587.973 67.1397 587.88C67.0197 587.787 66.883 587.723 66.7297 587.69C66.583 587.657 66.4364 587.64 66.2897 587.64C65.9897 587.64 65.7464 587.7 65.5597 587.82C65.3797 587.933 65.2897 588.107 65.2897 588.34C65.2897 588.467 65.3197 588.573 65.3797 588.66C65.4397 588.74 65.523 588.807 65.6297 588.86C65.7364 588.913 65.863 588.96 66.0097 589C66.1564 589.033 66.3164 589.073 66.4897 589.12C66.683 589.167 66.8797 589.227 67.0797 589.3C67.2797 589.367 67.4664 589.457 67.6397 589.57C67.813 589.677 67.953 589.817 68.0597 589.99C68.173 590.157 68.2297 590.367 68.2297 590.62C68.2297 590.913 68.1497 591.17 67.9897 591.39C67.8297 591.603 67.6064 591.77 67.3197 591.89C67.0397 592.01 66.713 592.07 66.3397 592.07C65.8264 592.07 65.3997 591.957 65.0597 591.73C64.7264 591.497 64.503 591.157 64.3897 590.71L65.1097 590.47ZM69.7658 587V585.6H70.5158V587H71.8458V587.7H70.5158V590.39C70.5158 590.697 70.5791 590.92 70.7058 591.06C70.8391 591.2 71.0058 591.283 71.2058 591.31C71.4124 591.337 71.6258 591.337 71.8458 591.31V591.96C71.5858 592.02 71.3291 592.037 71.0758 592.01C70.8291 591.983 70.6058 591.91 70.4058 591.79C70.2124 591.663 70.0558 591.487 69.9358 591.26C69.8224 591.033 69.7658 590.743 69.7658 590.39V587.7H69.0158V587H69.7658ZM73.1114 587H73.8514V592H73.1114V587ZM73.4914 586C73.3381 586 73.2114 585.95 73.1114 585.85C73.0114 585.75 72.9614 585.627 72.9614 585.48C72.9614 585.327 73.0114 585.2 73.1114 585.1C73.2114 585 73.3381 584.95 73.4914 584.95C73.6314 584.95 73.7514 585 73.8514 585.1C73.9581 585.2 74.0114 585.327 74.0114 585.48C74.0114 585.627 73.9581 585.75 73.8514 585.85C73.7514 585.95 73.6314 586 73.4914 586ZM75.5395 587H76.2295L76.2695 587.71C76.4295 587.463 76.6395 587.273 76.8995 587.14C77.1595 587 77.4629 586.93 77.8095 586.93C78.1895 586.93 78.5229 587.013 78.8095 587.18C79.0962 587.34 79.3195 587.583 79.4795 587.91C79.6395 588.23 79.7195 588.633 79.7195 589.12V592H78.9695V589.21C78.9695 588.69 78.8562 588.297 78.6295 588.03C78.4095 587.757 78.0895 587.62 77.6695 587.62C77.2362 587.62 76.8962 587.763 76.6495 588.05C76.4095 588.337 76.2895 588.76 76.2895 589.32V592H75.5395V587ZM85.0143 587H85.7043V591.08C85.7043 591.693 85.5676 592.217 85.2943 592.65C85.021 593.09 84.6243 593.423 84.1043 593.65C83.5843 593.883 82.951 594 82.2043 594L82.0843 593.31C83.0243 593.297 83.7376 593.1 84.2243 592.72C84.711 592.347 84.9543 591.8 84.9543 591.08V590.97L85.0343 590.99C84.881 591.283 84.651 591.537 84.3443 591.75C84.0376 591.957 83.641 592.063 83.1543 592.07C82.6943 592.07 82.291 591.967 81.9443 591.76C81.6043 591.547 81.3376 591.247 81.1443 590.86C80.9576 590.473 80.8643 590.02 80.8643 589.5C80.8643 588.98 80.9576 588.53 81.1443 588.15C81.3376 587.763 81.6043 587.463 81.9443 587.25C82.291 587.037 82.6943 586.93 83.1543 586.93C83.4543 586.93 83.721 586.977 83.9543 587.07C84.1876 587.157 84.3876 587.277 84.5543 587.43C84.721 587.577 84.8576 587.743 84.9643 587.93L85.0143 587ZM81.6743 589.5C81.6743 590.073 81.821 590.53 82.1143 590.87C82.4143 591.203 82.8176 591.37 83.3243 591.37C83.631 591.37 83.9076 591.297 84.1543 591.15C84.401 591.003 84.5943 590.79 84.7343 590.51C84.881 590.23 84.9543 589.893 84.9543 589.5C84.9543 589.107 84.881 588.773 84.7343 588.5C84.5943 588.22 84.401 588.007 84.1543 587.86C83.9076 587.707 83.631 587.63 83.3243 587.63C82.8243 587.63 82.4243 587.8 82.1243 588.14C81.8243 588.48 81.6743 588.933 81.6743 589.5ZM93.4115 586.05C93.2782 585.917 93.1115 585.817 92.9115 585.75C92.7182 585.677 92.4982 585.64 92.2515 585.64C91.7915 585.64 91.4482 585.76 91.2215 586C91.0015 586.24 90.8915 586.543 90.8915 586.91C90.8915 587.177 90.9582 587.397 91.0915 587.57C91.2315 587.743 91.4415 587.873 91.7215 587.96C92.0082 588.047 92.3682 588.09 92.8015 588.09H94.9715V588.79H92.8115C92.1448 588.79 91.6348 588.887 91.2815 589.08C90.9348 589.267 90.7615 589.603 90.7615 590.09C90.7615 590.343 90.8115 590.567 90.9115 590.76C91.0115 590.953 91.1682 591.103 91.3815 591.21C91.5948 591.31 91.8715 591.36 92.2115 591.36C92.7248 591.36 93.0882 591.237 93.3015 590.99C93.5148 590.743 93.6215 590.367 93.6215 589.86V588.58H94.3915V589.86C94.3915 590.387 94.3048 590.813 94.1315 591.14C93.9582 591.46 93.7082 591.697 93.3815 591.85C93.0548 591.997 92.6648 592.07 92.2115 592.07C91.7115 592.07 91.2915 591.99 90.9515 591.83C90.6182 591.663 90.3682 591.437 90.2015 591.15C90.0348 590.857 89.9515 590.527 89.9515 590.16C89.9515 589.827 90.0148 589.547 90.1415 589.32C90.2682 589.087 90.4415 588.9 90.6615 588.76C90.8882 588.613 91.1448 588.51 91.4315 588.45V588.4C91.1448 588.347 90.9015 588.243 90.7015 588.09C90.5015 587.937 90.3482 587.753 90.2415 587.54C90.1348 587.32 90.0815 587.083 90.0815 586.83C90.0815 586.483 90.1615 586.167 90.3215 585.88C90.4882 585.593 90.7315 585.363 91.0515 585.19C91.3715 585.017 91.7615 584.93 92.2215 584.93C92.6015 584.93 92.9448 584.99 93.2515 585.11C93.5648 585.223 93.8282 585.387 94.0415 585.6L93.4115 586.05ZM94.0415 585.6L93.4115 586.05L94.0415 585.6ZM93.2415 588.09C93.3282 588.09 93.4048 588.073 93.4715 588.04C93.5382 588 93.5882 587.947 93.6215 587.88C93.6548 587.813 93.6715 587.737 93.6715 587.65V586.86H94.4015V588.09H95.7415V588.79H94.4015V590.39C94.4015 590.717 94.4882 590.957 94.6615 591.11C94.8348 591.263 95.0648 591.34 95.3515 591.34C95.4115 591.34 95.4715 591.337 95.5315 591.33C95.5982 591.323 95.6682 591.317 95.7415 591.31V591.96C95.6548 591.98 95.5648 591.997 95.4715 592.01C95.3848 592.023 95.3015 592.03 95.2215 592.03C94.9415 592.03 94.6782 591.973 94.4315 591.86C94.1915 591.747 93.9948 591.57 93.8415 591.33C93.6882 591.083 93.6115 590.77 93.6115 590.39V588.79H92.8615V588.09H93.2415ZM100.555 590.99L100.635 590.98V594H99.8852V587H100.575L100.625 587.93C100.779 587.65 101.005 587.413 101.305 587.22C101.605 587.027 101.982 586.93 102.435 586.93C102.869 586.93 103.259 587.037 103.605 587.25C103.952 587.457 104.225 587.753 104.425 588.14C104.625 588.52 104.725 588.973 104.725 589.5C104.725 590.02 104.629 590.473 104.435 590.86C104.249 591.24 103.982 591.537 103.635 591.75C103.295 591.963 102.895 592.07 102.435 592.07C101.955 592.07 101.559 591.967 101.245 591.76C100.932 591.553 100.702 591.297 100.555 590.99ZM103.915 589.5C103.915 588.927 103.765 588.473 103.465 588.14C103.172 587.8 102.775 587.63 102.275 587.63C101.962 587.63 101.679 587.703 101.425 587.85C101.179 587.997 100.985 588.21 100.845 588.49C100.705 588.77 100.635 589.107 100.635 589.5C100.635 589.887 100.705 590.22 100.845 590.5C100.985 590.78 101.179 590.997 101.425 591.15C101.679 591.297 101.962 591.37 102.275 591.37C102.775 591.37 103.172 591.203 103.465 590.87C103.765 590.53 103.915 590.073 103.915 589.5ZM108.05 592.07C107.583 592.07 107.166 591.957 106.8 591.73C106.44 591.503 106.156 591.193 105.95 590.8C105.743 590.407 105.64 589.957 105.64 589.45C105.64 588.963 105.743 588.53 105.95 588.15C106.156 587.77 106.44 587.473 106.8 587.26C107.16 587.04 107.57 586.93 108.03 586.93C108.483 586.93 108.886 587.03 109.24 587.23C109.6 587.43 109.88 587.707 110.08 588.06C110.28 588.413 110.373 588.817 110.36 589.27C110.36 589.343 110.356 589.42 110.35 589.5C110.343 589.58 110.336 589.667 110.33 589.76H106.46C106.473 590.073 106.55 590.35 106.69 590.59C106.83 590.83 107.013 591.02 107.24 591.16C107.473 591.293 107.736 591.36 108.03 591.36C108.416 591.36 108.743 591.287 109.01 591.14C109.283 590.993 109.48 590.783 109.6 590.51L110.25 590.77C110.05 591.19 109.76 591.513 109.38 591.74C109 591.96 108.556 592.07 108.05 592.07ZM109.54 589.11C109.546 588.823 109.483 588.57 109.35 588.35C109.223 588.13 109.043 587.957 108.81 587.83C108.576 587.703 108.306 587.64 108 587.64C107.733 587.64 107.49 587.703 107.27 587.83C107.05 587.957 106.866 588.133 106.72 588.36C106.58 588.58 106.496 588.83 106.47 589.11H109.54ZM111.594 587H112.284L112.324 587.73C112.458 587.55 112.618 587.397 112.804 587.27C112.998 587.143 113.208 587.057 113.434 587.01C113.668 586.957 113.914 586.953 114.174 587V587.75C113.894 587.697 113.641 587.697 113.414 587.75C113.194 587.803 113.004 587.903 112.844 588.05C112.684 588.197 112.561 588.383 112.474 588.61C112.388 588.83 112.344 589.087 112.344 589.38V592H111.594V587ZM115.608 590.47C115.648 590.67 115.721 590.837 115.828 590.97C115.934 591.097 116.071 591.193 116.238 591.26C116.411 591.327 116.611 591.36 116.838 591.36C117.191 591.36 117.458 591.293 117.638 591.16C117.824 591.02 117.918 590.847 117.918 590.64C117.918 590.467 117.861 590.327 117.748 590.22C117.641 590.113 117.498 590.027 117.318 589.96C117.138 589.887 116.938 589.823 116.718 589.77C116.544 589.73 116.358 589.683 116.158 589.63C115.958 589.57 115.768 589.49 115.588 589.39C115.408 589.29 115.261 589.16 115.148 589C115.034 588.84 114.978 588.63 114.978 588.37C114.978 588.083 115.054 587.833 115.208 587.62C115.368 587.4 115.584 587.23 115.858 587.11C116.138 586.99 116.458 586.93 116.818 586.93C117.231 586.93 117.598 587.02 117.918 587.2C118.244 587.38 118.471 587.66 118.598 588.04L117.898 588.28C117.851 588.107 117.764 587.973 117.638 587.88C117.518 587.787 117.381 587.723 117.228 587.69C117.081 587.657 116.934 587.64 116.788 587.64C116.488 587.64 116.244 587.7 116.058 587.82C115.878 587.933 115.788 588.107 115.788 588.34C115.788 588.467 115.818 588.573 115.878 588.66C115.938 588.74 116.021 588.807 116.128 588.86C116.234 588.913 116.361 588.96 116.508 589C116.654 589.033 116.814 589.073 116.988 589.12C117.181 589.167 117.378 589.227 117.578 589.3C117.778 589.367 117.964 589.457 118.138 589.57C118.311 589.677 118.451 589.817 118.558 589.99C118.671 590.157 118.728 590.367 118.728 590.62C118.728 590.913 118.648 591.17 118.488 591.39C118.328 591.603 118.104 591.77 117.818 591.89C117.538 592.01 117.211 592.07 116.838 592.07C116.324 592.07 115.898 591.957 115.558 591.73C115.224 591.497 115.001 591.157 114.888 590.71L115.608 590.47ZM122.104 592.07C121.63 592.07 121.207 591.967 120.834 591.76C120.46 591.553 120.167 591.26 119.954 590.88C119.74 590.493 119.634 590.037 119.634 589.51C119.634 588.977 119.74 588.517 119.954 588.13C120.174 587.743 120.47 587.447 120.844 587.24C121.224 587.033 121.65 586.93 122.124 586.93C122.597 586.93 123.02 587.033 123.394 587.24C123.774 587.447 124.07 587.743 124.284 588.13C124.504 588.51 124.614 588.963 124.614 589.49C124.614 590.023 124.504 590.483 124.284 590.87C124.064 591.257 123.764 591.553 123.384 591.76C123.004 591.967 122.577 592.07 122.104 592.07ZM122.094 591.36C122.387 591.36 122.664 591.297 122.924 591.17C123.184 591.037 123.394 590.833 123.554 590.56C123.72 590.28 123.804 589.927 123.804 589.5C123.804 589.067 123.724 588.713 123.564 588.44C123.404 588.167 123.194 587.967 122.934 587.84C122.68 587.707 122.407 587.64 122.114 587.64C121.82 587.64 121.547 587.707 121.294 587.84C121.04 587.967 120.834 588.17 120.674 588.45C120.52 588.723 120.444 589.073 120.444 589.5C120.444 589.933 120.52 590.287 120.674 590.56C120.827 590.833 121.027 591.037 121.274 591.17C121.527 591.297 121.8 591.36 122.094 591.36ZM125.842 587H126.532L126.572 587.71C126.732 587.463 126.942 587.273 127.202 587.14C127.462 587 127.766 586.93 128.112 586.93C128.492 586.93 128.826 587.013 129.112 587.18C129.399 587.34 129.622 587.583 129.782 587.91C129.942 588.23 130.022 588.633 130.022 589.12V592H129.272V589.21C129.272 588.69 129.159 588.297 128.932 588.03C128.712 587.757 128.392 587.62 127.972 587.62C127.539 587.62 127.199 587.763 126.952 588.05C126.712 588.337 126.592 588.76 126.592 589.32V592H125.842V587ZM134.607 592L134.547 591.1C134.407 591.407 134.2 591.647 133.927 591.82C133.654 591.987 133.307 592.07 132.887 592.07C132.527 592.07 132.22 592.013 131.967 591.9C131.714 591.787 131.517 591.627 131.377 591.42C131.244 591.207 131.177 590.957 131.177 590.67C131.177 590.25 131.334 589.907 131.647 589.64C131.96 589.367 132.414 589.2 133.007 589.14L134.547 588.97V588.57C134.547 588.29 134.444 588.067 134.237 587.9C134.03 587.727 133.75 587.64 133.397 587.64C133.05 587.64 132.76 587.72 132.527 587.88C132.3 588.04 132.144 588.27 132.057 588.57L131.377 588.33C131.51 587.89 131.754 587.547 132.107 587.3C132.467 587.053 132.904 586.93 133.417 586.93C134.01 586.93 134.47 587.083 134.797 587.39C135.13 587.69 135.297 588.1 135.297 588.62V592H134.607ZM134.547 589.61L132.997 589.79C132.664 589.83 132.41 589.923 132.237 590.07C132.064 590.21 131.977 590.397 131.977 590.63C131.977 590.863 132.06 591.05 132.227 591.19C132.4 591.33 132.647 591.4 132.967 591.4C133.334 591.4 133.634 591.327 133.867 591.18C134.1 591.033 134.27 590.837 134.377 590.59C134.49 590.337 134.547 590.063 134.547 589.77V589.61ZM137.17 590.47C137.21 590.67 137.284 590.837 137.39 590.97C137.497 591.097 137.634 591.193 137.8 591.26C137.974 591.327 138.174 591.36 138.4 591.36C138.754 591.36 139.02 591.293 139.2 591.16C139.387 591.02 139.48 590.847 139.48 590.64C139.48 590.467 139.424 590.327 139.31 590.22C139.204 590.113 139.06 590.027 138.88 589.96C138.7 589.887 138.5 589.823 138.28 589.77C138.107 589.73 137.92 589.683 137.72 589.63C137.52 589.57 137.33 589.49 137.15 589.39C136.97 589.29 136.824 589.16 136.71 589C136.597 588.84 136.54 588.63 136.54 588.37C136.54 588.083 136.617 587.833 136.77 587.62C136.93 587.4 137.147 587.23 137.42 587.11C137.7 586.99 138.02 586.93 138.38 586.93C138.794 586.93 139.16 587.02 139.48 587.2C139.807 587.38 140.034 587.66 140.16 588.04L139.46 588.28C139.414 588.107 139.327 587.973 139.2 587.88C139.08 587.787 138.944 587.723 138.79 587.69C138.644 587.657 138.497 587.64 138.35 587.64C138.05 587.64 137.807 587.7 137.62 587.82C137.44 587.933 137.35 588.107 137.35 588.34C137.35 588.467 137.38 588.573 137.44 588.66C137.5 588.74 137.584 588.807 137.69 588.86C137.797 588.913 137.924 588.96 138.07 589C138.217 589.033 138.377 589.073 138.55 589.12C138.744 589.167 138.94 589.227 139.14 589.3C139.34 589.367 139.527 589.457 139.7 589.57C139.874 589.677 140.014 589.817 140.12 589.99C140.234 590.157 140.29 590.367 140.29 590.62C140.29 590.913 140.21 591.17 140.05 591.39C139.89 591.603 139.667 591.77 139.38 591.89C139.1 592.01 138.774 592.07 138.4 592.07C137.887 592.07 137.46 591.957 137.12 591.73C136.787 591.497 136.564 591.157 136.45 590.71L137.17 590.47Z" fill="white"/>
<rect x="153" y="574" width="66" height="28" rx="14" fill="#0B5238"/>
<path d="M164.81 585H165.61V589.42C165.61 589.88 165.693 590.253 165.86 590.54C166.027 590.827 166.25 591.037 166.53 591.17C166.817 591.303 167.14 591.37 167.5 591.37C167.853 591.37 168.17 591.303 168.45 591.17C168.73 591.037 168.953 590.827 169.12 590.54C169.287 590.253 169.37 589.88 169.37 589.42V585H170.17V589.41C170.17 589.87 170.097 590.267 169.95 590.6C169.81 590.933 169.613 591.21 169.36 591.43C169.107 591.643 168.82 591.803 168.5 591.91C168.18 592.017 167.843 592.07 167.49 592.07C167.01 592.07 166.567 591.977 166.16 591.79C165.753 591.597 165.427 591.303 165.18 590.91C164.933 590.517 164.81 590.017 164.81 589.41V585ZM171.823 585H172.623V592H171.823V585ZM180.905 588.01L180.825 588.02V584.8H181.575V592H180.885L180.835 591.07C180.682 591.35 180.452 591.587 180.145 591.78C179.845 591.973 179.472 592.07 179.025 592.07C178.565 592.07 178.162 591.967 177.815 591.76C177.475 591.547 177.209 591.247 177.015 590.86C176.829 590.473 176.735 590.02 176.735 589.5C176.735 588.98 176.829 588.53 177.015 588.15C177.209 587.763 177.475 587.463 177.815 587.25C178.162 587.037 178.565 586.93 179.025 586.93C179.499 586.93 179.892 587.033 180.205 587.24C180.519 587.447 180.752 587.703 180.905 588.01ZM177.545 589.5C177.545 590.073 177.692 590.53 177.985 590.87C178.279 591.203 178.679 591.37 179.185 591.37C179.499 591.37 179.779 591.297 180.025 591.15C180.272 591.003 180.465 590.79 180.605 590.51C180.752 590.23 180.825 589.893 180.825 589.5C180.825 589.107 180.752 588.773 180.605 588.5C180.465 588.22 180.272 588.007 180.025 587.86C179.779 587.707 179.499 587.63 179.185 587.63C178.685 587.63 178.285 587.8 177.985 588.14C177.692 588.473 177.545 588.927 177.545 589.5ZM185.21 592.07C184.743 592.07 184.327 591.957 183.96 591.73C183.6 591.503 183.317 591.193 183.11 590.8C182.903 590.407 182.8 589.957 182.8 589.45C182.8 588.963 182.903 588.53 183.11 588.15C183.317 587.77 183.6 587.473 183.96 587.26C184.32 587.04 184.73 586.93 185.19 586.93C185.643 586.93 186.047 587.03 186.4 587.23C186.76 587.43 187.04 587.707 187.24 588.06C187.44 588.413 187.533 588.817 187.52 589.27C187.52 589.343 187.517 589.42 187.51 589.5C187.503 589.58 187.497 589.667 187.49 589.76H183.62C183.633 590.073 183.71 590.35 183.85 590.59C183.99 590.83 184.173 591.02 184.4 591.16C184.633 591.293 184.897 591.36 185.19 591.36C185.577 591.36 185.903 591.287 186.17 591.14C186.443 590.993 186.64 590.783 186.76 590.51L187.41 590.77C187.21 591.19 186.92 591.513 186.54 591.74C186.16 591.96 185.717 592.07 185.21 592.07ZM186.7 589.11C186.707 588.823 186.643 588.57 186.51 588.35C186.383 588.13 186.203 587.957 185.97 587.83C185.737 587.703 185.467 587.64 185.16 587.64C184.893 587.64 184.65 587.703 184.43 587.83C184.21 587.957 184.027 588.133 183.88 588.36C183.74 588.58 183.657 588.83 183.63 589.11H186.7ZM189.164 590.47C189.204 590.67 189.278 590.837 189.384 590.97C189.491 591.097 189.628 591.193 189.794 591.26C189.968 591.327 190.168 591.36 190.394 591.36C190.748 591.36 191.014 591.293 191.194 591.16C191.381 591.02 191.474 590.847 191.474 590.64C191.474 590.467 191.418 590.327 191.304 590.22C191.198 590.113 191.054 590.027 190.874 589.96C190.694 589.887 190.494 589.823 190.274 589.77C190.101 589.73 189.914 589.683 189.714 589.63C189.514 589.57 189.324 589.49 189.144 589.39C188.964 589.29 188.818 589.16 188.704 589C188.591 588.84 188.534 588.63 188.534 588.37C188.534 588.083 188.611 587.833 188.764 587.62C188.924 587.4 189.141 587.23 189.414 587.11C189.694 586.99 190.014 586.93 190.374 586.93C190.788 586.93 191.154 587.02 191.474 587.2C191.801 587.38 192.028 587.66 192.154 588.04L191.454 588.28C191.408 588.107 191.321 587.973 191.194 587.88C191.074 587.787 190.938 587.723 190.784 587.69C190.638 587.657 190.491 587.64 190.344 587.64C190.044 587.64 189.801 587.7 189.614 587.82C189.434 587.933 189.344 588.107 189.344 588.34C189.344 588.467 189.374 588.573 189.434 588.66C189.494 588.74 189.578 588.807 189.684 588.86C189.791 588.913 189.918 588.96 190.064 589C190.211 589.033 190.371 589.073 190.544 589.12C190.738 589.167 190.934 589.227 191.134 589.3C191.334 589.367 191.521 589.457 191.694 589.57C191.868 589.677 192.008 589.817 192.114 589.99C192.228 590.157 192.284 590.367 192.284 590.62C192.284 590.913 192.204 591.17 192.044 591.39C191.884 591.603 191.661 591.77 191.374 591.89C191.094 592.01 190.768 592.07 190.394 592.07C189.881 592.07 189.454 591.957 189.114 591.73C188.781 591.497 188.558 591.157 188.444 590.71L189.164 590.47ZM193.65 587H194.39V592H193.65V587ZM194.03 586C193.877 586 193.75 585.95 193.65 585.85C193.55 585.75 193.5 585.627 193.5 585.48C193.5 585.327 193.55 585.2 193.65 585.1C193.75 585 193.877 584.95 194.03 584.95C194.17 584.95 194.29 585 194.39 585.1C194.497 585.2 194.55 585.327 194.55 585.48C194.55 585.627 194.497 585.75 194.39 585.85C194.29 585.95 194.17 586 194.03 586ZM199.919 587H200.609V591.08C200.609 591.693 200.472 592.217 200.199 592.65C199.925 593.09 199.529 593.423 199.009 593.65C198.489 593.883 197.855 594 197.109 594L196.989 593.31C197.929 593.297 198.642 593.1 199.129 592.72C199.615 592.347 199.859 591.8 199.859 591.08V590.97L199.939 590.99C199.785 591.283 199.555 591.537 199.249 591.75C198.942 591.957 198.545 592.063 198.059 592.07C197.599 592.07 197.195 591.967 196.849 591.76C196.509 591.547 196.242 591.247 196.049 590.86C195.862 590.473 195.769 590.02 195.769 589.5C195.769 588.98 195.862 588.53 196.049 588.15C196.242 587.763 196.509 587.463 196.849 587.25C197.195 587.037 197.599 586.93 198.059 586.93C198.359 586.93 198.625 586.977 198.859 587.07C199.092 587.157 199.292 587.277 199.459 587.43C199.625 587.577 199.762 587.743 199.869 587.93L199.919 587ZM196.579 589.5C196.579 590.073 196.725 590.53 197.019 590.87C197.319 591.203 197.722 591.37 198.229 591.37C198.535 591.37 198.812 591.297 199.059 591.15C199.305 591.003 199.499 590.79 199.639 590.51C199.785 590.23 199.859 589.893 199.859 589.5C199.859 589.107 199.785 588.773 199.639 588.5C199.499 588.22 199.305 588.007 199.059 587.86C198.812 587.707 198.535 587.63 198.229 587.63C197.729 587.63 197.329 587.8 197.029 588.14C196.729 588.48 196.579 588.933 196.579 589.5ZM202.143 587H202.833L202.873 587.71C203.033 587.463 203.243 587.273 203.503 587.14C203.763 587 204.066 586.93 204.413 586.93C204.793 586.93 205.126 587.013 205.413 587.18C205.7 587.34 205.923 587.583 206.083 587.91C206.243 588.23 206.323 588.633 206.323 589.12V592H205.573V589.21C205.573 588.69 205.46 588.297 205.233 588.03C205.013 587.757 204.693 587.62 204.273 587.62C203.84 587.62 203.5 587.763 203.253 588.05C203.013 588.337 202.893 588.76 202.893 589.32V592H202.143V587Z" fill="white"/>
<rect x="23" y="606" width="66" height="28" rx="14" fill="#0B5238"/>
<path d="M32.81 617H33.61V621.42C33.61 621.88 33.6933 622.253 33.86 622.54C34.0267 622.827 34.25 623.037 34.53 623.17C34.8167 623.303 35.14 623.37 35.5 623.37C35.8533 623.37 36.17 623.303 36.45 623.17C36.73 623.037 36.9533 622.827 37.12 622.54C37.2867 622.253 37.37 621.88 37.37 621.42V617H38.17V621.41C38.17 621.87 38.0967 622.267 37.95 622.6C37.81 622.933 37.6133 623.21 37.36 623.43C37.1067 623.643 36.82 623.803 36.5 623.91C36.18 624.017 35.8433 624.07 35.49 624.07C35.01 624.07 34.5667 623.977 34.16 623.79C33.7533 623.597 33.4267 623.303 33.18 622.91C32.9333 622.517 32.81 622.017 32.81 621.41V617ZM39.5427 617H40.4227L42.5127 619.86L44.6027 617H45.4927L42.9627 620.5L45.4927 624H44.6027L42.5127 621.14L40.4227 624H39.5427L42.0627 620.5L39.5427 617ZM53.4855 620.01L53.4055 620.02V616.8H54.1555V624H53.4655L53.4155 623.07C53.2621 623.35 53.0321 623.587 52.7255 623.78C52.4255 623.973 52.0521 624.07 51.6055 624.07C51.1455 624.07 50.7421 623.967 50.3955 623.76C50.0555 623.547 49.7888 623.247 49.5955 622.86C49.4088 622.473 49.3155 622.02 49.3155 621.5C49.3155 620.98 49.4088 620.53 49.5955 620.15C49.7888 619.763 50.0555 619.463 50.3955 619.25C50.7421 619.037 51.1455 618.93 51.6055 618.93C52.0788 618.93 52.4721 619.033 52.7855 619.24C53.0988 619.447 53.3321 619.703 53.4855 620.01ZM50.1255 621.5C50.1255 622.073 50.2721 622.53 50.5655 622.87C50.8588 623.203 51.2588 623.37 51.7655 623.37C52.0788 623.37 52.3588 623.297 52.6055 623.15C52.8521 623.003 53.0455 622.79 53.1855 622.51C53.3321 622.23 53.4055 621.893 53.4055 621.5C53.4055 621.107 53.3321 620.773 53.1855 620.5C53.0455 620.22 52.8521 620.007 52.6055 619.86C52.3588 619.707 52.0788 619.63 51.7655 619.63C51.2655 619.63 50.8655 619.8 50.5655 620.14C50.2721 620.473 50.1255 620.927 50.1255 621.5ZM57.7899 624.07C57.3233 624.07 56.9066 623.957 56.5399 623.73C56.1799 623.503 55.8966 623.193 55.6899 622.8C55.4833 622.407 55.3799 621.957 55.3799 621.45C55.3799 620.963 55.4833 620.53 55.6899 620.15C55.8966 619.77 56.1799 619.473 56.5399 619.26C56.8999 619.04 57.3099 618.93 57.7699 618.93C58.2233 618.93 58.6266 619.03 58.9799 619.23C59.3399 619.43 59.6199 619.707 59.8199 620.06C60.0199 620.413 60.1133 620.817 60.0999 621.27C60.0999 621.343 60.0966 621.42 60.0899 621.5C60.0833 621.58 60.0766 621.667 60.0699 621.76H56.1999C56.2133 622.073 56.2899 622.35 56.4299 622.59C56.5699 622.83 56.7533 623.02 56.9799 623.16C57.2133 623.293 57.4766 623.36 57.7699 623.36C58.1566 623.36 58.4833 623.287 58.7499 623.14C59.0233 622.993 59.2199 622.783 59.3399 622.51L59.9899 622.77C59.7899 623.19 59.4999 623.513 59.1199 623.74C58.7399 623.96 58.2966 624.07 57.7899 624.07ZM59.2799 621.11C59.2866 620.823 59.2233 620.57 59.0899 620.35C58.9633 620.13 58.7833 619.957 58.5499 619.83C58.3166 619.703 58.0466 619.64 57.7399 619.64C57.4733 619.64 57.2299 619.703 57.0099 619.83C56.7899 619.957 56.6066 620.133 56.4599 620.36C56.3199 620.58 56.2366 620.83 56.2099 621.11H59.2799ZM61.7445 622.47C61.7845 622.67 61.8578 622.837 61.9645 622.97C62.0711 623.097 62.2078 623.193 62.3745 623.26C62.5478 623.327 62.7478 623.36 62.9745 623.36C63.3278 623.36 63.5945 623.293 63.7745 623.16C63.9611 623.02 64.0545 622.847 64.0545 622.64C64.0545 622.467 63.9978 622.327 63.8845 622.22C63.7778 622.113 63.6345 622.027 63.4545 621.96C63.2745 621.887 63.0745 621.823 62.8545 621.77C62.6811 621.73 62.4945 621.683 62.2945 621.63C62.0945 621.57 61.9045 621.49 61.7245 621.39C61.5445 621.29 61.3978 621.16 61.2845 621C61.1711 620.84 61.1145 620.63 61.1145 620.37C61.1145 620.083 61.1911 619.833 61.3445 619.62C61.5045 619.4 61.7211 619.23 61.9945 619.11C62.2745 618.99 62.5945 618.93 62.9545 618.93C63.3678 618.93 63.7345 619.02 64.0545 619.2C64.3811 619.38 64.6078 619.66 64.7345 620.04L64.0345 620.28C63.9878 620.107 63.9011 619.973 63.7745 619.88C63.6545 619.787 63.5178 619.723 63.3645 619.69C63.2178 619.657 63.0711 619.64 62.9245 619.64C62.6245 619.64 62.3811 619.7 62.1945 619.82C62.0145 619.933 61.9245 620.107 61.9245 620.34C61.9245 620.467 61.9545 620.573 62.0145 620.66C62.0745 620.74 62.1578 620.807 62.2645 620.86C62.3711 620.913 62.4978 620.96 62.6445 621C62.7911 621.033 62.9511 621.073 63.1245 621.12C63.3178 621.167 63.5145 621.227 63.7145 621.3C63.9145 621.367 64.1011 621.457 64.2745 621.57C64.4478 621.677 64.5878 621.817 64.6945 621.99C64.8078 622.157 64.8645 622.367 64.8645 622.62C64.8645 622.913 64.7845 623.17 64.6245 623.39C64.4645 623.603 64.2411 623.77 63.9545 623.89C63.6745 624.01 63.3478 624.07 62.9745 624.07C62.4611 624.07 62.0345 623.957 61.6945 623.73C61.3611 623.497 61.1378 623.157 61.0245 622.71L61.7445 622.47ZM66.2305 619H66.9705V624H66.2305V619ZM66.6105 618C66.4572 618 66.3305 617.95 66.2305 617.85C66.1305 617.75 66.0805 617.627 66.0805 617.48C66.0805 617.327 66.1305 617.2 66.2305 617.1C66.3305 617 66.4572 616.95 66.6105 616.95C66.7505 616.95 66.8705 617 66.9705 617.1C67.0772 617.2 67.1305 617.327 67.1305 617.48C67.1305 617.627 67.0772 617.75 66.9705 617.85C66.8705 617.95 66.7505 618 66.6105 618ZM72.4987 619H73.1887V623.08C73.1887 623.693 73.052 624.217 72.7787 624.65C72.5053 625.09 72.1087 625.423 71.5887 625.65C71.0687 625.883 70.4353 626 69.6887 626L69.5687 625.31C70.5087 625.297 71.222 625.1 71.7087 624.72C72.1953 624.347 72.4387 623.8 72.4387 623.08V622.97L72.5187 622.99C72.3653 623.283 72.1353 623.537 71.8287 623.75C71.522 623.957 71.1253 624.063 70.6387 624.07C70.1787 624.07 69.7753 623.967 69.4287 623.76C69.0887 623.547 68.822 623.247 68.6287 622.86C68.442 622.473 68.3487 622.02 68.3487 621.5C68.3487 620.98 68.442 620.53 68.6287 620.15C68.822 619.763 69.0887 619.463 69.4287 619.25C69.7753 619.037 70.1787 618.93 70.6387 618.93C70.9387 618.93 71.2053 618.977 71.4387 619.07C71.672 619.157 71.872 619.277 72.0387 619.43C72.2053 619.577 72.342 619.743 72.4487 619.93L72.4987 619ZM69.1587 621.5C69.1587 622.073 69.3053 622.53 69.5987 622.87C69.8987 623.203 70.302 623.37 70.8087 623.37C71.1153 623.37 71.392 623.297 71.6387 623.15C71.8853 623.003 72.0787 622.79 72.2187 622.51C72.3653 622.23 72.4387 621.893 72.4387 621.5C72.4387 621.107 72.3653 620.773 72.2187 620.5C72.0787 620.22 71.8853 620.007 71.6387 619.86C71.392 619.707 71.1153 619.63 70.8087 619.63C70.3087 619.63 69.9087 619.8 69.6087 620.14C69.3087 620.48 69.1587 620.933 69.1587 621.5ZM74.7231 619H75.4131L75.4531 619.71C75.6131 619.463 75.8231 619.273 76.0831 619.14C76.3431 619 76.6465 618.93 76.9931 618.93C77.3731 618.93 77.7065 619.013 77.9931 619.18C78.2798 619.34 78.5031 619.583 78.6631 619.91C78.8231 620.23 78.9031 620.633 78.9031 621.12V624H78.1531V621.21C78.1531 620.69 78.0398 620.297 77.8131 620.03C77.5931 619.757 77.2731 619.62 76.8531 619.62C76.4198 619.62 76.0798 619.763 75.8331 620.05C75.5931 620.337 75.4731 620.76 75.4731 621.32V624H74.7231V619Z" fill="white"/>
<rect x="93" y="606" width="149" height="28" rx="14" fill="#0B5238"/>
<path d="M104.13 624H103.25L101.28 617H102.13L103.69 623.03L105.41 617H106.3L108.01 623.02L109.58 617H110.42L108.45 624H107.57L105.85 618.2L104.13 624ZM111.627 619H112.367V624H111.627V619ZM112.007 618C111.854 618 111.727 617.95 111.627 617.85C111.527 617.75 111.477 617.627 111.477 617.48C111.477 617.327 111.527 617.2 111.627 617.1C111.727 617 111.854 616.95 112.007 616.95C112.147 616.95 112.267 617 112.367 617.1C112.474 617.2 112.527 617.327 112.527 617.48C112.527 617.627 112.474 617.75 112.367 617.85C112.267 617.95 112.147 618 112.007 618ZM114.055 619H114.745L114.785 619.73C114.918 619.55 115.078 619.397 115.265 619.27C115.458 619.143 115.668 619.057 115.895 619.01C116.128 618.957 116.375 618.953 116.635 619V619.75C116.355 619.697 116.102 619.697 115.875 619.75C115.655 619.803 115.465 619.903 115.305 620.05C115.145 620.197 115.022 620.383 114.935 620.61C114.848 620.83 114.805 621.087 114.805 621.38V624H114.055V619ZM119.661 624.07C119.194 624.07 118.778 623.957 118.411 623.73C118.051 623.503 117.768 623.193 117.561 622.8C117.354 622.407 117.251 621.957 117.251 621.45C117.251 620.963 117.354 620.53 117.561 620.15C117.768 619.77 118.051 619.473 118.411 619.26C118.771 619.04 119.181 618.93 119.641 618.93C120.094 618.93 120.498 619.03 120.851 619.23C121.211 619.43 121.491 619.707 121.691 620.06C121.891 620.413 121.984 620.817 121.971 621.27C121.971 621.343 121.968 621.42 121.961 621.5C121.954 621.58 121.948 621.667 121.941 621.76H118.071C118.084 622.073 118.161 622.35 118.301 622.59C118.441 622.83 118.624 623.02 118.851 623.16C119.084 623.293 119.348 623.36 119.641 623.36C120.028 623.36 120.354 623.287 120.621 623.14C120.894 622.993 121.091 622.783 121.211 622.51L121.861 622.77C121.661 623.19 121.371 623.513 120.991 623.74C120.611 623.96 120.168 624.07 119.661 624.07ZM121.151 621.11C121.158 620.823 121.094 620.57 120.961 620.35C120.834 620.13 120.654 619.957 120.421 619.83C120.188 619.703 119.918 619.64 119.611 619.64C119.344 619.64 119.101 619.703 118.881 619.83C118.661 619.957 118.478 620.133 118.331 620.36C118.191 620.58 118.108 620.83 118.081 621.11H121.151ZM123.476 618.41C123.476 618.043 123.536 617.733 123.656 617.48C123.776 617.227 123.966 617.043 124.226 616.93C124.492 616.81 124.846 616.767 125.286 616.8V617.47C124.886 617.437 124.609 617.503 124.456 617.67C124.302 617.83 124.226 618.077 124.226 618.41V619H125.326V619.7H124.226V624H123.476V619.7H122.776V619H123.476V618.41ZM126.448 619H127.138L127.178 619.73C127.311 619.55 127.471 619.397 127.658 619.27C127.851 619.143 128.061 619.057 128.288 619.01C128.521 618.957 128.768 618.953 129.028 619V619.75C128.748 619.697 128.494 619.697 128.268 619.75C128.048 619.803 127.858 619.903 127.698 620.05C127.538 620.197 127.414 620.383 127.328 620.61C127.241 620.83 127.198 621.087 127.198 621.38V624H126.448V619ZM133.181 624L133.121 623.1C132.981 623.407 132.775 623.647 132.501 623.82C132.228 623.987 131.881 624.07 131.461 624.07C131.101 624.07 130.795 624.013 130.541 623.9C130.288 623.787 130.091 623.627 129.951 623.42C129.818 623.207 129.751 622.957 129.751 622.67C129.751 622.25 129.908 621.907 130.221 621.64C130.535 621.367 130.988 621.2 131.581 621.14L133.121 620.97V620.57C133.121 620.29 133.018 620.067 132.811 619.9C132.605 619.727 132.325 619.64 131.971 619.64C131.625 619.64 131.335 619.72 131.101 619.88C130.875 620.04 130.718 620.27 130.631 620.57L129.951 620.33C130.085 619.89 130.328 619.547 130.681 619.3C131.041 619.053 131.478 618.93 131.991 618.93C132.585 618.93 133.045 619.083 133.371 619.39C133.705 619.69 133.871 620.1 133.871 620.62V624H133.181ZM133.121 621.61L131.571 621.79C131.238 621.83 130.985 621.923 130.811 622.07C130.638 622.21 130.551 622.397 130.551 622.63C130.551 622.863 130.635 623.05 130.801 623.19C130.975 623.33 131.221 623.4 131.541 623.4C131.908 623.4 132.208 623.327 132.441 623.18C132.675 623.033 132.845 622.837 132.951 622.59C133.065 622.337 133.121 622.063 133.121 621.77V621.61ZM135.334 619H136.024L136.074 619.72C136.221 619.48 136.418 619.29 136.664 619.15C136.918 619.003 137.218 618.93 137.564 618.93C137.918 618.93 138.238 619.017 138.524 619.19C138.818 619.357 139.044 619.607 139.204 619.94C139.358 619.6 139.591 619.347 139.904 619.18C140.218 619.013 140.564 618.93 140.944 618.93C141.318 618.93 141.648 619.013 141.934 619.18C142.221 619.34 142.444 619.583 142.604 619.91C142.764 620.23 142.844 620.633 142.844 621.12V624H142.094V621.21C142.094 620.69 141.981 620.297 141.754 620.03C141.534 619.757 141.218 619.62 140.804 619.62C140.384 619.62 140.051 619.767 139.804 620.06C139.558 620.347 139.434 620.773 139.434 621.34V624H138.684V621.21C138.684 620.69 138.578 620.297 138.364 620.03C138.151 619.757 137.838 619.62 137.424 619.62C137.004 619.62 136.674 619.767 136.434 620.06C136.201 620.347 136.084 620.773 136.084 621.34V624H135.334V619ZM144.449 619H145.189V624H144.449V619ZM144.829 618C144.676 618 144.549 617.95 144.449 617.85C144.349 617.75 144.299 617.627 144.299 617.48C144.299 617.327 144.349 617.2 144.449 617.1C144.549 617 144.676 616.95 144.829 616.95C144.969 616.95 145.089 617 145.189 617.1C145.296 617.2 145.349 617.327 145.349 617.48C145.349 617.627 145.296 617.75 145.189 617.85C145.089 617.95 144.969 618 144.829 618ZM146.877 619H147.567L147.607 619.71C147.767 619.463 147.977 619.273 148.237 619.14C148.497 619 148.801 618.93 149.147 618.93C149.527 618.93 149.861 619.013 150.147 619.18C150.434 619.34 150.657 619.583 150.817 619.91C150.977 620.23 151.057 620.633 151.057 621.12V624H150.307V621.21C150.307 620.69 150.194 620.297 149.967 620.03C149.747 619.757 149.427 619.62 149.007 619.62C148.574 619.62 148.234 619.763 147.987 620.05C147.747 620.337 147.627 620.76 147.627 621.32V624H146.877V619ZM156.352 619H157.042V623.08C157.042 623.693 156.906 624.217 156.632 624.65C156.359 625.09 155.962 625.423 155.442 625.65C154.922 625.883 154.289 626 153.542 626L153.422 625.31C154.362 625.297 155.076 625.1 155.562 624.72C156.049 624.347 156.292 623.8 156.292 623.08V622.97L156.372 622.99C156.219 623.283 155.989 623.537 155.682 623.75C155.376 623.957 154.979 624.063 154.492 624.07C154.032 624.07 153.629 623.967 153.282 623.76C152.942 623.547 152.676 623.247 152.482 622.86C152.296 622.473 152.202 622.02 152.202 621.5C152.202 620.98 152.296 620.53 152.482 620.15C152.676 619.763 152.942 619.463 153.282 619.25C153.629 619.037 154.032 618.93 154.492 618.93C154.792 618.93 155.059 618.977 155.292 619.07C155.526 619.157 155.726 619.277 155.892 619.43C156.059 619.577 156.196 619.743 156.302 619.93L156.352 619ZM153.012 621.5C153.012 622.073 153.159 622.53 153.452 622.87C153.752 623.203 154.156 623.37 154.662 623.37C154.969 623.37 155.246 623.297 155.492 623.15C155.739 623.003 155.932 622.79 156.072 622.51C156.219 622.23 156.292 621.893 156.292 621.5C156.292 621.107 156.219 620.773 156.072 620.5C155.932 620.22 155.739 620.007 155.492 619.86C155.246 619.707 154.969 619.63 154.662 619.63C154.162 619.63 153.762 619.8 153.462 620.14C153.162 620.48 153.012 620.933 153.012 621.5ZM164.509 624L164.449 623.1C164.309 623.407 164.103 623.647 163.829 623.82C163.556 623.987 163.209 624.07 162.789 624.07C162.429 624.07 162.123 624.013 161.869 623.9C161.616 623.787 161.419 623.627 161.279 623.42C161.146 623.207 161.079 622.957 161.079 622.67C161.079 622.25 161.236 621.907 161.549 621.64C161.863 621.367 162.316 621.2 162.909 621.14L164.449 620.97V620.57C164.449 620.29 164.346 620.067 164.139 619.9C163.933 619.727 163.653 619.64 163.299 619.64C162.953 619.64 162.663 619.72 162.429 619.88C162.203 620.04 162.046 620.27 161.959 620.57L161.279 620.33C161.413 619.89 161.656 619.547 162.009 619.3C162.369 619.053 162.806 618.93 163.319 618.93C163.913 618.93 164.373 619.083 164.699 619.39C165.033 619.69 165.199 620.1 165.199 620.62V624H164.509ZM164.449 621.61L162.899 621.79C162.566 621.83 162.313 621.923 162.139 622.07C161.966 622.21 161.879 622.397 161.879 622.63C161.879 622.863 161.963 623.05 162.129 623.19C162.303 623.33 162.549 623.4 162.869 623.4C163.236 623.4 163.536 623.327 163.769 623.18C164.003 623.033 164.173 622.837 164.279 622.59C164.393 622.337 164.449 622.063 164.449 621.77V621.61ZM166.663 619H167.353L167.393 619.71C167.553 619.463 167.763 619.273 168.023 619.14C168.283 619 168.586 618.93 168.933 618.93C169.313 618.93 169.646 619.013 169.933 619.18C170.219 619.34 170.443 619.583 170.603 619.91C170.763 620.23 170.843 620.633 170.843 621.12V624H170.093V621.21C170.093 620.69 169.979 620.297 169.753 620.03C169.533 619.757 169.213 619.62 168.793 619.62C168.359 619.62 168.019 619.763 167.773 620.05C167.533 620.337 167.413 620.76 167.413 621.32V624H166.663V619ZM176.157 620.01L176.077 620.02V616.8H176.827V624H176.137L176.087 623.07C175.934 623.35 175.704 623.587 175.397 623.78C175.097 623.973 174.724 624.07 174.277 624.07C173.817 624.07 173.414 623.967 173.067 623.76C172.727 623.547 172.461 623.247 172.267 622.86C172.081 622.473 171.987 622.02 171.987 621.5C171.987 620.98 172.081 620.53 172.267 620.15C172.461 619.763 172.727 619.463 173.067 619.25C173.414 619.037 173.817 618.93 174.277 618.93C174.751 618.93 175.144 619.033 175.457 619.24C175.771 619.447 176.004 619.703 176.157 620.01ZM172.797 621.5C172.797 622.073 172.944 622.53 173.237 622.87C173.531 623.203 173.931 623.37 174.437 623.37C174.751 623.37 175.031 623.297 175.277 623.15C175.524 623.003 175.717 622.79 175.857 622.51C176.004 622.23 176.077 621.893 176.077 621.5C176.077 621.107 176.004 620.773 175.857 620.5C175.717 620.22 175.524 620.007 175.277 619.86C175.031 619.707 174.751 619.63 174.437 619.63C173.937 619.63 173.537 619.8 173.237 620.14C172.944 620.473 172.797 620.927 172.797 621.5ZM181.835 622.99L181.915 622.98V626H181.165V619H181.855L181.905 619.93C182.058 619.65 182.285 619.413 182.585 619.22C182.885 619.027 183.261 618.93 183.715 618.93C184.148 618.93 184.538 619.037 184.885 619.25C185.231 619.457 185.505 619.753 185.705 620.14C185.905 620.52 186.005 620.973 186.005 621.5C186.005 622.02 185.908 622.473 185.715 622.86C185.528 623.24 185.261 623.537 184.915 623.75C184.575 623.963 184.175 624.07 183.715 624.07C183.235 624.07 182.838 623.967 182.525 623.76C182.211 623.553 181.981 623.297 181.835 622.99ZM185.195 621.5C185.195 620.927 185.045 620.473 184.745 620.14C184.451 619.8 184.055 619.63 183.555 619.63C183.241 619.63 182.958 619.703 182.705 619.85C182.458 619.997 182.265 620.21 182.125 620.49C181.985 620.77 181.915 621.107 181.915 621.5C181.915 621.887 181.985 622.22 182.125 622.5C182.265 622.78 182.458 622.997 182.705 623.15C182.958 623.297 183.241 623.37 183.555 623.37C184.055 623.37 184.451 623.203 184.745 622.87C185.045 622.53 185.195 622.073 185.195 621.5ZM187.229 619H187.919L187.959 619.73C188.092 619.55 188.252 619.397 188.439 619.27C188.632 619.143 188.842 619.057 189.069 619.01C189.302 618.957 189.549 618.953 189.809 619V619.75C189.529 619.697 189.276 619.697 189.049 619.75C188.829 619.803 188.639 619.903 188.479 620.05C188.319 620.197 188.196 620.383 188.109 620.61C188.022 620.83 187.979 621.087 187.979 621.38V624H187.229V619ZM192.895 624.07C192.422 624.07 191.998 623.967 191.625 623.76C191.252 623.553 190.958 623.26 190.745 622.88C190.532 622.493 190.425 622.037 190.425 621.51C190.425 620.977 190.532 620.517 190.745 620.13C190.965 619.743 191.262 619.447 191.635 619.24C192.015 619.033 192.442 618.93 192.915 618.93C193.388 618.93 193.812 619.033 194.185 619.24C194.565 619.447 194.862 619.743 195.075 620.13C195.295 620.51 195.405 620.963 195.405 621.49C195.405 622.023 195.295 622.483 195.075 622.87C194.855 623.257 194.555 623.553 194.175 623.76C193.795 623.967 193.368 624.07 192.895 624.07ZM192.885 623.36C193.178 623.36 193.455 623.297 193.715 623.17C193.975 623.037 194.185 622.833 194.345 622.56C194.512 622.28 194.595 621.927 194.595 621.5C194.595 621.067 194.515 620.713 194.355 620.44C194.195 620.167 193.985 619.967 193.725 619.84C193.472 619.707 193.198 619.64 192.905 619.64C192.612 619.64 192.338 619.707 192.085 619.84C191.832 619.967 191.625 620.17 191.465 620.45C191.312 620.723 191.235 621.073 191.235 621.5C191.235 621.933 191.312 622.287 191.465 622.56C191.618 622.833 191.818 623.037 192.065 623.17C192.318 623.297 192.592 623.36 192.885 623.36ZM196.758 619V617.6H197.508V619H198.838V619.7H197.508V622.39C197.508 622.697 197.571 622.92 197.698 623.06C197.831 623.2 197.998 623.283 198.198 623.31C198.405 623.337 198.618 623.337 198.838 623.31V623.96C198.578 624.02 198.321 624.037 198.068 624.01C197.821 623.983 197.598 623.91 197.398 623.79C197.205 623.663 197.048 623.487 196.928 623.26C196.815 623.033 196.758 622.743 196.758 622.39V619.7H196.008V619H196.758ZM202.114 624.07C201.64 624.07 201.217 623.967 200.844 623.76C200.47 623.553 200.177 623.26 199.964 622.88C199.75 622.493 199.644 622.037 199.644 621.51C199.644 620.977 199.75 620.517 199.964 620.13C200.184 619.743 200.48 619.447 200.854 619.24C201.234 619.033 201.66 618.93 202.134 618.93C202.607 618.93 203.03 619.033 203.404 619.24C203.784 619.447 204.08 619.743 204.294 620.13C204.514 620.51 204.624 620.963 204.624 621.49C204.624 622.023 204.514 622.483 204.294 622.87C204.074 623.257 203.774 623.553 203.394 623.76C203.014 623.967 202.587 624.07 202.114 624.07ZM202.104 623.36C202.397 623.36 202.674 623.297 202.934 623.17C203.194 623.037 203.404 622.833 203.564 622.56C203.73 622.28 203.814 621.927 203.814 621.5C203.814 621.067 203.734 620.713 203.574 620.44C203.414 620.167 203.204 619.967 202.944 619.84C202.69 619.707 202.417 619.64 202.124 619.64C201.83 619.64 201.557 619.707 201.304 619.84C201.05 619.967 200.844 620.17 200.684 620.45C200.53 620.723 200.454 621.073 200.454 621.5C200.454 621.933 200.53 622.287 200.684 622.56C200.837 622.833 201.037 623.037 201.284 623.17C201.537 623.297 201.81 623.36 202.104 623.36ZM205.977 619V617.6H206.727V619H208.057V619.7H206.727V622.39C206.727 622.697 206.79 622.92 206.917 623.06C207.05 623.2 207.217 623.283 207.417 623.31C207.623 623.337 207.837 623.337 208.057 623.31V623.96C207.797 624.02 207.54 624.037 207.287 624.01C207.04 623.983 206.817 623.91 206.617 623.79C206.423 623.663 206.267 623.487 206.147 623.26C206.033 623.033 205.977 622.743 205.977 622.39V619.7H205.227V619H205.977ZM212.562 619H213.342L210.482 626H209.762L210.612 623.93L208.592 619H209.412L211.012 623.04L212.562 619ZM214.969 622.99L215.049 622.98V626H214.299V619H214.989L215.039 619.93C215.193 619.65 215.419 619.413 215.719 619.22C216.019 619.027 216.396 618.93 216.849 618.93C217.283 618.93 217.673 619.037 218.019 619.25C218.366 619.457 218.639 619.753 218.839 620.14C219.039 620.52 219.139 620.973 219.139 621.5C219.139 622.02 219.043 622.473 218.849 622.86C218.663 623.24 218.396 623.537 218.049 623.75C217.709 623.963 217.309 624.07 216.849 624.07C216.369 624.07 215.973 623.967 215.659 623.76C215.346 623.553 215.116 623.297 214.969 622.99ZM218.329 621.5C218.329 620.927 218.179 620.473 217.879 620.14C217.586 619.8 217.189 619.63 216.689 619.63C216.376 619.63 216.093 619.703 215.839 619.85C215.593 619.997 215.399 620.21 215.259 620.49C215.119 620.77 215.049 621.107 215.049 621.5C215.049 621.887 215.119 622.22 215.259 622.5C215.399 622.78 215.593 622.997 215.839 623.15C216.093 623.297 216.376 623.37 216.689 623.37C217.189 623.37 217.586 623.203 217.879 622.87C218.179 622.53 218.329 622.073 218.329 621.5ZM220.514 619H221.254V624H220.514V619ZM220.894 618C220.74 618 220.614 617.95 220.514 617.85C220.414 617.75 220.364 617.627 220.364 617.48C220.364 617.327 220.414 617.2 220.514 617.1C220.614 617 220.74 616.95 220.894 616.95C221.034 616.95 221.154 617 221.254 617.1C221.36 617.2 221.414 617.327 221.414 617.48C221.414 617.627 221.36 617.75 221.254 617.85C221.154 617.95 221.034 618 220.894 618ZM222.942 619H223.632L223.672 619.71C223.832 619.463 224.042 619.273 224.302 619.14C224.562 619 224.865 618.93 225.212 618.93C225.592 618.93 225.925 619.013 226.212 619.18C226.499 619.34 226.722 619.583 226.882 619.91C227.042 620.23 227.122 620.633 227.122 621.12V624H226.372V621.21C226.372 620.69 226.259 620.297 226.032 620.03C225.812 619.757 225.492 619.62 225.072 619.62C224.639 619.62 224.299 619.763 224.052 620.05C223.812 620.337 223.692 620.76 223.692 621.32V624H222.942V619ZM232.417 619H233.107V623.08C233.107 623.693 232.97 624.217 232.697 624.65C232.423 625.09 232.027 625.423 231.507 625.65C230.987 625.883 230.353 626 229.607 626L229.487 625.31C230.427 625.297 231.14 625.1 231.627 624.72C232.113 624.347 232.357 623.8 232.357 623.08V622.97L232.437 622.99C232.283 623.283 232.053 623.537 231.747 623.75C231.44 623.957 231.043 624.063 230.557 624.07C230.097 624.07 229.693 623.967 229.347 623.76C229.007 623.547 228.74 623.247 228.547 622.86C228.36 622.473 228.267 622.02 228.267 621.5C228.267 620.98 228.36 620.53 228.547 620.15C228.74 619.763 229.007 619.463 229.347 619.25C229.693 619.037 230.097 618.93 230.557 618.93C230.857 618.93 231.123 618.977 231.357 619.07C231.59 619.157 231.79 619.277 231.957 619.43C232.123 619.577 232.26 619.743 232.367 619.93L232.417 619ZM229.077 621.5C229.077 622.073 229.223 622.53 229.517 622.87C229.817 623.203 230.22 623.37 230.727 623.37C231.033 623.37 231.31 623.297 231.557 623.15C231.803 623.003 231.997 622.79 232.137 622.51C232.283 622.23 232.357 621.893 232.357 621.5C232.357 621.107 232.283 620.773 232.137 620.5C231.997 620.22 231.803 620.007 231.557 619.86C231.31 619.707 231.033 619.63 230.727 619.63C230.227 619.63 229.827 619.8 229.527 620.14C229.227 620.48 229.077 620.933 229.077 621.5Z" fill="white"/>
<rect x="23" y="638" width="111" height="28" rx="14" fill="#0B5238"/>
<path d="M37.33 651.1C37.0767 650.6 36.74 650.233 36.32 650C35.9 649.76 35.4333 649.64 34.92 649.64C34.4133 649.64 33.9567 649.757 33.55 649.99C33.1433 650.223 32.8233 650.553 32.59 650.98C32.3567 651.407 32.24 651.913 32.24 652.5C32.24 653.08 32.3567 653.583 32.59 654.01C32.8233 654.437 33.1433 654.767 33.55 655C33.9567 655.233 34.4133 655.35 34.92 655.35C35.3 655.35 35.6533 655.287 35.98 655.16C36.3067 655.027 36.59 654.84 36.83 654.6C37.07 654.353 37.2533 654.06 37.38 653.72V652.91H34.98V652.26H38.19V653.76C38.0367 654.207 37.8033 654.603 37.49 654.95C37.1767 655.297 36.8 655.57 36.36 655.77C35.92 655.97 35.44 656.07 34.92 656.07C34.4267 656.07 33.9667 655.983 33.54 655.81C33.12 655.637 32.75 655.393 32.43 655.08C32.1167 654.76 31.87 654.383 31.69 653.95C31.5167 653.51 31.43 653.027 31.43 652.5C31.43 651.973 31.5167 651.493 31.69 651.06C31.87 650.62 32.1167 650.243 32.43 649.93C32.75 649.61 33.12 649.363 33.54 649.19C33.9667 649.017 34.4267 648.93 34.92 648.93C35.38 648.93 35.81 649.007 36.21 649.16C36.6167 649.307 36.9767 649.523 37.29 649.81C37.6033 650.09 37.85 650.433 38.03 650.84L37.33 651.1ZM39.4653 651H40.1553L40.1953 651.73C40.3286 651.55 40.4886 651.397 40.6753 651.27C40.8686 651.143 41.0786 651.057 41.3053 651.01C41.5386 650.957 41.7853 650.953 42.0453 651V651.75C41.7653 651.697 41.512 651.697 41.2853 651.75C41.0653 651.803 40.8753 651.903 40.7153 652.05C40.5553 652.197 40.432 652.383 40.3453 652.61C40.2586 652.83 40.2153 653.087 40.2153 653.38V656H39.4653V651ZM46.1988 656L46.1388 655.1C45.9988 655.407 45.7922 655.647 45.5188 655.82C45.2455 655.987 44.8988 656.07 44.4788 656.07C44.1188 656.07 43.8122 656.013 43.5588 655.9C43.3055 655.787 43.1088 655.627 42.9688 655.42C42.8355 655.207 42.7688 654.957 42.7688 654.67C42.7688 654.25 42.9255 653.907 43.2388 653.64C43.5522 653.367 44.0055 653.2 44.5988 653.14L46.1388 652.97V652.57C46.1388 652.29 46.0355 652.067 45.8288 651.9C45.6222 651.727 45.3422 651.64 44.9888 651.64C44.6422 651.64 44.3522 651.72 44.1188 651.88C43.8922 652.04 43.7355 652.27 43.6488 652.57L42.9688 652.33C43.1022 651.89 43.3455 651.547 43.6988 651.3C44.0588 651.053 44.4955 650.93 45.0088 650.93C45.6022 650.93 46.0622 651.083 46.3888 651.39C46.7222 651.69 46.8888 652.1 46.8888 652.62V656H46.1988ZM46.1388 653.61L44.5888 653.79C44.2555 653.83 44.0022 653.923 43.8288 654.07C43.6555 654.21 43.5688 654.397 43.5688 654.63C43.5688 654.863 43.6522 655.05 43.8188 655.19C43.9922 655.33 44.2388 655.4 44.5588 655.4C44.9255 655.4 45.2255 655.327 45.4588 655.18C45.6922 655.033 45.8622 654.837 45.9688 654.59C46.0822 654.337 46.1388 654.063 46.1388 653.77V653.61ZM49.022 654.99L49.102 654.98V658H48.352V651H49.042L49.092 651.93C49.2454 651.65 49.472 651.413 49.772 651.22C50.072 651.027 50.4487 650.93 50.902 650.93C51.3354 650.93 51.7254 651.037 52.072 651.25C52.4187 651.457 52.692 651.753 52.892 652.14C53.092 652.52 53.192 652.973 53.192 653.5C53.192 654.02 53.0954 654.473 52.902 654.86C52.7154 655.24 52.4487 655.537 52.102 655.75C51.762 655.963 51.362 656.07 50.902 656.07C50.422 656.07 50.0254 655.967 49.712 655.76C49.3987 655.553 49.1687 655.297 49.022 654.99ZM52.382 653.5C52.382 652.927 52.232 652.473 51.932 652.14C51.6387 651.8 51.242 651.63 50.742 651.63C50.4287 651.63 50.1454 651.703 49.892 651.85C49.6454 651.997 49.452 652.21 49.312 652.49C49.172 652.77 49.102 653.107 49.102 653.5C49.102 653.887 49.172 654.22 49.312 654.5C49.452 654.78 49.6454 654.997 49.892 655.15C50.1454 655.297 50.4287 655.37 50.742 655.37C51.242 655.37 51.6387 655.203 51.932 654.87C52.232 654.53 52.382 654.073 52.382 653.5ZM54.4165 648.8H55.1665V651.68C55.3265 651.44 55.5432 651.257 55.8165 651.13C56.0898 650.997 56.3965 650.93 56.7365 650.93C57.1032 650.93 57.4298 651.013 57.7165 651.18C58.0032 651.347 58.2265 651.593 58.3865 651.92C58.5532 652.247 58.6365 652.653 58.6365 653.14V656H57.8365V653.23C57.8365 652.71 57.7265 652.313 57.5065 652.04C57.2865 651.76 56.9665 651.62 56.5465 651.62C56.1132 651.62 55.7732 651.767 55.5265 652.06C55.2865 652.353 55.1665 652.78 55.1665 653.34V656H54.4165V648.8ZM60.2403 651H60.9803V656H60.2403V651ZM60.6203 650C60.467 650 60.3403 649.95 60.2403 649.85C60.1403 649.75 60.0903 649.627 60.0903 649.48C60.0903 649.327 60.1403 649.2 60.2403 649.1C60.3403 649 60.467 648.95 60.6203 648.95C60.7603 648.95 60.8803 649 60.9803 649.1C61.087 649.2 61.1403 649.327 61.1403 649.48C61.1403 649.627 61.087 649.75 60.9803 649.85C60.8803 649.95 60.7603 650 60.6203 650ZM64.7984 656.07C64.3118 656.07 63.8851 655.963 63.5184 655.75C63.1518 655.537 62.8651 655.24 62.6584 654.86C62.4584 654.473 62.3584 654.027 62.3584 653.52C62.3584 653.007 62.4584 652.557 62.6584 652.17C62.8651 651.777 63.1518 651.473 63.5184 651.26C63.8851 651.04 64.3118 650.93 64.7984 650.93C65.3118 650.93 65.7618 651.05 66.1484 651.29C66.5351 651.523 66.8151 651.85 66.9884 652.27L66.2984 652.51C66.1984 652.243 66.0151 652.033 65.7484 651.88C65.4884 651.72 65.1851 651.64 64.8384 651.64C64.4984 651.64 64.2018 651.717 63.9484 651.87C63.7018 652.023 63.5084 652.24 63.3684 652.52C63.2351 652.8 63.1684 653.13 63.1684 653.51C63.1684 654.07 63.3184 654.52 63.6184 654.86C63.9184 655.193 64.3184 655.36 64.8184 655.36C65.1584 655.36 65.4618 655.283 65.7284 655.13C65.9951 654.977 66.1918 654.77 66.3184 654.51L66.9984 654.75C66.8184 655.163 66.5351 655.487 66.1484 655.72C65.7618 655.953 65.3118 656.07 64.7984 656.07ZM71.6978 654.99L71.7778 654.98V658H71.0278V651H71.7178L71.7678 651.93C71.9211 651.65 72.1478 651.413 72.4478 651.22C72.7478 651.027 73.1245 650.93 73.5778 650.93C74.0111 650.93 74.4011 651.037 74.7478 651.25C75.0945 651.457 75.3678 651.753 75.5678 652.14C75.7678 652.52 75.8678 652.973 75.8678 653.5C75.8678 654.02 75.7711 654.473 75.5778 654.86C75.3911 655.24 75.1245 655.537 74.7778 655.75C74.4378 655.963 74.0378 656.07 73.5778 656.07C73.0978 656.07 72.7011 655.967 72.3878 655.76C72.0745 655.553 71.8445 655.297 71.6978 654.99ZM75.0578 653.5C75.0578 652.927 74.9078 652.473 74.6078 652.14C74.3145 651.8 73.9178 651.63 73.4178 651.63C73.1045 651.63 72.8211 651.703 72.5678 651.85C72.3211 651.997 72.1278 652.21 71.9878 652.49C71.8478 652.77 71.7778 653.107 71.7778 653.5C71.7778 653.887 71.8478 654.22 71.9878 654.5C72.1278 654.78 72.3211 654.997 72.5678 655.15C72.8211 655.297 73.1045 655.37 73.4178 655.37C73.9178 655.37 74.3145 655.203 74.6078 654.87C74.9078 654.53 75.0578 654.073 75.0578 653.5ZM77.0923 651H77.7823L77.8223 651.73C77.9556 651.55 78.1156 651.397 78.3023 651.27C78.4956 651.143 78.7056 651.057 78.9323 651.01C79.1656 650.957 79.4123 650.953 79.6723 651V651.75C79.3923 651.697 79.1389 651.697 78.9123 651.75C78.6923 651.803 78.5023 651.903 78.3423 652.05C78.1823 652.197 78.0589 652.383 77.9723 652.61C77.8856 652.83 77.8423 653.087 77.8423 653.38V656H77.0923V651ZM80.8458 651H81.5858V656H80.8458V651ZM81.2258 650C81.0724 650 80.9458 649.95 80.8458 649.85C80.7458 649.75 80.6958 649.627 80.6958 649.48C80.6958 649.327 80.7458 649.2 80.8458 649.1C80.9458 649 81.0724 648.95 81.2258 648.95C81.3658 648.95 81.4858 649 81.5858 649.1C81.6924 649.2 81.7458 649.327 81.7458 649.48C81.7458 649.627 81.6924 649.75 81.5858 649.85C81.4858 649.95 81.3658 650 81.2258 650ZM83.2739 651H83.9639L84.0039 651.71C84.1639 651.463 84.3739 651.273 84.6339 651.14C84.8939 651 85.1972 650.93 85.5439 650.93C85.9239 650.93 86.2572 651.013 86.5439 651.18C86.8306 651.34 87.0539 651.583 87.2139 651.91C87.3739 652.23 87.4539 652.633 87.4539 653.12V656H86.7039V653.21C86.7039 652.69 86.5906 652.297 86.3639 652.03C86.1439 651.757 85.8239 651.62 85.4039 651.62C84.9706 651.62 84.6306 651.763 84.3839 652.05C84.1439 652.337 84.0239 652.76 84.0239 653.32V656H83.2739V651ZM89.2287 651V649.6H89.9787V651H91.3087V651.7H89.9787V654.39C89.9787 654.697 90.042 654.92 90.1687 655.06C90.302 655.2 90.4687 655.283 90.6687 655.31C90.8753 655.337 91.0887 655.337 91.3087 655.31V655.96C91.0487 656.02 90.792 656.037 90.5387 656.01C90.292 655.983 90.0687 655.91 89.8687 655.79C89.6753 655.663 89.5187 655.487 89.3987 655.26C89.2853 655.033 89.2287 654.743 89.2287 654.39V651.7H88.4787V651H89.2287ZM99.087 652.01L99.007 652.02V648.8H99.757V656H99.067L99.017 655.07C98.8637 655.35 98.6337 655.587 98.327 655.78C98.027 655.973 97.6537 656.07 97.207 656.07C96.747 656.07 96.3437 655.967 95.997 655.76C95.657 655.547 95.3904 655.247 95.197 654.86C95.0104 654.473 94.917 654.02 94.917 653.5C94.917 652.98 95.0104 652.53 95.197 652.15C95.3904 651.763 95.657 651.463 95.997 651.25C96.3437 651.037 96.747 650.93 97.207 650.93C97.6804 650.93 98.0737 651.033 98.387 651.24C98.7004 651.447 98.9337 651.703 99.087 652.01ZM95.727 653.5C95.727 654.073 95.8737 654.53 96.167 654.87C96.4604 655.203 96.8604 655.37 97.367 655.37C97.6804 655.37 97.9604 655.297 98.207 655.15C98.4537 655.003 98.647 654.79 98.787 654.51C98.9337 654.23 99.007 653.893 99.007 653.5C99.007 653.107 98.9337 652.773 98.787 652.5C98.647 652.22 98.4537 652.007 98.207 651.86C97.9604 651.707 97.6804 651.63 97.367 651.63C96.867 651.63 96.467 651.8 96.167 652.14C95.8737 652.473 95.727 652.927 95.727 653.5ZM103.391 656.07C102.925 656.07 102.508 655.957 102.141 655.73C101.781 655.503 101.498 655.193 101.291 654.8C101.085 654.407 100.981 653.957 100.981 653.45C100.981 652.963 101.085 652.53 101.291 652.15C101.498 651.77 101.781 651.473 102.141 651.26C102.501 651.04 102.911 650.93 103.371 650.93C103.825 650.93 104.228 651.03 104.581 651.23C104.941 651.43 105.221 651.707 105.421 652.06C105.621 652.413 105.715 652.817 105.701 653.27C105.701 653.343 105.698 653.42 105.691 653.5C105.685 653.58 105.678 653.667 105.671 653.76H101.801C101.815 654.073 101.891 654.35 102.031 654.59C102.171 654.83 102.355 655.02 102.581 655.16C102.815 655.293 103.078 655.36 103.371 655.36C103.758 655.36 104.085 655.287 104.351 655.14C104.625 654.993 104.821 654.783 104.941 654.51L105.591 654.77C105.391 655.19 105.101 655.513 104.721 655.74C104.341 655.96 103.898 656.07 103.391 656.07ZM104.881 653.11C104.888 652.823 104.825 652.57 104.691 652.35C104.565 652.13 104.385 651.957 104.151 651.83C103.918 651.703 103.648 651.64 103.341 651.64C103.075 651.64 102.831 651.703 102.611 651.83C102.391 651.957 102.208 652.133 102.061 652.36C101.921 652.58 101.838 652.83 101.811 653.11H104.881ZM107.346 654.47C107.386 654.67 107.459 654.837 107.566 654.97C107.673 655.097 107.809 655.193 107.976 655.26C108.149 655.327 108.349 655.36 108.576 655.36C108.929 655.36 109.196 655.293 109.376 655.16C109.563 655.02 109.656 654.847 109.656 654.64C109.656 654.467 109.599 654.327 109.486 654.22C109.379 654.113 109.236 654.027 109.056 653.96C108.876 653.887 108.676 653.823 108.456 653.77C108.283 653.73 108.096 653.683 107.896 653.63C107.696 653.57 107.506 653.49 107.326 653.39C107.146 653.29 106.999 653.16 106.886 653C106.773 652.84 106.716 652.63 106.716 652.37C106.716 652.083 106.793 651.833 106.946 651.62C107.106 651.4 107.323 651.23 107.596 651.11C107.876 650.99 108.196 650.93 108.556 650.93C108.969 650.93 109.336 651.02 109.656 651.2C109.983 651.38 110.209 651.66 110.336 652.04L109.636 652.28C109.589 652.107 109.503 651.973 109.376 651.88C109.256 651.787 109.119 651.723 108.966 651.69C108.819 651.657 108.673 651.64 108.526 651.64C108.226 651.64 107.983 651.7 107.796 651.82C107.616 651.933 107.526 652.107 107.526 652.34C107.526 652.467 107.556 652.573 107.616 652.66C107.676 652.74 107.759 652.807 107.866 652.86C107.973 652.913 108.099 652.96 108.246 653C108.393 653.033 108.553 653.073 108.726 653.12C108.919 653.167 109.116 653.227 109.316 653.3C109.516 653.367 109.703 653.457 109.876 653.57C110.049 653.677 110.189 653.817 110.296 653.99C110.409 654.157 110.466 654.367 110.466 654.62C110.466 654.913 110.386 655.17 110.226 655.39C110.066 655.603 109.843 655.77 109.556 655.89C109.276 656.01 108.949 656.07 108.576 656.07C108.063 656.07 107.636 655.957 107.296 655.73C106.963 655.497 106.739 655.157 106.626 654.71L107.346 654.47ZM111.832 651H112.572V656H111.832V651ZM112.212 650C112.059 650 111.932 649.95 111.832 649.85C111.732 649.75 111.682 649.627 111.682 649.48C111.682 649.327 111.732 649.2 111.832 649.1C111.932 649 112.059 648.95 112.212 648.95C112.352 648.95 112.472 649 112.572 649.1C112.679 649.2 112.732 649.327 112.732 649.48C112.732 649.627 112.679 649.75 112.572 649.85C112.472 649.95 112.352 650 112.212 650ZM118.1 651H118.79V655.08C118.79 655.693 118.654 656.217 118.38 656.65C118.107 657.09 117.71 657.423 117.19 657.65C116.67 657.883 116.037 658 115.29 658L115.17 657.31C116.11 657.297 116.824 657.1 117.31 656.72C117.797 656.347 118.04 655.8 118.04 655.08V654.97L118.12 654.99C117.967 655.283 117.737 655.537 117.43 655.75C117.124 655.957 116.727 656.063 116.24 656.07C115.78 656.07 115.377 655.967 115.03 655.76C114.69 655.547 114.424 655.247 114.23 654.86C114.044 654.473 113.95 654.02 113.95 653.5C113.95 652.98 114.044 652.53 114.23 652.15C114.424 651.763 114.69 651.463 115.03 651.25C115.377 651.037 115.78 650.93 116.24 650.93C116.54 650.93 116.807 650.977 117.04 651.07C117.274 651.157 117.474 651.277 117.64 651.43C117.807 651.577 117.944 651.743 118.05 651.93L118.1 651ZM114.76 653.5C114.76 654.073 114.907 654.53 115.2 654.87C115.5 655.203 115.904 655.37 116.41 655.37C116.717 655.37 116.994 655.297 117.24 655.15C117.487 655.003 117.68 654.79 117.82 654.51C117.967 654.23 118.04 653.893 118.04 653.5C118.04 653.107 117.967 652.773 117.82 652.5C117.68 652.22 117.487 652.007 117.24 651.86C116.994 651.707 116.717 651.63 116.41 651.63C115.91 651.63 115.51 651.8 115.21 652.14C114.91 652.48 114.76 652.933 114.76 653.5ZM120.325 651H121.015L121.055 651.71C121.215 651.463 121.425 651.273 121.685 651.14C121.945 651 122.248 650.93 122.595 650.93C122.975 650.93 123.308 651.013 123.595 651.18C123.881 651.34 124.105 651.583 124.265 651.91C124.425 652.23 124.505 652.633 124.505 653.12V656H123.755V653.21C123.755 652.69 123.641 652.297 123.415 652.03C123.195 651.757 122.875 651.62 122.455 651.62C122.021 651.62 121.681 651.763 121.435 652.05C121.195 652.337 121.075 652.76 121.075 653.32V656H120.325V651Z" fill="white"/>
<rect x="138" y="638" width="88" height="28" rx="14" fill="#0B5238"/>
<path d="M149.13 656H148.25L146.28 649H147.13L148.69 655.03L150.41 649H151.3L153.01 655.02L154.58 649H155.42L153.45 656H152.57L150.85 650.2L149.13 656ZM158.274 656.07C157.808 656.07 157.391 655.957 157.024 655.73C156.664 655.503 156.381 655.193 156.174 654.8C155.968 654.407 155.864 653.957 155.864 653.45C155.864 652.963 155.968 652.53 156.174 652.15C156.381 651.77 156.664 651.473 157.024 651.26C157.384 651.04 157.794 650.93 158.254 650.93C158.708 650.93 159.111 651.03 159.464 651.23C159.824 651.43 160.104 651.707 160.304 652.06C160.504 652.413 160.598 652.817 160.584 653.27C160.584 653.343 160.581 653.42 160.574 653.5C160.568 653.58 160.561 653.667 160.554 653.76H156.684C156.698 654.073 156.774 654.35 156.914 654.59C157.054 654.83 157.238 655.02 157.464 655.16C157.698 655.293 157.961 655.36 158.254 655.36C158.641 655.36 158.968 655.287 159.234 655.14C159.508 654.993 159.704 654.783 159.824 654.51L160.474 654.77C160.274 655.19 159.984 655.513 159.604 655.74C159.224 655.96 158.781 656.07 158.274 656.07ZM159.764 653.11C159.771 652.823 159.708 652.57 159.574 652.35C159.448 652.13 159.268 651.957 159.034 651.83C158.801 651.703 158.531 651.64 158.224 651.64C157.958 651.64 157.714 651.703 157.494 651.83C157.274 651.957 157.091 652.133 156.944 652.36C156.804 652.58 156.721 652.83 156.694 653.11H159.764ZM162.489 652.01C162.635 651.703 162.865 651.447 163.179 651.24C163.492 651.033 163.889 650.93 164.369 650.93C164.829 650.93 165.229 651.037 165.569 651.25C165.915 651.463 166.182 651.763 166.369 652.15C166.562 652.53 166.659 652.98 166.659 653.5C166.659 654.02 166.562 654.473 166.369 654.86C166.175 655.247 165.905 655.547 165.559 655.76C165.219 655.967 164.822 656.07 164.369 656.07C163.915 656.07 163.539 655.973 163.239 655.78C162.939 655.587 162.712 655.35 162.559 655.07L162.509 656H161.819V648.8H162.569V652.02L162.489 652.01ZM165.849 653.5C165.849 652.927 165.699 652.473 165.399 652.14C165.105 651.8 164.709 651.63 164.209 651.63C163.895 651.63 163.612 651.707 163.359 651.86C163.112 652.007 162.919 652.22 162.779 652.5C162.639 652.773 162.569 653.107 162.569 653.5C162.569 653.893 162.639 654.23 162.779 654.51C162.919 654.79 163.112 655.003 163.359 655.15C163.612 655.297 163.895 655.37 164.209 655.37C164.709 655.37 165.105 655.203 165.399 654.87C165.699 654.53 165.849 654.073 165.849 653.5ZM168.293 654.47C168.333 654.67 168.407 654.837 168.513 654.97C168.62 655.097 168.757 655.193 168.923 655.26C169.097 655.327 169.297 655.36 169.523 655.36C169.877 655.36 170.143 655.293 170.323 655.16C170.51 655.02 170.603 654.847 170.603 654.64C170.603 654.467 170.547 654.327 170.433 654.22C170.327 654.113 170.183 654.027 170.003 653.96C169.823 653.887 169.623 653.823 169.403 653.77C169.23 653.73 169.043 653.683 168.843 653.63C168.643 653.57 168.453 653.49 168.273 653.39C168.093 653.29 167.947 653.16 167.833 653C167.72 652.84 167.663 652.63 167.663 652.37C167.663 652.083 167.74 651.833 167.893 651.62C168.053 651.4 168.27 651.23 168.543 651.11C168.823 650.99 169.143 650.93 169.503 650.93C169.917 650.93 170.283 651.02 170.603 651.2C170.93 651.38 171.157 651.66 171.283 652.04L170.583 652.28C170.537 652.107 170.45 651.973 170.323 651.88C170.203 651.787 170.067 651.723 169.913 651.69C169.767 651.657 169.62 651.64 169.473 651.64C169.173 651.64 168.93 651.7 168.743 651.82C168.563 651.933 168.473 652.107 168.473 652.34C168.473 652.467 168.503 652.573 168.563 652.66C168.623 652.74 168.707 652.807 168.813 652.86C168.92 652.913 169.047 652.96 169.193 653C169.34 653.033 169.5 653.073 169.673 653.12C169.867 653.167 170.063 653.227 170.263 653.3C170.463 653.367 170.65 653.457 170.823 653.57C170.997 653.677 171.137 653.817 171.243 653.99C171.357 654.157 171.413 654.367 171.413 654.62C171.413 654.913 171.333 655.17 171.173 655.39C171.013 655.603 170.79 655.77 170.503 655.89C170.223 656.01 169.897 656.07 169.523 656.07C169.01 656.07 168.583 655.957 168.243 655.73C167.91 655.497 167.687 655.157 167.573 654.71L168.293 654.47ZM172.779 651H173.519V656H172.779V651ZM173.159 650C173.006 650 172.879 649.95 172.779 649.85C172.679 649.75 172.629 649.627 172.629 649.48C172.629 649.327 172.679 649.2 172.779 649.1C172.879 649 173.006 648.95 173.159 648.95C173.299 648.95 173.419 649 173.519 649.1C173.626 649.2 173.679 649.327 173.679 649.48C173.679 649.627 173.626 649.75 173.519 649.85C173.419 649.95 173.299 650 173.159 650ZM175.528 651V649.6H176.278V651H177.608V651.7H176.278V654.39C176.278 654.697 176.341 654.92 176.468 655.06C176.601 655.2 176.768 655.283 176.968 655.31C177.174 655.337 177.388 655.337 177.608 655.31V655.96C177.348 656.02 177.091 656.037 176.838 656.01C176.591 655.983 176.368 655.91 176.168 655.79C175.974 655.663 175.818 655.487 175.698 655.26C175.584 655.033 175.528 654.743 175.528 654.39V651.7H174.778V651H175.528ZM180.823 656.07C180.356 656.07 179.94 655.957 179.573 655.73C179.213 655.503 178.93 655.193 178.723 654.8C178.516 654.407 178.413 653.957 178.413 653.45C178.413 652.963 178.516 652.53 178.723 652.15C178.93 651.77 179.213 651.473 179.573 651.26C179.933 651.04 180.343 650.93 180.803 650.93C181.256 650.93 181.66 651.03 182.013 651.23C182.373 651.43 182.653 651.707 182.853 652.06C183.053 652.413 183.146 652.817 183.133 653.27C183.133 653.343 183.13 653.42 183.123 653.5C183.116 653.58 183.11 653.667 183.103 653.76H179.233C179.246 654.073 179.323 654.35 179.463 654.59C179.603 654.83 179.786 655.02 180.013 655.16C180.246 655.293 180.51 655.36 180.803 655.36C181.19 655.36 181.516 655.287 181.783 655.14C182.056 654.993 182.253 654.783 182.373 654.51L183.023 654.77C182.823 655.19 182.533 655.513 182.153 655.74C181.773 655.96 181.33 656.07 180.823 656.07ZM182.313 653.11C182.32 652.823 182.256 652.57 182.123 652.35C181.996 652.13 181.816 651.957 181.583 651.83C181.35 651.703 181.08 651.64 180.773 651.64C180.506 651.64 180.263 651.703 180.043 651.83C179.823 651.957 179.64 652.133 179.493 652.36C179.353 652.58 179.27 652.83 179.243 653.11H182.313ZM191.03 652.01L190.95 652.02V648.8H191.7V656H191.01L190.96 655.07C190.807 655.35 190.577 655.587 190.27 655.78C189.97 655.973 189.597 656.07 189.15 656.07C188.69 656.07 188.287 655.967 187.94 655.76C187.6 655.547 187.334 655.247 187.14 654.86C186.954 654.473 186.86 654.02 186.86 653.5C186.86 652.98 186.954 652.53 187.14 652.15C187.334 651.763 187.6 651.463 187.94 651.25C188.287 651.037 188.69 650.93 189.15 650.93C189.624 650.93 190.017 651.033 190.33 651.24C190.644 651.447 190.877 651.703 191.03 652.01ZM187.67 653.5C187.67 654.073 187.817 654.53 188.11 654.87C188.404 655.203 188.804 655.37 189.31 655.37C189.624 655.37 189.904 655.297 190.15 655.15C190.397 655.003 190.59 654.79 190.73 654.51C190.877 654.23 190.95 653.893 190.95 653.5C190.95 653.107 190.877 652.773 190.73 652.5C190.59 652.22 190.397 652.007 190.15 651.86C189.904 651.707 189.624 651.63 189.31 651.63C188.81 651.63 188.41 651.8 188.11 652.14C187.817 652.473 187.67 652.927 187.67 653.5ZM195.335 656.07C194.868 656.07 194.452 655.957 194.085 655.73C193.725 655.503 193.442 655.193 193.235 654.8C193.028 654.407 192.925 653.957 192.925 653.45C192.925 652.963 193.028 652.53 193.235 652.15C193.442 651.77 193.725 651.473 194.085 651.26C194.445 651.04 194.855 650.93 195.315 650.93C195.768 650.93 196.172 651.03 196.525 651.23C196.885 651.43 197.165 651.707 197.365 652.06C197.565 652.413 197.658 652.817 197.645 653.27C197.645 653.343 197.642 653.42 197.635 653.5C197.628 653.58 197.622 653.667 197.615 653.76H193.745C193.758 654.073 193.835 654.35 193.975 654.59C194.115 654.83 194.298 655.02 194.525 655.16C194.758 655.293 195.022 655.36 195.315 655.36C195.702 655.36 196.028 655.287 196.295 655.14C196.568 654.993 196.765 654.783 196.885 654.51L197.535 654.77C197.335 655.19 197.045 655.513 196.665 655.74C196.285 655.96 195.842 656.07 195.335 656.07ZM196.825 653.11C196.832 652.823 196.768 652.57 196.635 652.35C196.508 652.13 196.328 651.957 196.095 651.83C195.862 651.703 195.592 651.64 195.285 651.64C195.018 651.64 194.775 651.703 194.555 651.83C194.335 651.957 194.152 652.133 194.005 652.36C193.865 652.58 193.782 652.83 193.755 653.11H196.825ZM199.289 654.47C199.329 654.67 199.403 654.837 199.509 654.97C199.616 655.097 199.753 655.193 199.919 655.26C200.093 655.327 200.293 655.36 200.519 655.36C200.873 655.36 201.139 655.293 201.319 655.16C201.506 655.02 201.599 654.847 201.599 654.64C201.599 654.467 201.543 654.327 201.429 654.22C201.323 654.113 201.179 654.027 200.999 653.96C200.819 653.887 200.619 653.823 200.399 653.77C200.226 653.73 200.039 653.683 199.839 653.63C199.639 653.57 199.449 653.49 199.269 653.39C199.089 653.29 198.943 653.16 198.829 653C198.716 652.84 198.659 652.63 198.659 652.37C198.659 652.083 198.736 651.833 198.889 651.62C199.049 651.4 199.266 651.23 199.539 651.11C199.819 650.99 200.139 650.93 200.499 650.93C200.913 650.93 201.279 651.02 201.599 651.2C201.926 651.38 202.153 651.66 202.279 652.04L201.579 652.28C201.533 652.107 201.446 651.973 201.319 651.88C201.199 651.787 201.063 651.723 200.909 651.69C200.763 651.657 200.616 651.64 200.469 651.64C200.169 651.64 199.926 651.7 199.739 651.82C199.559 651.933 199.469 652.107 199.469 652.34C199.469 652.467 199.499 652.573 199.559 652.66C199.619 652.74 199.703 652.807 199.809 652.86C199.916 652.913 200.043 652.96 200.189 653C200.336 653.033 200.496 653.073 200.669 653.12C200.863 653.167 201.059 653.227 201.259 653.3C201.459 653.367 201.646 653.457 201.819 653.57C201.993 653.677 202.133 653.817 202.239 653.99C202.353 654.157 202.409 654.367 202.409 654.62C202.409 654.913 202.329 655.17 202.169 655.39C202.009 655.603 201.786 655.77 201.499 655.89C201.219 656.01 200.893 656.07 200.519 656.07C200.006 656.07 199.579 655.957 199.239 655.73C198.906 655.497 198.683 655.157 198.569 654.71L199.289 654.47ZM203.775 651H204.515V656H203.775V651ZM204.155 650C204.002 650 203.875 649.95 203.775 649.85C203.675 649.75 203.625 649.627 203.625 649.48C203.625 649.327 203.675 649.2 203.775 649.1C203.875 649 204.002 648.95 204.155 648.95C204.295 648.95 204.415 649 204.515 649.1C204.622 649.2 204.675 649.327 204.675 649.48C204.675 649.627 204.622 649.75 204.515 649.85C204.415 649.95 204.295 650 204.155 650ZM210.044 651H210.734V655.08C210.734 655.693 210.597 656.217 210.324 656.65C210.05 657.09 209.654 657.423 209.134 657.65C208.614 657.883 207.98 658 207.234 658L207.114 657.31C208.054 657.297 208.767 657.1 209.254 656.72C209.74 656.347 209.984 655.8 209.984 655.08V654.97L210.064 654.99C209.91 655.283 209.68 655.537 209.374 655.75C209.067 655.957 208.67 656.063 208.184 656.07C207.724 656.07 207.32 655.967 206.974 655.76C206.634 655.547 206.367 655.247 206.174 654.86C205.987 654.473 205.894 654.02 205.894 653.5C205.894 652.98 205.987 652.53 206.174 652.15C206.367 651.763 206.634 651.463 206.974 651.25C207.32 651.037 207.724 650.93 208.184 650.93C208.484 650.93 208.75 650.977 208.984 651.07C209.217 651.157 209.417 651.277 209.584 651.43C209.75 651.577 209.887 651.743 209.994 651.93L210.044 651ZM206.704 653.5C206.704 654.073 206.85 654.53 207.144 654.87C207.444 655.203 207.847 655.37 208.354 655.37C208.66 655.37 208.937 655.297 209.184 655.15C209.43 655.003 209.624 654.79 209.764 654.51C209.91 654.23 209.984 653.893 209.984 653.5C209.984 653.107 209.91 652.773 209.764 652.5C209.624 652.22 209.43 652.007 209.184 651.86C208.937 651.707 208.66 651.63 208.354 651.63C207.854 651.63 207.454 651.8 207.154 652.14C206.854 652.48 206.704 652.933 206.704 653.5ZM212.268 651H212.958L212.998 651.71C213.158 651.463 213.368 651.273 213.628 651.14C213.888 651 214.191 650.93 214.538 650.93C214.918 650.93 215.251 651.013 215.538 651.18C215.825 651.34 216.048 651.583 216.208 651.91C216.368 652.23 216.448 652.633 216.448 653.12V656H215.698V653.21C215.698 652.69 215.585 652.297 215.358 652.03C215.138 651.757 214.818 651.62 214.398 651.62C213.965 651.62 213.625 651.763 213.378 652.05C213.138 652.337 213.018 652.76 213.018 653.32V656H212.268V651Z" fill="white"/>
<rect x="23" y="670" width="68" height="28" rx="14" fill="#0B5238"/>
<path d="M34.54 681.7H34.21L31.9 688H31.09L33.65 681H35.09L37.64 688H36.83L34.54 681.7ZM32.34 685.46H36.42V686.16H32.34V685.46ZM38.4888 683H39.1788L39.2188 683.71C39.3788 683.463 39.5888 683.273 39.8488 683.14C40.1088 683 40.4121 682.93 40.7588 682.93C41.1388 682.93 41.4721 683.013 41.7588 683.18C42.0454 683.34 42.2688 683.583 42.4288 683.91C42.5888 684.23 42.6688 684.633 42.6688 685.12V688H41.9188V685.21C41.9188 684.69 41.8054 684.297 41.5788 684.03C41.3588 683.757 41.0388 683.62 40.6188 683.62C40.1854 683.62 39.8454 683.763 39.5988 684.05C39.3588 684.337 39.2388 684.76 39.2388 685.32V688H38.4888V683ZM44.2735 683H45.0135V688H44.2735V683ZM44.6535 682C44.5002 682 44.3735 681.95 44.2735 681.85C44.1735 681.75 44.1235 681.627 44.1235 681.48C44.1235 681.327 44.1735 681.2 44.2735 681.1C44.3735 681 44.5002 680.95 44.6535 680.95C44.7935 680.95 44.9135 681 45.0135 681.1C45.1202 681.2 45.1735 681.327 45.1735 681.48C45.1735 681.627 45.1202 681.75 45.0135 681.85C44.9135 681.95 44.7935 682 44.6535 682ZM46.7016 683H47.3916L47.4416 683.72C47.5883 683.48 47.785 683.29 48.0316 683.15C48.285 683.003 48.585 682.93 48.9316 682.93C49.285 682.93 49.605 683.017 49.8916 683.19C50.185 683.357 50.4116 683.607 50.5716 683.94C50.725 683.6 50.9583 683.347 51.2716 683.18C51.585 683.013 51.9316 682.93 52.3116 682.93C52.685 682.93 53.015 683.013 53.3016 683.18C53.5883 683.34 53.8116 683.583 53.9716 683.91C54.1316 684.23 54.2116 684.633 54.2116 685.12V688H53.4616V685.21C53.4616 684.69 53.3483 684.297 53.1216 684.03C52.9016 683.757 52.585 683.62 52.1716 683.62C51.7516 683.62 51.4183 683.767 51.1716 684.06C50.925 684.347 50.8016 684.773 50.8016 685.34V688H50.0516V685.21C50.0516 684.69 49.945 684.297 49.7316 684.03C49.5183 683.757 49.205 683.62 48.7916 683.62C48.3716 683.62 48.0416 683.767 47.8016 684.06C47.5683 684.347 47.4516 684.773 47.4516 685.34V688H46.7016V683ZM58.7965 688L58.7365 687.1C58.5965 687.407 58.3898 687.647 58.1165 687.82C57.8432 687.987 57.4965 688.07 57.0765 688.07C56.7165 688.07 56.4098 688.013 56.1565 687.9C55.9032 687.787 55.7065 687.627 55.5665 687.42C55.4332 687.207 55.3665 686.957 55.3665 686.67C55.3665 686.25 55.5232 685.907 55.8365 685.64C56.1498 685.367 56.6032 685.2 57.1965 685.14L58.7365 684.97V684.57C58.7365 684.29 58.6332 684.067 58.4265 683.9C58.2198 683.727 57.9398 683.64 57.5865 683.64C57.2398 683.64 56.9498 683.72 56.7165 683.88C56.4898 684.04 56.3332 684.27 56.2465 684.57L55.5665 684.33C55.6998 683.89 55.9432 683.547 56.2965 683.3C56.6565 683.053 57.0932 682.93 57.6065 682.93C58.1998 682.93 58.6598 683.083 58.9865 683.39C59.3198 683.69 59.4865 684.1 59.4865 684.62V688H58.7965ZM58.7365 685.61L57.1865 685.79C56.8532 685.83 56.5998 685.923 56.4265 686.07C56.2532 686.21 56.1665 686.397 56.1665 686.63C56.1665 686.863 56.2498 687.05 56.4165 687.19C56.5898 687.33 56.8365 687.4 57.1565 687.4C57.5232 687.4 57.8232 687.327 58.0565 687.18C58.2898 687.033 58.4598 686.837 58.5665 686.59C58.6798 686.337 58.7365 686.063 58.7365 685.77V685.61ZM61.2697 683V681.6H62.0197V683H63.3497V683.7H62.0197V686.39C62.0197 686.697 62.083 686.92 62.2097 687.06C62.343 687.2 62.5097 687.283 62.7097 687.31C62.9164 687.337 63.1297 687.337 63.3497 687.31V687.96C63.0897 688.02 62.833 688.037 62.5797 688.01C62.333 687.983 62.1097 687.91 61.9097 687.79C61.7164 687.663 61.5597 687.487 61.4397 687.26C61.3264 687.033 61.2697 686.743 61.2697 686.39V683.7H60.5197V683H61.2697ZM64.6153 683H65.3553V688H64.6153V683ZM64.9953 682C64.842 682 64.7153 681.95 64.6153 681.85C64.5153 681.75 64.4653 681.627 64.4653 681.48C64.4653 681.327 64.5153 681.2 64.6153 681.1C64.7153 681 64.842 680.95 64.9953 680.95C65.1353 680.95 65.2553 681 65.3553 681.1C65.462 681.2 65.5153 681.327 65.5153 681.48C65.5153 681.627 65.462 681.75 65.3553 681.85C65.2553 681.95 65.1353 682 64.9953 682ZM69.2034 688.07C68.7301 688.07 68.3068 687.967 67.9334 687.76C67.5601 687.553 67.2668 687.26 67.0534 686.88C66.8401 686.493 66.7334 686.037 66.7334 685.51C66.7334 684.977 66.8401 684.517 67.0534 684.13C67.2734 683.743 67.5701 683.447 67.9434 683.24C68.3234 683.033 68.7501 682.93 69.2234 682.93C69.6968 682.93 70.1201 683.033 70.4934 683.24C70.8734 683.447 71.1701 683.743 71.3834 684.13C71.6034 684.51 71.7134 684.963 71.7134 685.49C71.7134 686.023 71.6034 686.483 71.3834 686.87C71.1634 687.257 70.8634 687.553 70.4834 687.76C70.1034 687.967 69.6768 688.07 69.2034 688.07ZM69.1934 687.36C69.4868 687.36 69.7634 687.297 70.0234 687.17C70.2834 687.037 70.4934 686.833 70.6534 686.56C70.8201 686.28 70.9034 685.927 70.9034 685.5C70.9034 685.067 70.8234 684.713 70.6634 684.44C70.5034 684.167 70.2934 683.967 70.0334 683.84C69.7801 683.707 69.5068 683.64 69.2134 683.64C68.9201 683.64 68.6468 683.707 68.3934 683.84C68.1401 683.967 67.9334 684.17 67.7734 684.45C67.6201 684.723 67.5434 685.073 67.5434 685.5C67.5434 685.933 67.6201 686.287 67.7734 686.56C67.9268 686.833 68.1268 687.037 68.3734 687.17C68.6268 687.297 68.9001 687.36 69.1934 687.36ZM72.9419 683H73.6319L73.6719 683.71C73.8319 683.463 74.0419 683.273 74.3019 683.14C74.5619 683 74.8652 682.93 75.2119 682.93C75.5919 682.93 75.9252 683.013 76.2119 683.18C76.4985 683.34 76.7219 683.583 76.8819 683.91C77.0419 684.23 77.1219 684.633 77.1219 685.12V688H76.3719V685.21C76.3719 684.69 76.2585 684.297 76.0319 684.03C75.8119 683.757 75.4919 683.62 75.0719 683.62C74.6385 683.62 74.2985 683.763 74.0519 684.05C73.8119 684.337 73.6919 684.76 73.6919 685.32V688H72.9419V683ZM78.9866 686.47C79.0266 686.67 79.1 686.837 79.2066 686.97C79.3133 687.097 79.45 687.193 79.6166 687.26C79.79 687.327 79.99 687.36 80.2166 687.36C80.57 687.36 80.8366 687.293 81.0166 687.16C81.2033 687.02 81.2966 686.847 81.2966 686.64C81.2966 686.467 81.24 686.327 81.1266 686.22C81.02 686.113 80.8766 686.027 80.6966 685.96C80.5166 685.887 80.3166 685.823 80.0966 685.77C79.9233 685.73 79.7366 685.683 79.5366 685.63C79.3366 685.57 79.1466 685.49 78.9666 685.39C78.7866 685.29 78.64 685.16 78.5266 685C78.4133 684.84 78.3566 684.63 78.3566 684.37C78.3566 684.083 78.4333 683.833 78.5866 683.62C78.7466 683.4 78.9633 683.23 79.2366 683.11C79.5166 682.99 79.8366 682.93 80.1966 682.93C80.61 682.93 80.9766 683.02 81.2966 683.2C81.6233 683.38 81.85 683.66 81.9766 684.04L81.2766 684.28C81.23 684.107 81.1433 683.973 81.0166 683.88C80.8966 683.787 80.76 683.723 80.6066 683.69C80.46 683.657 80.3133 683.64 80.1666 683.64C79.8666 683.64 79.6233 683.7 79.4366 683.82C79.2566 683.933 79.1666 684.107 79.1666 684.34C79.1666 684.467 79.1966 684.573 79.2566 684.66C79.3166 684.74 79.4 684.807 79.5066 684.86C79.6133 684.913 79.74 684.96 79.8866 685C80.0333 685.033 80.1933 685.073 80.3666 685.12C80.56 685.167 80.7566 685.227 80.9566 685.3C81.1566 685.367 81.3433 685.457 81.5166 685.57C81.69 685.677 81.83 685.817 81.9366 685.99C82.05 686.157 82.1066 686.367 82.1066 686.62C82.1066 686.913 82.0266 687.17 81.8666 687.39C81.7066 687.603 81.4833 687.77 81.1966 687.89C80.9166 688.01 80.59 688.07 80.2166 688.07C79.7033 688.07 79.2766 687.957 78.9366 687.73C78.6033 687.497 78.38 687.157 78.2666 686.71L78.9866 686.47Z" fill="white"/>
<g clip-path="url(#clip0_616_6229)">
<path d="M164.999 -61C27.1499 -61 -85 51.1499 -85 189.001C-85 326.85 27.1499 439 164.999 439C302.85 439 415 326.85 415 189.001C415 51.1499 302.85 -61 164.999 -61ZM164.999 416.255C39.6902 416.255 -62.2546 314.31 -62.2546 189.001C-62.2546 63.6919 39.6902 -38.2546 164.999 -38.2546C290.308 -38.2546 392.255 63.6919 392.255 189.001C392.255 314.31 290.308 416.255 164.999 416.255Z" fill="#3C3C3B"/>
<path d="M290.575 176.756C290.165 176.73 289.73 176.705 289.321 176.679C266.184 175.399 243.047 174.478 219.911 173.915C221.242 178.727 221.933 183.768 221.933 188.989C221.933 194.21 221.217 199.278 219.886 204.09C243.023 203.526 266.159 202.606 289.321 201.3C289.73 201.274 290.165 201.274 290.575 201.249C305.88 200.302 305.88 177.703 290.575 176.756ZM149.966 243.913C150.528 265.872 151.398 287.831 152.677 309.79C152.704 310.199 152.728 310.609 152.755 311.019C153.727 326.298 176.275 326.298 177.247 311.019C177.273 310.609 177.298 310.199 177.325 309.79C178.605 287.831 179.474 265.872 180.038 243.913C175.251 245.244 170.209 245.935 164.988 245.935C159.793 245.935 154.75 245.244 149.966 243.913ZM180.293 134.169C179.806 112.184 178.962 90.1991 177.657 68.2146C177.528 65.911 177.376 63.6334 177.247 61.3298C176.275 46.0255 153.727 46.0255 152.755 61.3298C152.601 63.6334 152.473 65.911 152.32 68.2146C151.04 90.1991 150.169 112.184 149.71 134.169C154.572 132.786 159.69 132.07 164.988 132.07C170.287 132.07 175.43 132.786 180.293 134.169ZM110.167 173.659C87.0063 174.119 63.8436 174.99 40.6817 176.321C38.3278 176.474 35.973 176.603 33.6182 176.756C18.2627 177.703 18.2627 200.302 33.6182 201.249C35.973 201.377 38.3277 201.531 40.6817 201.658C63.8436 203.015 87.0307 203.859 110.193 204.346C108.811 199.457 108.069 194.313 108.069 188.989C108.069 183.666 108.785 178.522 110.167 173.659ZM192.834 173.403C201.868 173.532 210.877 173.685 219.911 173.915C214.639 154.669 199.514 139.492 180.293 134.169C180.497 143.203 180.651 152.212 180.727 161.246C180.805 167.926 186.154 173.326 192.834 173.403ZM180.575 216.681C180.446 225.767 180.268 234.827 180.038 243.913C199.385 238.641 214.614 223.413 219.886 204.09C210.826 204.32 201.74 204.473 192.681 204.601C186.026 204.678 180.678 210.027 180.575 216.681ZM149.273 161.118C149.351 152.135 149.505 143.152 149.71 134.169C130.566 139.466 115.491 154.541 110.167 173.659C119.151 173.454 128.134 173.326 137.116 173.25C143.823 173.199 149.197 167.798 149.273 161.118ZM137.271 204.755C128.236 204.678 119.227 204.55 110.193 204.346C115.542 223.566 130.718 238.666 149.966 243.913C149.735 234.878 149.556 225.844 149.429 216.835C149.326 210.155 143.925 204.806 137.271 204.755Z" fill="#0B5238"/>
</g>
<defs>
<clipPath id="clip0_616_6229">
<rect width="297" height="297" fill="white" transform="translate(16 40)"/>
</clipPath>
</defs>
</svg>
