<svg width="328" height="708" viewBox="0 0 328 708" fill="none" xmlns="http://www.w3.org/2000/svg">
<g clip-path="url(#clip0_608_3103)">
<rect width="328" height="708" fill="#477BFF"/>
<path d="M35.76 480C38.8 480 41.4133 480.573 43.6 481.72C45.8133 482.867 47.52 484.493 48.72 486.6C49.9467 488.707 50.56 491.213 50.56 494.12C50.56 497 49.9467 499.48 48.72 501.56C47.52 503.613 45.8133 505.2 43.6 506.32C41.4133 507.44 38.8 508 35.76 508H26.16V480H35.76ZM35.76 504.64C39.28 504.64 41.9467 503.72 43.76 501.88C45.6 500.013 46.52 497.427 46.52 494.12C46.52 490.76 45.6 488.133 43.76 486.24C41.9467 484.32 39.28 483.36 35.76 483.36H30.16V504.64H35.76ZM63.7397 508.28C61.8197 508.28 60.113 507.84 58.6197 506.96C57.153 506.053 55.993 504.813 55.1397 503.24C54.313 501.667 53.8997 499.867 53.8997 497.84C53.8997 495.893 54.313 494.16 55.1397 492.64C55.9664 491.12 57.0997 489.92 58.5397 489.04C60.0064 488.16 61.6597 487.72 63.4997 487.72C65.3664 487.72 67.0197 488.133 68.4597 488.96C69.8997 489.76 71.0197 490.893 71.8197 492.36C72.6197 493.8 73.0064 495.467 72.9797 497.36C72.9797 497.68 72.9664 498.013 72.9397 498.36C72.913 498.68 72.873 499.04 72.8197 499.44H58.0197C58.0997 500.507 58.393 501.453 58.8997 502.28C59.433 503.08 60.0997 503.707 60.8997 504.16C61.7264 504.613 62.6597 504.84 63.6997 504.84C65.033 504.84 66.193 504.587 67.1797 504.08C68.1664 503.547 68.8597 502.84 69.2597 501.96L72.5397 503.12C71.7397 504.747 70.5664 506.013 69.0197 506.92C67.4997 507.827 65.7397 508.28 63.7397 508.28ZM68.8597 496.2C68.8597 495.24 68.6197 494.373 68.1397 493.6C67.6597 492.827 67.0064 492.227 66.1797 491.8C65.3797 491.347 64.473 491.12 63.4597 491.12C62.553 491.12 61.713 491.347 60.9397 491.8C60.193 492.227 59.553 492.827 59.0197 493.6C58.513 494.347 58.193 495.213 58.0597 496.2H68.8597ZM79.3681 488L85.1281 503.96L90.9281 488H94.9281L87.1281 508H83.0481L75.2881 488H79.3681ZM107.021 508.28C105.101 508.28 103.394 507.84 101.901 506.96C100.434 506.053 99.2743 504.813 98.4209 503.24C97.5943 501.667 97.1809 499.867 97.1809 497.84C97.1809 495.893 97.5943 494.16 98.4209 492.64C99.2476 491.12 100.381 489.92 101.821 489.04C103.288 488.16 104.941 487.72 106.781 487.72C108.648 487.72 110.301 488.133 111.741 488.96C113.181 489.76 114.301 490.893 115.101 492.36C115.901 493.8 116.288 495.467 116.261 497.36C116.261 497.68 116.248 498.013 116.221 498.36C116.194 498.68 116.154 499.04 116.101 499.44H101.301C101.381 500.507 101.674 501.453 102.181 502.28C102.714 503.08 103.381 503.707 104.181 504.16C105.008 504.613 105.941 504.84 106.981 504.84C108.314 504.84 109.474 504.587 110.461 504.08C111.448 503.547 112.141 502.84 112.541 501.96L115.821 503.12C115.021 504.747 113.848 506.013 112.301 506.92C110.781 507.827 109.021 508.28 107.021 508.28ZM112.141 496.2C112.141 495.24 111.901 494.373 111.421 493.6C110.941 492.827 110.288 492.227 109.461 491.8C108.661 491.347 107.754 491.12 106.741 491.12C105.834 491.12 104.994 491.347 104.221 491.8C103.474 492.227 102.834 492.827 102.301 493.6C101.794 494.347 101.474 495.213 101.341 496.2H112.141ZM120.88 479.2H124.64V508H120.88V479.2ZM139.132 508.28C137.239 508.28 135.532 507.867 134.012 507.04C132.519 506.187 131.346 505 130.492 503.48C129.639 501.933 129.212 500.12 129.212 498.04C129.212 495.933 129.652 494.107 130.532 492.56C131.412 491.013 132.612 489.827 134.132 489C135.652 488.147 137.359 487.72 139.252 487.72C141.146 487.72 142.852 488.147 144.372 489C145.919 489.827 147.132 491.013 148.012 492.56C148.892 494.08 149.332 495.88 149.332 497.96C149.332 500.067 148.879 501.893 147.972 503.44C147.092 504.987 145.879 506.187 144.332 507.04C142.786 507.867 141.052 508.28 139.132 508.28ZM139.092 504.84C140.159 504.84 141.159 504.6 142.092 504.12C143.026 503.613 143.786 502.853 144.372 501.84C144.986 500.827 145.292 499.533 145.292 497.96C145.292 496.413 144.999 495.147 144.412 494.16C143.852 493.147 143.106 492.4 142.172 491.92C141.239 491.413 140.239 491.16 139.172 491.16C138.132 491.16 137.159 491.413 136.252 491.92C135.372 492.4 134.652 493.147 134.092 494.16C133.532 495.173 133.252 496.467 133.252 498.04C133.252 499.587 133.519 500.867 134.052 501.88C134.612 502.867 135.332 503.613 136.212 504.12C137.092 504.6 138.052 504.84 139.092 504.84ZM157.287 504.6L157.687 504.48V516H153.927V488H157.367L157.647 491C158.287 490.093 159.167 489.32 160.287 488.68C161.434 488.04 162.82 487.72 164.447 487.72C166.207 487.72 167.767 488.147 169.127 489C170.487 489.853 171.554 491.053 172.327 492.6C173.127 494.12 173.527 495.92 173.527 498C173.527 500.053 173.14 501.853 172.367 503.4C171.62 504.947 170.567 506.147 169.207 507C167.847 507.853 166.26 508.28 164.447 508.28C162.714 508.28 161.234 507.933 160.007 507.24C158.807 506.52 157.9 505.64 157.287 504.6ZM169.447 498C169.447 495.947 168.9 494.293 167.807 493.04C166.74 491.787 165.34 491.16 163.607 491.16C162.487 491.16 161.487 491.427 160.607 491.96C159.727 492.493 159.02 493.267 158.487 494.28C157.954 495.293 157.687 496.533 157.687 498C157.687 499.44 157.954 500.667 158.487 501.68C159.02 502.693 159.727 503.48 160.607 504.04C161.487 504.573 162.487 504.84 163.607 504.84C165.34 504.84 166.74 504.213 167.807 502.96C168.9 501.707 169.447 500.053 169.447 498ZM178.068 488H181.508L181.748 490.32C182.388 489.52 183.188 488.893 184.148 488.44C185.108 487.96 186.188 487.72 187.388 487.72C188.748 487.72 189.974 488.027 191.068 488.64C192.188 489.227 193.068 490.107 193.708 491.28C194.374 490.107 195.321 489.227 196.548 488.64C197.774 488.027 199.121 487.72 200.588 487.72C202.108 487.72 203.441 488.053 204.588 488.72C205.761 489.36 206.668 490.32 207.308 491.6C207.948 492.88 208.268 494.48 208.268 496.4V508H204.468V496.88C204.468 495.013 204.068 493.6 203.268 492.64C202.468 491.653 201.321 491.16 199.828 491.16C198.308 491.16 197.108 491.667 196.228 492.68C195.348 493.693 194.908 495.173 194.908 497.12V508H191.108V496.88C191.108 495.013 190.734 493.6 189.988 492.64C189.241 491.653 188.121 491.16 186.628 491.16C185.108 491.16 183.921 491.667 183.068 492.68C182.241 493.693 181.828 495.173 181.828 497.12V508H178.068V488ZM222.333 508.28C220.413 508.28 218.707 507.84 217.213 506.96C215.747 506.053 214.587 504.813 213.733 503.24C212.907 501.667 212.493 499.867 212.493 497.84C212.493 495.893 212.907 494.16 213.733 492.64C214.56 491.12 215.693 489.92 217.133 489.04C218.6 488.16 220.253 487.72 222.093 487.72C223.96 487.72 225.613 488.133 227.053 488.96C228.493 489.76 229.613 490.893 230.413 492.36C231.213 493.8 231.6 495.467 231.573 497.36C231.573 497.68 231.56 498.013 231.533 498.36C231.507 498.68 231.467 499.04 231.413 499.44H216.613C216.693 500.507 216.987 501.453 217.493 502.28C218.027 503.08 218.693 503.707 219.493 504.16C220.32 504.613 221.253 504.84 222.293 504.84C223.627 504.84 224.787 504.587 225.773 504.08C226.76 503.547 227.453 502.84 227.853 501.96L231.133 503.12C230.333 504.747 229.16 506.013 227.613 506.92C226.093 507.827 224.333 508.28 222.333 508.28ZM227.453 496.2C227.453 495.24 227.213 494.373 226.733 493.6C226.253 492.827 225.6 492.227 224.773 491.8C223.973 491.347 223.067 491.12 222.053 491.12C221.147 491.12 220.307 491.347 219.533 491.8C218.787 492.227 218.147 492.827 217.613 493.6C217.107 494.347 216.787 495.213 216.653 496.2H227.453ZM236.193 488H239.633L239.873 490.32C240.513 489.493 241.326 488.853 242.313 488.4C243.299 487.947 244.393 487.72 245.593 487.72C247.139 487.72 248.473 488.053 249.593 488.72C250.739 489.36 251.619 490.32 252.233 491.6C252.873 492.88 253.193 494.48 253.193 496.4V508H249.433V496.88C249.433 495.013 249.033 493.6 248.233 492.64C247.459 491.653 246.326 491.16 244.833 491.16C243.286 491.16 242.086 491.667 241.233 492.68C240.379 493.667 239.953 495.133 239.953 497.08V508H236.193V488ZM259.894 488V482.4H263.694V488H268.694V491.36H263.694V501.2C263.694 502.427 263.934 503.293 264.414 503.8C264.921 504.307 265.548 504.6 266.294 504.68C267.068 504.733 267.868 504.707 268.694 504.6V507.84C267.601 508.08 266.521 508.147 265.454 508.04C264.414 507.96 263.468 507.667 262.614 507.16C261.788 506.653 261.121 505.92 260.614 504.96C260.134 503.973 259.894 502.72 259.894 501.2V491.36H257.014V488H259.894ZM28.12 549.68C28.3067 550.48 28.6267 551.107 29.08 551.56C29.5333 552.013 30.0667 552.347 30.68 552.56C31.32 552.747 31.9867 552.84 32.68 552.84C33.88 552.84 34.8133 552.6 35.48 552.12C36.1467 551.64 36.48 551.04 36.48 550.32C36.48 549.707 36.2667 549.227 35.84 548.88C35.44 548.507 34.8933 548.213 34.2 548C33.5333 547.787 32.8133 547.587 32.04 547.4C31.3467 547.213 30.5867 547 29.76 546.76C28.96 546.52 28.2 546.2 27.48 545.8C26.7867 545.373 26.2133 544.84 25.76 544.2C25.3067 543.533 25.08 542.693 25.08 541.68C25.08 540.48 25.4 539.44 26.04 538.56C26.7067 537.653 27.6133 536.96 28.76 536.48C29.9333 535.973 31.2533 535.72 32.72 535.72C34.4267 535.72 35.92 536.093 37.2 536.84C38.5067 537.56 39.4533 538.653 40.04 540.12L36.64 541.24C36.4533 540.733 36.1467 540.32 35.72 540C35.2933 539.68 34.8 539.467 34.24 539.36C33.7067 539.227 33.1733 539.16 32.64 539.16C31.6267 539.16 30.7867 539.36 30.12 539.76C29.4533 540.16 29.12 540.747 29.12 541.52C29.12 541.947 29.2267 542.307 29.44 542.6C29.6533 542.867 29.9467 543.093 30.32 543.28C30.72 543.44 31.1867 543.587 31.72 543.72C32.2533 543.853 32.8267 544 33.44 544.16C34.24 544.4 35.0533 544.667 35.88 544.96C36.7067 545.227 37.4667 545.573 38.16 546C38.8533 546.427 39.4133 546.987 39.84 547.68C40.2667 548.373 40.4933 549.227 40.52 550.24C40.52 551.413 40.1867 552.453 39.52 553.36C38.88 554.267 37.96 554.987 36.76 555.52C35.5867 556.027 34.1867 556.28 32.56 556.28C30.5867 556.28 28.9067 555.84 27.52 554.96C26.1333 554.08 25.2 552.72 24.72 550.88L28.12 549.68ZM53.7788 556.28C51.8588 556.28 50.1521 555.84 48.6588 554.96C47.1921 554.053 46.0321 552.813 45.1788 551.24C44.3521 549.667 43.9388 547.867 43.9388 545.84C43.9388 543.893 44.3521 542.16 45.1788 540.64C46.0054 539.12 47.1388 537.92 48.5788 537.04C50.0454 536.16 51.6988 535.72 53.5388 535.72C55.4054 535.72 57.0588 536.133 58.4988 536.96C59.9388 537.76 61.0588 538.893 61.8588 540.36C62.6588 541.8 63.0454 543.467 63.0188 545.36C63.0188 545.68 63.0054 546.013 62.9788 546.36C62.9521 546.68 62.9121 547.04 62.8588 547.44H48.0588C48.1388 548.507 48.4321 549.453 48.9388 550.28C49.4721 551.08 50.1388 551.707 50.9388 552.16C51.7654 552.613 52.6988 552.84 53.7388 552.84C55.0721 552.84 56.2321 552.587 57.2188 552.08C58.2054 551.547 58.8988 550.84 59.2988 549.96L62.5788 551.12C61.7788 552.747 60.6054 554.013 59.0588 554.92C57.5388 555.827 55.7788 556.28 53.7788 556.28ZM58.8988 544.2C58.8988 543.24 58.6588 542.373 58.1788 541.6C57.6988 540.827 57.0454 540.227 56.2188 539.8C55.4188 539.347 54.5121 539.12 53.4988 539.12C52.5921 539.12 51.7521 539.347 50.9788 539.8C50.2321 540.227 49.5921 540.827 49.0588 541.6C48.5521 542.347 48.2321 543.213 48.0987 544.2H58.8988ZM67.6378 536H71.0778L71.3178 538.68C71.8778 537.987 72.5178 537.413 73.2378 536.96C73.9845 536.48 74.7845 536.147 75.6378 535.96C76.5178 535.773 77.4245 535.787 78.3578 536V539.56C77.4778 539.347 76.6245 539.32 75.7978 539.48C74.9711 539.64 74.2245 539.987 73.5578 540.52C72.9178 541.027 72.3978 541.707 71.9978 542.56C71.5978 543.413 71.3978 544.44 71.3978 545.64V556H67.6378V536ZM84.3291 536L90.0891 551.96L95.8891 536H99.8891L92.0891 556H88.0091L80.2491 536H84.3291ZM104.293 536H108.093V556H104.293V536ZM106.213 532.48C105.493 532.48 104.893 532.24 104.413 531.76C103.933 531.28 103.693 530.693 103.693 530C103.693 529.28 103.933 528.68 104.413 528.2C104.893 527.693 105.493 527.44 106.213 527.44C106.906 527.44 107.493 527.693 107.973 528.2C108.479 528.68 108.733 529.28 108.733 530C108.733 530.693 108.479 531.28 107.973 531.76C107.493 532.24 106.906 532.48 106.213 532.48ZM122.956 556.28C121.036 556.28 119.342 555.853 117.876 555C116.409 554.12 115.262 552.92 114.436 551.4C113.636 549.88 113.236 548.107 113.236 546.08C113.236 544.027 113.649 542.227 114.476 540.68C115.302 539.133 116.449 537.92 117.916 537.04C119.382 536.16 121.089 535.72 123.036 535.72C125.089 535.72 126.889 536.2 128.436 537.16C130.009 538.12 131.142 539.413 131.836 541.04L128.436 542.24C128.036 541.307 127.356 540.56 126.396 540C125.462 539.44 124.396 539.16 123.196 539.16C121.969 539.16 120.916 539.453 120.036 540.04C119.156 540.6 118.476 541.4 117.996 542.44C117.516 543.453 117.276 544.653 117.276 546.04C117.276 548.12 117.809 549.773 118.876 551C119.942 552.227 121.382 552.84 123.196 552.84C124.396 552.84 125.462 552.573 126.396 552.04C127.356 551.507 128.076 550.773 128.556 549.84L131.916 551.04C131.169 552.64 129.996 553.92 128.396 554.88C126.796 555.813 124.982 556.28 122.956 556.28ZM145.185 556.28C143.265 556.28 141.558 555.84 140.065 554.96C138.598 554.053 137.438 552.813 136.585 551.24C135.758 549.667 135.345 547.867 135.345 545.84C135.345 543.893 135.758 542.16 136.585 540.64C137.412 539.12 138.545 537.92 139.985 537.04C141.452 536.16 143.105 535.72 144.945 535.72C146.812 535.72 148.465 536.133 149.905 536.96C151.345 537.76 152.465 538.893 153.265 540.36C154.065 541.8 154.452 543.467 154.425 545.36C154.425 545.68 154.412 546.013 154.385 546.36C154.358 546.68 154.318 547.04 154.265 547.44H139.465C139.545 548.507 139.838 549.453 140.345 550.28C140.878 551.08 141.545 551.707 142.345 552.16C143.172 552.613 144.105 552.84 145.145 552.84C146.478 552.84 147.638 552.587 148.625 552.08C149.612 551.547 150.305 550.84 150.705 549.96L153.985 551.12C153.185 552.747 152.012 554.013 150.465 554.92C148.945 555.827 147.185 556.28 145.185 556.28ZM150.305 544.2C150.305 543.24 150.065 542.373 149.585 541.6C149.105 540.827 148.452 540.227 147.625 539.8C146.825 539.347 145.918 539.12 144.905 539.12C143.998 539.12 143.158 539.347 142.385 539.8C141.638 540.227 140.998 540.827 140.465 541.6C139.958 542.347 139.638 543.213 139.505 544.2H150.305ZM161.284 549.68C161.471 550.48 161.791 551.107 162.244 551.56C162.697 552.013 163.231 552.347 163.844 552.56C164.484 552.747 165.151 552.84 165.844 552.84C167.044 552.84 167.977 552.6 168.644 552.12C169.311 551.64 169.644 551.04 169.644 550.32C169.644 549.707 169.431 549.227 169.004 548.88C168.604 548.507 168.057 548.213 167.364 548C166.697 547.787 165.977 547.587 165.204 547.4C164.511 547.213 163.751 547 162.924 546.76C162.124 546.52 161.364 546.2 160.644 545.8C159.951 545.373 159.377 544.84 158.924 544.2C158.471 543.533 158.244 542.693 158.244 541.68C158.244 540.48 158.564 539.44 159.204 538.56C159.871 537.653 160.777 536.96 161.924 536.48C163.097 535.973 164.417 535.72 165.884 535.72C167.591 535.72 169.084 536.093 170.364 536.84C171.671 537.56 172.617 538.653 173.204 540.12L169.804 541.24C169.617 540.733 169.311 540.32 168.884 540C168.457 539.68 167.964 539.467 167.404 539.36C166.871 539.227 166.337 539.16 165.804 539.16C164.791 539.16 163.951 539.36 163.284 539.76C162.617 540.16 162.284 540.747 162.284 541.52C162.284 541.947 162.391 542.307 162.604 542.6C162.817 542.867 163.111 543.093 163.484 543.28C163.884 543.44 164.351 543.587 164.884 543.72C165.417 543.853 165.991 544 166.604 544.16C167.404 544.4 168.217 544.667 169.044 544.96C169.871 545.227 170.631 545.573 171.324 546C172.017 546.427 172.577 546.987 173.004 547.68C173.431 548.373 173.657 549.227 173.684 550.24C173.684 551.413 173.351 552.453 172.684 553.36C172.044 554.267 171.124 554.987 169.924 555.52C168.751 556.027 167.351 556.28 165.724 556.28C163.751 556.28 162.071 555.84 160.684 554.96C159.297 554.08 158.364 552.72 157.884 550.88L161.284 549.68Z" fill="#ECECEC"/>
<rect x="28" y="584" width="94" height="28" rx="14" fill="#1244C5"/>
<path d="M39.13 602H38.25L36.28 595H37.13L38.69 601.03L40.41 595H41.3L43.01 601.02L44.58 595H45.42L43.45 602H42.57L40.85 596.2L39.13 602ZM48.2743 602.07C47.8076 602.07 47.391 601.957 47.0243 601.73C46.6643 601.503 46.381 601.193 46.1743 600.8C45.9676 600.407 45.8643 599.957 45.8643 599.45C45.8643 598.963 45.9676 598.53 46.1743 598.15C46.381 597.77 46.6643 597.473 47.0243 597.26C47.3843 597.04 47.7943 596.93 48.2543 596.93C48.7076 596.93 49.111 597.03 49.4643 597.23C49.8243 597.43 50.1043 597.707 50.3043 598.06C50.5043 598.413 50.5976 598.817 50.5843 599.27C50.5843 599.343 50.581 599.42 50.5743 599.5C50.5676 599.58 50.561 599.667 50.5543 599.76H46.6843C46.6976 600.073 46.7743 600.35 46.9143 600.59C47.0543 600.83 47.2376 601.02 47.4643 601.16C47.6976 601.293 47.961 601.36 48.2543 601.36C48.641 601.36 48.9676 601.287 49.2343 601.14C49.5076 600.993 49.7043 600.783 49.8243 600.51L50.4743 600.77C50.2743 601.19 49.9843 601.513 49.6043 601.74C49.2243 601.96 48.781 602.07 48.2743 602.07ZM49.7643 599.11C49.771 598.823 49.7076 598.57 49.5743 598.35C49.4476 598.13 49.2676 597.957 49.0343 597.83C48.801 597.703 48.531 597.64 48.2243 597.64C47.9576 597.64 47.7143 597.703 47.4943 597.83C47.2743 597.957 47.091 598.133 46.9443 598.36C46.8043 598.58 46.721 598.83 46.6943 599.11H49.7643ZM52.4888 598.01C52.6355 597.703 52.8655 597.447 53.1788 597.24C53.4922 597.033 53.8888 596.93 54.3688 596.93C54.8288 596.93 55.2288 597.037 55.5688 597.25C55.9155 597.463 56.1822 597.763 56.3688 598.15C56.5622 598.53 56.6588 598.98 56.6588 599.5C56.6588 600.02 56.5622 600.473 56.3688 600.86C56.1755 601.247 55.9055 601.547 55.5588 601.76C55.2188 601.967 54.8222 602.07 54.3688 602.07C53.9155 602.07 53.5388 601.973 53.2388 601.78C52.9388 601.587 52.7122 601.35 52.5588 601.07L52.5088 602H51.8188V594.8H52.5688V598.02L52.4888 598.01ZM55.8488 599.5C55.8488 598.927 55.6988 598.473 55.3988 598.14C55.1055 597.8 54.7088 597.63 54.2088 597.63C53.8955 597.63 53.6122 597.707 53.3588 597.86C53.1122 598.007 52.9188 598.22 52.7788 598.5C52.6388 598.773 52.5688 599.107 52.5688 599.5C52.5688 599.893 52.6388 600.23 52.7788 600.51C52.9188 600.79 53.1122 601.003 53.3588 601.15C53.6122 601.297 53.8955 601.37 54.2088 601.37C54.7088 601.37 55.1055 601.203 55.3988 600.87C55.6988 600.53 55.8488 600.073 55.8488 599.5ZM58.2933 600.47C58.3333 600.67 58.4066 600.837 58.5133 600.97C58.6199 601.097 58.7566 601.193 58.9233 601.26C59.0966 601.327 59.2966 601.36 59.5233 601.36C59.8766 601.36 60.1433 601.293 60.3233 601.16C60.5099 601.02 60.6033 600.847 60.6033 600.64C60.6033 600.467 60.5466 600.327 60.4333 600.22C60.3266 600.113 60.1833 600.027 60.0033 599.96C59.8233 599.887 59.6233 599.823 59.4033 599.77C59.2299 599.73 59.0433 599.683 58.8433 599.63C58.6433 599.57 58.4533 599.49 58.2733 599.39C58.0933 599.29 57.9466 599.16 57.8333 599C57.7199 598.84 57.6633 598.63 57.6633 598.37C57.6633 598.083 57.7399 597.833 57.8933 597.62C58.0533 597.4 58.2699 597.23 58.5433 597.11C58.8233 596.99 59.1433 596.93 59.5033 596.93C59.9166 596.93 60.2833 597.02 60.6033 597.2C60.9299 597.38 61.1566 597.66 61.2833 598.04L60.5833 598.28C60.5366 598.107 60.4499 597.973 60.3233 597.88C60.2033 597.787 60.0666 597.723 59.9133 597.69C59.7666 597.657 59.6199 597.64 59.4733 597.64C59.1733 597.64 58.9299 597.7 58.7433 597.82C58.5633 597.933 58.4733 598.107 58.4733 598.34C58.4733 598.467 58.5033 598.573 58.5633 598.66C58.6233 598.74 58.7066 598.807 58.8133 598.86C58.9199 598.913 59.0466 598.96 59.1933 599C59.3399 599.033 59.4999 599.073 59.6733 599.12C59.8666 599.167 60.0633 599.227 60.2633 599.3C60.4633 599.367 60.6499 599.457 60.8233 599.57C60.9966 599.677 61.1366 599.817 61.2433 599.99C61.3566 600.157 61.4133 600.367 61.4133 600.62C61.4133 600.913 61.3333 601.17 61.1733 601.39C61.0133 601.603 60.7899 601.77 60.5033 601.89C60.2233 602.01 59.8966 602.07 59.5233 602.07C59.0099 602.07 58.5833 601.957 58.2433 601.73C57.9099 601.497 57.6866 601.157 57.5733 600.71L58.2933 600.47ZM62.7794 597H63.5194V602H62.7794V597ZM63.1594 596C63.006 596 62.8794 595.95 62.7794 595.85C62.6794 595.75 62.6294 595.627 62.6294 595.48C62.6294 595.327 62.6794 595.2 62.7794 595.1C62.8794 595 63.006 594.95 63.1594 594.95C63.2994 594.95 63.4194 595 63.5194 595.1C63.626 595.2 63.6794 595.327 63.6794 595.48C63.6794 595.627 63.626 595.75 63.5194 595.85C63.4194 595.95 63.2994 596 63.1594 596ZM65.5275 597V595.6H66.2775V597H67.6075V597.7H66.2775V600.39C66.2775 600.697 66.3408 600.92 66.4675 601.06C66.6008 601.2 66.7675 601.283 66.9675 601.31C67.1742 601.337 67.3875 601.337 67.6075 601.31V601.96C67.3475 602.02 67.0908 602.037 66.8375 602.01C66.5908 601.983 66.3675 601.91 66.1675 601.79C65.9742 601.663 65.8175 601.487 65.6975 601.26C65.5842 601.033 65.5275 600.743 65.5275 600.39V597.7H64.7775V597H65.5275ZM70.8231 602.07C70.3565 602.07 69.9398 601.957 69.5731 601.73C69.2131 601.503 68.9298 601.193 68.7231 600.8C68.5165 600.407 68.4131 599.957 68.4131 599.45C68.4131 598.963 68.5165 598.53 68.7231 598.15C68.9298 597.77 69.2131 597.473 69.5731 597.26C69.9331 597.04 70.3431 596.93 70.8031 596.93C71.2565 596.93 71.6598 597.03 72.0131 597.23C72.3731 597.43 72.6531 597.707 72.8531 598.06C73.0531 598.413 73.1465 598.817 73.1331 599.27C73.1331 599.343 73.1298 599.42 73.1231 599.5C73.1165 599.58 73.1098 599.667 73.1031 599.76H69.2331C69.2465 600.073 69.3231 600.35 69.4631 600.59C69.6031 600.83 69.7865 601.02 70.0131 601.16C70.2465 601.293 70.5098 601.36 70.8031 601.36C71.1898 601.36 71.5165 601.287 71.7831 601.14C72.0565 600.993 72.2531 600.783 72.3731 600.51L73.0231 600.77C72.8231 601.19 72.5331 601.513 72.1531 601.74C71.7731 601.96 71.3298 602.07 70.8231 602.07ZM72.3131 599.11C72.3198 598.823 72.2565 598.57 72.1231 598.35C71.9965 598.13 71.8165 597.957 71.5831 597.83C71.3498 597.703 71.0798 597.64 70.7731 597.64C70.5065 597.64 70.2631 597.703 70.0431 597.83C69.8231 597.957 69.6398 598.133 69.4931 598.36C69.3531 598.58 69.2698 598.83 69.2431 599.11H72.3131ZM77.8404 598.01C77.9871 597.703 78.2171 597.447 78.5304 597.24C78.8437 597.033 79.2404 596.93 79.7204 596.93C80.1804 596.93 80.5804 597.037 80.9204 597.25C81.2671 597.463 81.5337 597.763 81.7204 598.15C81.9137 598.53 82.0104 598.98 82.0104 599.5C82.0104 600.02 81.9137 600.473 81.7204 600.86C81.5271 601.247 81.2571 601.547 80.9104 601.76C80.5704 601.967 80.1737 602.07 79.7204 602.07C79.2671 602.07 78.8904 601.973 78.5904 601.78C78.2904 601.587 78.0637 601.35 77.9104 601.07L77.8604 602H77.1704V594.8H77.9204V598.02L77.8404 598.01ZM81.2004 599.5C81.2004 598.927 81.0504 598.473 80.7504 598.14C80.4571 597.8 80.0604 597.63 79.5604 597.63C79.2471 597.63 78.9637 597.707 78.7104 597.86C78.4637 598.007 78.2704 598.22 78.1304 598.5C77.9904 598.773 77.9204 599.107 77.9204 599.5C77.9204 599.893 77.9904 600.23 78.1304 600.51C78.2704 600.79 78.4637 601.003 78.7104 601.15C78.9637 601.297 79.2471 601.37 79.5604 601.37C80.0604 601.37 80.4571 601.203 80.7504 600.87C81.0504 600.53 81.2004 600.073 81.2004 599.5ZM87.3248 602H86.6448L86.5948 601.28C86.4415 601.533 86.2348 601.73 85.9748 601.87C85.7148 602.003 85.4115 602.07 85.0648 602.07C84.6782 602.07 84.3415 601.99 84.0548 601.83C83.7682 601.67 83.5448 601.43 83.3848 601.11C83.2315 600.79 83.1548 600.387 83.1548 599.9V597H83.8948V599.82C83.8948 600.333 84.0048 600.723 84.2248 600.99C84.4515 601.25 84.7748 601.38 85.1948 601.38C85.6215 601.38 85.9582 601.243 86.2048 600.97C86.4582 600.69 86.5848 600.27 86.5848 599.71V597H87.3248V602ZM89.0001 597H89.7401V602H89.0001V597ZM89.3801 596C89.2267 596 89.1001 595.95 89.0001 595.85C88.9001 595.75 88.8501 595.627 88.8501 595.48C88.8501 595.327 88.9001 595.2 89.0001 595.1C89.1001 595 89.2267 594.95 89.3801 594.95C89.5201 594.95 89.6401 595 89.7401 595.1C89.8467 595.2 89.9001 595.327 89.9001 595.48C89.9001 595.627 89.8467 595.75 89.7401 595.85C89.6401 595.95 89.5201 596 89.3801 596ZM91.4282 594.8H92.1782V602H91.4282V594.8ZM97.5636 598.01L97.4836 598.02V594.8H98.2336V602H97.5436L97.4936 601.07C97.3403 601.35 97.1103 601.587 96.8036 601.78C96.5036 601.973 96.1303 602.07 95.6836 602.07C95.2236 602.07 94.8203 601.967 94.4736 601.76C94.1336 601.547 93.8669 601.247 93.6736 600.86C93.4869 600.473 93.3936 600.02 93.3936 599.5C93.3936 598.98 93.4869 598.53 93.6736 598.15C93.8669 597.763 94.1336 597.463 94.4736 597.25C94.8203 597.037 95.2236 596.93 95.6836 596.93C96.1569 596.93 96.5503 597.033 96.8636 597.24C97.1769 597.447 97.4103 597.703 97.5636 598.01ZM94.2036 599.5C94.2036 600.073 94.3503 600.53 94.6436 600.87C94.9369 601.203 95.3369 601.37 95.8436 601.37C96.1569 601.37 96.4369 601.297 96.6836 601.15C96.9303 601.003 97.1236 600.79 97.2636 600.51C97.4103 600.23 97.4836 599.893 97.4836 599.5C97.4836 599.107 97.4103 598.773 97.2636 598.5C97.1236 598.22 96.9303 598.007 96.6836 597.86C96.4369 597.707 96.1569 597.63 95.8436 597.63C95.3436 597.63 94.9436 597.8 94.6436 598.14C94.3503 598.473 94.2036 598.927 94.2036 599.5ZM99.918 597H100.658V602H99.918V597ZM100.298 596C100.145 596 100.018 595.95 99.918 595.85C99.818 595.75 99.768 595.627 99.768 595.48C99.768 595.327 99.818 595.2 99.918 595.1C100.018 595 100.145 594.95 100.298 594.95C100.438 594.95 100.558 595 100.658 595.1C100.765 595.2 100.818 595.327 100.818 595.48C100.818 595.627 100.765 595.75 100.658 595.85C100.558 595.95 100.438 596 100.298 596ZM102.346 597H103.036L103.076 597.71C103.236 597.463 103.446 597.273 103.706 597.14C103.966 597 104.27 596.93 104.616 596.93C104.996 596.93 105.33 597.013 105.616 597.18C105.903 597.34 106.126 597.583 106.286 597.91C106.446 598.23 106.526 598.633 106.526 599.12V602H105.776V599.21C105.776 598.69 105.663 598.297 105.436 598.03C105.216 597.757 104.896 597.62 104.476 597.62C104.043 597.62 103.703 597.763 103.456 598.05C103.216 598.337 103.096 598.76 103.096 599.32V602H102.346V597ZM111.821 597H112.511V601.08C112.511 601.693 112.374 602.217 112.101 602.65C111.828 603.09 111.431 603.423 110.911 603.65C110.391 603.883 109.758 604 109.011 604L108.891 603.31C109.831 603.297 110.544 603.1 111.031 602.72C111.518 602.347 111.761 601.8 111.761 601.08V600.97L111.841 600.99C111.688 601.283 111.458 601.537 111.151 601.75C110.844 601.957 110.448 602.063 109.961 602.07C109.501 602.07 109.098 601.967 108.751 601.76C108.411 601.547 108.144 601.247 107.951 600.86C107.764 600.473 107.671 600.02 107.671 599.5C107.671 598.98 107.764 598.53 107.951 598.15C108.144 597.763 108.411 597.463 108.751 597.25C109.098 597.037 109.501 596.93 109.961 596.93C110.261 596.93 110.528 596.977 110.761 597.07C110.994 597.157 111.194 597.277 111.361 597.43C111.528 597.577 111.664 597.743 111.771 597.93L111.821 597ZM108.481 599.5C108.481 600.073 108.628 600.53 108.921 600.87C109.221 601.203 109.624 601.37 110.131 601.37C110.438 601.37 110.714 601.297 110.961 601.15C111.208 601.003 111.401 600.79 111.541 600.51C111.688 600.23 111.761 599.893 111.761 599.5C111.761 599.107 111.688 598.773 111.541 598.5C111.401 598.22 111.208 598.007 110.961 597.86C110.714 597.707 110.438 597.63 110.131 597.63C109.631 597.63 109.231 597.8 108.931 598.14C108.631 598.48 108.481 598.933 108.481 599.5Z" fill="#ECECEC"/>
<rect x="126" y="584" width="173" height="28" rx="14" fill="#1244C5"/>
<path d="M137.13 602H136.25L134.28 595H135.13L136.69 601.03L138.41 595H139.3L141.01 601.02L142.58 595H143.42L141.45 602H140.57L138.85 596.2L137.13 602ZM146.274 602.07C145.808 602.07 145.391 601.957 145.024 601.73C144.664 601.503 144.381 601.193 144.174 600.8C143.968 600.407 143.864 599.957 143.864 599.45C143.864 598.963 143.968 598.53 144.174 598.15C144.381 597.77 144.664 597.473 145.024 597.26C145.384 597.04 145.794 596.93 146.254 596.93C146.708 596.93 147.111 597.03 147.464 597.23C147.824 597.43 148.104 597.707 148.304 598.06C148.504 598.413 148.598 598.817 148.584 599.27C148.584 599.343 148.581 599.42 148.574 599.5C148.568 599.58 148.561 599.667 148.554 599.76H144.684C144.698 600.073 144.774 600.35 144.914 600.59C145.054 600.83 145.238 601.02 145.464 601.16C145.698 601.293 145.961 601.36 146.254 601.36C146.641 601.36 146.968 601.287 147.234 601.14C147.508 600.993 147.704 600.783 147.824 600.51L148.474 600.77C148.274 601.19 147.984 601.513 147.604 601.74C147.224 601.96 146.781 602.07 146.274 602.07ZM147.764 599.11C147.771 598.823 147.708 598.57 147.574 598.35C147.448 598.13 147.268 597.957 147.034 597.83C146.801 597.703 146.531 597.64 146.224 597.64C145.958 597.64 145.714 597.703 145.494 597.83C145.274 597.957 145.091 598.133 144.944 598.36C144.804 598.58 144.721 598.83 144.694 599.11H147.764ZM150.489 598.01C150.635 597.703 150.865 597.447 151.179 597.24C151.492 597.033 151.889 596.93 152.369 596.93C152.829 596.93 153.229 597.037 153.569 597.25C153.915 597.463 154.182 597.763 154.369 598.15C154.562 598.53 154.659 598.98 154.659 599.5C154.659 600.02 154.562 600.473 154.369 600.86C154.175 601.247 153.905 601.547 153.559 601.76C153.219 601.967 152.822 602.07 152.369 602.07C151.915 602.07 151.539 601.973 151.239 601.78C150.939 601.587 150.712 601.35 150.559 601.07L150.509 602H149.819V594.8H150.569V598.02L150.489 598.01ZM153.849 599.5C153.849 598.927 153.699 598.473 153.399 598.14C153.105 597.8 152.709 597.63 152.209 597.63C151.895 597.63 151.612 597.707 151.359 597.86C151.112 598.007 150.919 598.22 150.779 598.5C150.639 598.773 150.569 599.107 150.569 599.5C150.569 599.893 150.639 600.23 150.779 600.51C150.919 600.79 151.112 601.003 151.359 601.15C151.612 601.297 151.895 601.37 152.209 601.37C152.709 601.37 153.105 601.203 153.399 600.87C153.699 600.53 153.849 600.073 153.849 599.5ZM156.293 600.47C156.333 600.67 156.407 600.837 156.513 600.97C156.62 601.097 156.757 601.193 156.923 601.26C157.097 601.327 157.297 601.36 157.523 601.36C157.877 601.36 158.143 601.293 158.323 601.16C158.51 601.02 158.603 600.847 158.603 600.64C158.603 600.467 158.547 600.327 158.433 600.22C158.327 600.113 158.183 600.027 158.003 599.96C157.823 599.887 157.623 599.823 157.403 599.77C157.23 599.73 157.043 599.683 156.843 599.63C156.643 599.57 156.453 599.49 156.273 599.39C156.093 599.29 155.947 599.16 155.833 599C155.72 598.84 155.663 598.63 155.663 598.37C155.663 598.083 155.74 597.833 155.893 597.62C156.053 597.4 156.27 597.23 156.543 597.11C156.823 596.99 157.143 596.93 157.503 596.93C157.917 596.93 158.283 597.02 158.603 597.2C158.93 597.38 159.157 597.66 159.283 598.04L158.583 598.28C158.537 598.107 158.45 597.973 158.323 597.88C158.203 597.787 158.067 597.723 157.913 597.69C157.767 597.657 157.62 597.64 157.473 597.64C157.173 597.64 156.93 597.7 156.743 597.82C156.563 597.933 156.473 598.107 156.473 598.34C156.473 598.467 156.503 598.573 156.563 598.66C156.623 598.74 156.707 598.807 156.813 598.86C156.92 598.913 157.047 598.96 157.193 599C157.34 599.033 157.5 599.073 157.673 599.12C157.867 599.167 158.063 599.227 158.263 599.3C158.463 599.367 158.65 599.457 158.823 599.57C158.997 599.677 159.137 599.817 159.243 599.99C159.357 600.157 159.413 600.367 159.413 600.62C159.413 600.913 159.333 601.17 159.173 601.39C159.013 601.603 158.79 601.77 158.503 601.89C158.223 602.01 157.897 602.07 157.523 602.07C157.01 602.07 156.583 601.957 156.243 601.73C155.91 601.497 155.687 601.157 155.573 600.71L156.293 600.47ZM160.779 597H161.519V602H160.779V597ZM161.159 596C161.006 596 160.879 595.95 160.779 595.85C160.679 595.75 160.629 595.627 160.629 595.48C160.629 595.327 160.679 595.2 160.779 595.1C160.879 595 161.006 594.95 161.159 594.95C161.299 594.95 161.419 595 161.519 595.1C161.626 595.2 161.679 595.327 161.679 595.48C161.679 595.627 161.626 595.75 161.519 595.85C161.419 595.95 161.299 596 161.159 596ZM163.528 597V595.6H164.278V597H165.608V597.7H164.278V600.39C164.278 600.697 164.341 600.92 164.468 601.06C164.601 601.2 164.768 601.283 164.968 601.31C165.174 601.337 165.388 601.337 165.608 601.31V601.96C165.348 602.02 165.091 602.037 164.838 602.01C164.591 601.983 164.368 601.91 164.168 601.79C163.974 601.663 163.818 601.487 163.698 601.26C163.584 601.033 163.528 600.743 163.528 600.39V597.7H162.778V597H163.528ZM168.823 602.07C168.356 602.07 167.94 601.957 167.573 601.73C167.213 601.503 166.93 601.193 166.723 600.8C166.516 600.407 166.413 599.957 166.413 599.45C166.413 598.963 166.516 598.53 166.723 598.15C166.93 597.77 167.213 597.473 167.573 597.26C167.933 597.04 168.343 596.93 168.803 596.93C169.256 596.93 169.66 597.03 170.013 597.23C170.373 597.43 170.653 597.707 170.853 598.06C171.053 598.413 171.146 598.817 171.133 599.27C171.133 599.343 171.13 599.42 171.123 599.5C171.116 599.58 171.11 599.667 171.103 599.76H167.233C167.246 600.073 167.323 600.35 167.463 600.59C167.603 600.83 167.786 601.02 168.013 601.16C168.246 601.293 168.51 601.36 168.803 601.36C169.19 601.36 169.516 601.287 169.783 601.14C170.056 600.993 170.253 600.783 170.373 600.51L171.023 600.77C170.823 601.19 170.533 601.513 170.153 601.74C169.773 601.96 169.33 602.07 168.823 602.07ZM170.313 599.11C170.32 598.823 170.256 598.57 170.123 598.35C169.996 598.13 169.816 597.957 169.583 597.83C169.35 597.703 169.08 597.64 168.773 597.64C168.506 597.64 168.263 597.703 168.043 597.83C167.823 597.957 167.64 598.133 167.493 598.36C167.353 598.58 167.27 598.83 167.243 599.11H170.313ZM175.17 597H175.86L175.91 597.72C176.057 597.48 176.254 597.29 176.5 597.15C176.754 597.003 177.054 596.93 177.4 596.93C177.754 596.93 178.074 597.017 178.36 597.19C178.654 597.357 178.88 597.607 179.04 597.94C179.194 597.6 179.427 597.347 179.74 597.18C180.054 597.013 180.4 596.93 180.78 596.93C181.154 596.93 181.484 597.013 181.77 597.18C182.057 597.34 182.28 597.583 182.44 597.91C182.6 598.23 182.68 598.633 182.68 599.12V602H181.93V599.21C181.93 598.69 181.817 598.297 181.59 598.03C181.37 597.757 181.054 597.62 180.64 597.62C180.22 597.62 179.887 597.767 179.64 598.06C179.394 598.347 179.27 598.773 179.27 599.34V602H178.52V599.21C178.52 598.69 178.414 598.297 178.2 598.03C177.987 597.757 177.674 597.62 177.26 597.62C176.84 597.62 176.51 597.767 176.27 598.06C176.037 598.347 175.92 598.773 175.92 599.34V602H175.17V597ZM187.265 602L187.205 601.1C187.065 601.407 186.859 601.647 186.585 601.82C186.312 601.987 185.965 602.07 185.545 602.07C185.185 602.07 184.879 602.013 184.625 601.9C184.372 601.787 184.175 601.627 184.035 601.42C183.902 601.207 183.835 600.957 183.835 600.67C183.835 600.25 183.992 599.907 184.305 599.64C184.619 599.367 185.072 599.2 185.665 599.14L187.205 598.97V598.57C187.205 598.29 187.102 598.067 186.895 597.9C186.689 597.727 186.409 597.64 186.055 597.64C185.709 597.64 185.419 597.72 185.185 597.88C184.959 598.04 184.802 598.27 184.715 598.57L184.035 598.33C184.169 597.89 184.412 597.547 184.765 597.3C185.125 597.053 185.562 596.93 186.075 596.93C186.669 596.93 187.129 597.083 187.455 597.39C187.789 597.69 187.955 598.1 187.955 598.62V602H187.265ZM187.205 599.61L185.655 599.79C185.322 599.83 185.069 599.923 184.895 600.07C184.722 600.21 184.635 600.397 184.635 600.63C184.635 600.863 184.719 601.05 184.885 601.19C185.059 601.33 185.305 601.4 185.625 601.4C185.992 601.4 186.292 601.327 186.525 601.18C186.759 601.033 186.929 600.837 187.035 600.59C187.149 600.337 187.205 600.063 187.205 599.77V599.61ZM189.568 597H190.308V602H189.568V597ZM189.948 596C189.795 596 189.668 595.95 189.568 595.85C189.468 595.75 189.418 595.627 189.418 595.48C189.418 595.327 189.468 595.2 189.568 595.1C189.668 595 189.795 594.95 189.948 594.95C190.088 594.95 190.208 595 190.308 595.1C190.415 595.2 190.468 595.327 190.468 595.48C190.468 595.627 190.415 595.75 190.308 595.85C190.208 595.95 190.088 596 189.948 596ZM191.997 597H192.687L192.727 597.71C192.887 597.463 193.097 597.273 193.357 597.14C193.617 597 193.92 596.93 194.267 596.93C194.647 596.93 194.98 597.013 195.267 597.18C195.553 597.34 195.777 597.583 195.937 597.91C196.097 598.23 196.177 598.633 196.177 599.12V602H195.427V599.21C195.427 598.69 195.313 598.297 195.087 598.03C194.867 597.757 194.547 597.62 194.127 597.62C193.693 597.62 193.353 597.763 193.107 598.05C192.867 598.337 192.747 598.76 192.747 599.32V602H191.997V597ZM197.951 597V595.6H198.701V597H200.031V597.7H198.701V600.39C198.701 600.697 198.765 600.92 198.891 601.06C199.025 601.2 199.191 601.283 199.391 601.31C199.598 601.337 199.811 601.337 200.031 601.31V601.96C199.771 602.02 199.515 602.037 199.261 602.01C199.015 601.983 198.791 601.91 198.591 601.79C198.398 601.663 198.241 601.487 198.121 601.26C198.008 601.033 197.951 600.743 197.951 600.39V597.7H197.201V597H197.951ZM203.247 602.07C202.78 602.07 202.364 601.957 201.997 601.73C201.637 601.503 201.354 601.193 201.147 600.8C200.94 600.407 200.837 599.957 200.837 599.45C200.837 598.963 200.94 598.53 201.147 598.15C201.354 597.77 201.637 597.473 201.997 597.26C202.357 597.04 202.767 596.93 203.227 596.93C203.68 596.93 204.084 597.03 204.437 597.23C204.797 597.43 205.077 597.707 205.277 598.06C205.477 598.413 205.57 598.817 205.557 599.27C205.557 599.343 205.554 599.42 205.547 599.5C205.54 599.58 205.534 599.667 205.527 599.76H201.657C201.67 600.073 201.747 600.35 201.887 600.59C202.027 600.83 202.21 601.02 202.437 601.16C202.67 601.293 202.934 601.36 203.227 601.36C203.614 601.36 203.94 601.287 204.207 601.14C204.48 600.993 204.677 600.783 204.797 600.51L205.447 600.77C205.247 601.19 204.957 601.513 204.577 601.74C204.197 601.96 203.754 602.07 203.247 602.07ZM204.737 599.11C204.744 598.823 204.68 598.57 204.547 598.35C204.42 598.13 204.24 597.957 204.007 597.83C203.774 597.703 203.504 597.64 203.197 597.64C202.93 597.64 202.687 597.703 202.467 597.83C202.247 597.957 202.064 598.133 201.917 598.36C201.777 598.58 201.694 598.83 201.667 599.11H204.737ZM206.791 597H207.481L207.521 597.71C207.681 597.463 207.891 597.273 208.151 597.14C208.411 597 208.715 596.93 209.061 596.93C209.441 596.93 209.775 597.013 210.061 597.18C210.348 597.34 210.571 597.583 210.731 597.91C210.891 598.23 210.971 598.633 210.971 599.12V602H210.221V599.21C210.221 598.69 210.108 598.297 209.881 598.03C209.661 597.757 209.341 597.62 208.921 597.62C208.488 597.62 208.148 597.763 207.901 598.05C207.661 598.337 207.541 598.76 207.541 599.32V602H206.791V597ZM215.556 602L215.496 601.1C215.356 601.407 215.15 601.647 214.876 601.82C214.603 601.987 214.256 602.07 213.836 602.07C213.476 602.07 213.17 602.013 212.916 601.9C212.663 601.787 212.466 601.627 212.326 601.42C212.193 601.207 212.126 600.957 212.126 600.67C212.126 600.25 212.283 599.907 212.596 599.64C212.91 599.367 213.363 599.2 213.956 599.14L215.496 598.97V598.57C215.496 598.29 215.393 598.067 215.186 597.9C214.98 597.727 214.7 597.64 214.346 597.64C214 597.64 213.71 597.72 213.476 597.88C213.25 598.04 213.093 598.27 213.006 598.57L212.326 598.33C212.46 597.89 212.703 597.547 213.056 597.3C213.416 597.053 213.853 596.93 214.366 596.93C214.96 596.93 215.42 597.083 215.746 597.39C216.08 597.69 216.246 598.1 216.246 598.62V602H215.556ZM215.496 599.61L213.946 599.79C213.613 599.83 213.36 599.923 213.186 600.07C213.013 600.21 212.926 600.397 212.926 600.63C212.926 600.863 213.01 601.05 213.176 601.19C213.35 601.33 213.596 601.4 213.916 601.4C214.283 601.4 214.583 601.327 214.816 601.18C215.05 601.033 215.22 600.837 215.326 600.59C215.44 600.337 215.496 600.063 215.496 599.77V599.61ZM217.709 597H218.399L218.439 597.71C218.599 597.463 218.809 597.273 219.069 597.14C219.329 597 219.633 596.93 219.979 596.93C220.359 596.93 220.693 597.013 220.979 597.18C221.266 597.34 221.489 597.583 221.649 597.91C221.809 598.23 221.889 598.633 221.889 599.12V602H221.139V599.21C221.139 598.69 221.026 598.297 220.799 598.03C220.579 597.757 220.259 597.62 219.839 597.62C219.406 597.62 219.066 597.763 218.819 598.05C218.579 598.337 218.459 598.76 218.459 599.32V602H217.709V597ZM225.474 602.07C224.988 602.07 224.561 601.963 224.194 601.75C223.828 601.537 223.541 601.24 223.334 600.86C223.134 600.473 223.034 600.027 223.034 599.52C223.034 599.007 223.134 598.557 223.334 598.17C223.541 597.777 223.828 597.473 224.194 597.26C224.561 597.04 224.988 596.93 225.474 596.93C225.988 596.93 226.438 597.05 226.824 597.29C227.211 597.523 227.491 597.85 227.664 598.27L226.974 598.51C226.874 598.243 226.691 598.033 226.424 597.88C226.164 597.72 225.861 597.64 225.514 597.64C225.174 597.64 224.878 597.717 224.624 597.87C224.378 598.023 224.184 598.24 224.044 598.52C223.911 598.8 223.844 599.13 223.844 599.51C223.844 600.07 223.994 600.52 224.294 600.86C224.594 601.193 224.994 601.36 225.494 601.36C225.834 601.36 226.138 601.283 226.404 601.13C226.671 600.977 226.868 600.77 226.994 600.51L227.674 600.75C227.494 601.163 227.211 601.487 226.824 601.72C226.438 601.953 225.988 602.07 225.474 602.07ZM231.001 602.07C230.534 602.07 230.118 601.957 229.751 601.73C229.391 601.503 229.108 601.193 228.901 600.8C228.694 600.407 228.591 599.957 228.591 599.45C228.591 598.963 228.694 598.53 228.901 598.15C229.108 597.77 229.391 597.473 229.751 597.26C230.111 597.04 230.521 596.93 230.981 596.93C231.434 596.93 231.838 597.03 232.191 597.23C232.551 597.43 232.831 597.707 233.031 598.06C233.231 598.413 233.324 598.817 233.311 599.27C233.311 599.343 233.308 599.42 233.301 599.5C233.294 599.58 233.288 599.667 233.281 599.76H229.411C229.424 600.073 229.501 600.35 229.641 600.59C229.781 600.83 229.964 601.02 230.191 601.16C230.424 601.293 230.688 601.36 230.981 601.36C231.368 601.36 231.694 601.287 231.961 601.14C232.234 600.993 232.431 600.783 232.551 600.51L233.201 600.77C233.001 601.19 232.711 601.513 232.331 601.74C231.951 601.96 231.508 602.07 231.001 602.07ZM232.491 599.11C232.498 598.823 232.434 598.57 232.301 598.35C232.174 598.13 231.994 597.957 231.761 597.83C231.528 597.703 231.258 597.64 230.951 597.64C230.684 597.64 230.441 597.703 230.221 597.83C230.001 597.957 229.818 598.133 229.671 598.36C229.531 598.58 229.448 598.83 229.421 599.11H232.491ZM240.478 602L240.418 601.1C240.278 601.407 240.071 601.647 239.798 601.82C239.525 601.987 239.178 602.07 238.758 602.07C238.398 602.07 238.091 602.013 237.838 601.9C237.585 601.787 237.388 601.627 237.248 601.42C237.115 601.207 237.048 600.957 237.048 600.67C237.048 600.25 237.205 599.907 237.518 599.64C237.831 599.367 238.285 599.2 238.878 599.14L240.418 598.97V598.57C240.418 598.29 240.315 598.067 240.108 597.9C239.901 597.727 239.621 597.64 239.268 597.64C238.921 597.64 238.631 597.72 238.398 597.88C238.171 598.04 238.015 598.27 237.928 598.57L237.248 598.33C237.381 597.89 237.625 597.547 237.978 597.3C238.338 597.053 238.775 596.93 239.288 596.93C239.881 596.93 240.341 597.083 240.668 597.39C241.001 597.69 241.168 598.1 241.168 598.62V602H240.478ZM240.418 599.61L238.868 599.79C238.535 599.83 238.281 599.923 238.108 600.07C237.935 600.21 237.848 600.397 237.848 600.63C237.848 600.863 237.931 601.05 238.098 601.19C238.271 601.33 238.518 601.4 238.838 601.4C239.205 601.4 239.505 601.327 239.738 601.18C239.971 601.033 240.141 600.837 240.248 600.59C240.361 600.337 240.418 600.063 240.418 599.77V599.61ZM242.631 597H243.321L243.361 597.71C243.521 597.463 243.731 597.273 243.991 597.14C244.251 597 244.555 596.93 244.901 596.93C245.281 596.93 245.615 597.013 245.901 597.18C246.188 597.34 246.411 597.583 246.571 597.91C246.731 598.23 246.811 598.633 246.811 599.12V602H246.061V599.21C246.061 598.69 245.948 598.297 245.721 598.03C245.501 597.757 245.181 597.62 244.761 597.62C244.328 597.62 243.988 597.763 243.741 598.05C243.501 598.337 243.381 598.76 243.381 599.32V602H242.631V597ZM252.126 598.01L252.046 598.02V594.8H252.796V602H252.106L252.056 601.07C251.903 601.35 251.673 601.587 251.366 601.78C251.066 601.973 250.693 602.07 250.246 602.07C249.786 602.07 249.383 601.967 249.036 601.76C248.696 601.547 248.429 601.247 248.236 600.86C248.049 600.473 247.956 600.02 247.956 599.5C247.956 598.98 248.049 598.53 248.236 598.15C248.429 597.763 248.696 597.463 249.036 597.25C249.383 597.037 249.786 596.93 250.246 596.93C250.719 596.93 251.113 597.033 251.426 597.24C251.739 597.447 251.973 597.703 252.126 598.01ZM248.766 599.5C248.766 600.073 248.913 600.53 249.206 600.87C249.499 601.203 249.899 601.37 250.406 601.37C250.719 601.37 250.999 601.297 251.246 601.15C251.493 601.003 251.686 600.79 251.826 600.51C251.973 600.23 252.046 599.893 252.046 599.5C252.046 599.107 251.973 598.773 251.826 598.5C251.686 598.22 251.493 598.007 251.246 597.86C250.999 597.707 250.719 597.63 250.406 597.63C249.906 597.63 249.506 597.8 249.206 598.14C248.913 598.473 248.766 598.927 248.766 599.5ZM257.133 594.8H257.883V597.68C258.043 597.44 258.26 597.257 258.533 597.13C258.807 596.997 259.113 596.93 259.453 596.93C259.82 596.93 260.147 597.013 260.433 597.18C260.72 597.347 260.943 597.593 261.103 597.92C261.27 598.247 261.353 598.653 261.353 599.14V602H260.553V599.23C260.553 598.71 260.443 598.313 260.223 598.04C260.003 597.76 259.683 597.62 259.263 597.62C258.83 597.62 258.49 597.767 258.243 598.06C258.003 598.353 257.883 598.78 257.883 599.34V602H257.133V594.8ZM264.967 602.07C264.494 602.07 264.07 601.967 263.697 601.76C263.324 601.553 263.03 601.26 262.817 600.88C262.604 600.493 262.497 600.037 262.497 599.51C262.497 598.977 262.604 598.517 262.817 598.13C263.037 597.743 263.334 597.447 263.707 597.24C264.087 597.033 264.514 596.93 264.987 596.93C265.46 596.93 265.884 597.033 266.257 597.24C266.637 597.447 266.934 597.743 267.147 598.13C267.367 598.51 267.477 598.963 267.477 599.49C267.477 600.023 267.367 600.483 267.147 600.87C266.927 601.257 266.627 601.553 266.247 601.76C265.867 601.967 265.44 602.07 264.967 602.07ZM264.957 601.36C265.25 601.36 265.527 601.297 265.787 601.17C266.047 601.037 266.257 600.833 266.417 600.56C266.584 600.28 266.667 599.927 266.667 599.5C266.667 599.067 266.587 598.713 266.427 598.44C266.267 598.167 266.057 597.967 265.797 597.84C265.544 597.707 265.27 597.64 264.977 597.64C264.684 597.64 264.41 597.707 264.157 597.84C263.904 597.967 263.697 598.17 263.537 598.45C263.384 598.723 263.307 599.073 263.307 599.5C263.307 599.933 263.384 600.287 263.537 600.56C263.69 600.833 263.89 601.037 264.137 601.17C264.39 601.297 264.664 601.36 264.957 601.36ZM269.116 600.47C269.156 600.67 269.229 600.837 269.336 600.97C269.442 601.097 269.579 601.193 269.746 601.26C269.919 601.327 270.119 601.36 270.346 601.36C270.699 601.36 270.966 601.293 271.146 601.16C271.332 601.02 271.426 600.847 271.426 600.64C271.426 600.467 271.369 600.327 271.256 600.22C271.149 600.113 271.006 600.027 270.826 599.96C270.646 599.887 270.446 599.823 270.226 599.77C270.052 599.73 269.866 599.683 269.666 599.63C269.466 599.57 269.276 599.49 269.096 599.39C268.916 599.29 268.769 599.16 268.656 599C268.542 598.84 268.486 598.63 268.486 598.37C268.486 598.083 268.562 597.833 268.716 597.62C268.876 597.4 269.092 597.23 269.366 597.11C269.646 596.99 269.966 596.93 270.326 596.93C270.739 596.93 271.106 597.02 271.426 597.2C271.752 597.38 271.979 597.66 272.106 598.04L271.406 598.28C271.359 598.107 271.272 597.973 271.146 597.88C271.026 597.787 270.889 597.723 270.736 597.69C270.589 597.657 270.442 597.64 270.296 597.64C269.996 597.64 269.752 597.7 269.566 597.82C269.386 597.933 269.296 598.107 269.296 598.34C269.296 598.467 269.326 598.573 269.386 598.66C269.446 598.74 269.529 598.807 269.636 598.86C269.742 598.913 269.869 598.96 270.016 599C270.162 599.033 270.322 599.073 270.496 599.12C270.689 599.167 270.886 599.227 271.086 599.3C271.286 599.367 271.472 599.457 271.646 599.57C271.819 599.677 271.959 599.817 272.066 599.99C272.179 600.157 272.236 600.367 272.236 600.62C272.236 600.913 272.156 601.17 271.996 601.39C271.836 601.603 271.612 601.77 271.326 601.89C271.046 602.01 270.719 602.07 270.346 602.07C269.832 602.07 269.406 601.957 269.066 601.73C268.732 601.497 268.509 601.157 268.396 600.71L269.116 600.47ZM273.772 597V595.6H274.522V597H275.852V597.7H274.522V600.39C274.522 600.697 274.585 600.92 274.712 601.06C274.845 601.2 275.012 601.283 275.212 601.31C275.418 601.337 275.632 601.337 275.852 601.31V601.96C275.592 602.02 275.335 602.037 275.082 602.01C274.835 601.983 274.612 601.91 274.412 601.79C274.218 601.663 274.062 601.487 273.942 601.26C273.828 601.033 273.772 600.743 273.772 600.39V597.7H273.022V597H273.772ZM277.117 597H277.857V602H277.117V597ZM277.497 596C277.344 596 277.217 595.95 277.117 595.85C277.017 595.75 276.967 595.627 276.967 595.48C276.967 595.327 277.017 595.2 277.117 595.1C277.217 595 277.344 594.95 277.497 594.95C277.637 594.95 277.757 595 277.857 595.1C277.964 595.2 278.017 595.327 278.017 595.48C278.017 595.627 277.964 595.75 277.857 595.85C277.757 595.95 277.637 596 277.497 596ZM279.545 597H280.235L280.275 597.71C280.435 597.463 280.645 597.273 280.905 597.14C281.165 597 281.469 596.93 281.815 596.93C282.195 596.93 282.529 597.013 282.815 597.18C283.102 597.34 283.325 597.583 283.485 597.91C283.645 598.23 283.725 598.633 283.725 599.12V602H282.975V599.21C282.975 598.69 282.862 598.297 282.635 598.03C282.415 597.757 282.095 597.62 281.675 597.62C281.242 597.62 280.902 597.763 280.655 598.05C280.415 598.337 280.295 598.76 280.295 599.32V602H279.545V597ZM289.02 597H289.71V601.08C289.71 601.693 289.573 602.217 289.3 602.65C289.027 603.09 288.63 603.423 288.11 603.65C287.59 603.883 286.957 604 286.21 604L286.09 603.31C287.03 603.297 287.743 603.1 288.23 602.72C288.717 602.347 288.96 601.8 288.96 601.08V600.97L289.04 600.99C288.887 601.283 288.657 601.537 288.35 601.75C288.043 601.957 287.647 602.063 287.16 602.07C286.7 602.07 286.297 601.967 285.95 601.76C285.61 601.547 285.343 601.247 285.15 600.86C284.963 600.473 284.87 600.02 284.87 599.5C284.87 598.98 284.963 598.53 285.15 598.15C285.343 597.763 285.61 597.463 285.95 597.25C286.297 597.037 286.7 596.93 287.16 596.93C287.46 596.93 287.727 596.977 287.96 597.07C288.193 597.157 288.393 597.277 288.56 597.43C288.727 597.577 288.863 597.743 288.97 597.93L289.02 597ZM285.68 599.5C285.68 600.073 285.827 600.53 286.12 600.87C286.42 601.203 286.823 601.37 287.33 601.37C287.637 601.37 287.913 601.297 288.16 601.15C288.407 601.003 288.6 600.79 288.74 600.51C288.887 600.23 288.96 599.893 288.96 599.5C288.96 599.107 288.887 598.773 288.74 598.5C288.6 598.22 288.407 598.007 288.16 597.86C287.913 597.707 287.637 597.63 287.33 597.63C286.83 597.63 286.43 597.8 286.13 598.14C285.83 598.48 285.68 598.933 285.68 599.5Z" fill="#ECECEC"/>
<rect x="28" y="616" width="145" height="28" rx="14" fill="#1244C5"/>
<path d="M39.32 630.44C39.6933 630.44 39.9967 630.383 40.23 630.27C40.4633 630.157 40.6333 629.997 40.74 629.79C40.8533 629.583 40.91 629.343 40.91 629.07C40.91 628.637 40.7833 628.3 40.53 628.06C40.2833 627.82 39.88 627.7 39.32 627.7H37.65V630.44H39.32ZM41.7 629.07C41.7 629.343 41.6533 629.607 41.56 629.86C41.4733 630.107 41.3333 630.327 41.14 630.52C40.9467 630.713 40.7 630.867 40.4 630.98C40.1 631.087 39.74 631.14 39.32 631.14H37.65V634H36.85V627H39.32C39.8667 627 40.3133 627.093 40.66 627.28C41.0133 627.467 41.2733 627.717 41.44 628.03C41.6133 628.343 41.7 628.69 41.7 629.07ZM42.893 626.8H43.643V634H42.893V626.8ZM48.2984 634L48.2384 633.1C48.0984 633.407 47.8918 633.647 47.6184 633.82C47.3451 633.987 46.9984 634.07 46.5784 634.07C46.2184 634.07 45.9118 634.013 45.6584 633.9C45.4051 633.787 45.2084 633.627 45.0684 633.42C44.9351 633.207 44.8684 632.957 44.8684 632.67C44.8684 632.25 45.0251 631.907 45.3384 631.64C45.6518 631.367 46.1051 631.2 46.6984 631.14L48.2384 630.97V630.57C48.2384 630.29 48.1351 630.067 47.9284 629.9C47.7218 629.727 47.4418 629.64 47.0884 629.64C46.7418 629.64 46.4518 629.72 46.2184 629.88C45.9918 630.04 45.8351 630.27 45.7484 630.57L45.0684 630.33C45.2018 629.89 45.4451 629.547 45.7984 629.3C46.1584 629.053 46.5951 628.93 47.1084 628.93C47.7018 628.93 48.1618 629.083 48.4884 629.39C48.8218 629.69 48.9884 630.1 48.9884 630.62V634H48.2984ZM48.2384 631.61L46.6884 631.79C46.3551 631.83 46.1018 631.923 45.9284 632.07C45.7551 632.21 45.6684 632.397 45.6684 632.63C45.6684 632.863 45.7518 633.05 45.9184 633.19C46.0918 633.33 46.3384 633.4 46.6584 633.4C47.0251 633.4 47.3251 633.327 47.5584 633.18C47.7918 633.033 47.9618 632.837 48.0684 632.59C48.1818 632.337 48.2384 632.063 48.2384 631.77V631.61ZM50.7716 629V627.6H51.5216V629H52.8516V629.7H51.5216V632.39C51.5216 632.697 51.585 632.92 51.7116 633.06C51.845 633.2 52.0116 633.283 52.2116 633.31C52.4183 633.337 52.6316 633.337 52.8516 633.31V633.96C52.5916 634.02 52.335 634.037 52.0816 634.01C51.835 633.983 51.6116 633.91 51.4116 633.79C51.2183 633.663 51.0616 633.487 50.9416 633.26C50.8283 633.033 50.7716 632.743 50.7716 632.39V629.7H50.0216V629H50.7716ZM54.2373 628.41C54.2373 628.043 54.2973 627.733 54.4173 627.48C54.5373 627.227 54.7273 627.043 54.9873 626.93C55.2539 626.81 55.6073 626.767 56.0473 626.8V627.47C55.6473 627.437 55.3706 627.503 55.2173 627.67C55.0639 627.83 54.9873 628.077 54.9873 628.41V629H56.0873V629.7H54.9873V634H54.2373V629.7H53.5373V629H54.2373V628.41ZM59.2718 634.07C58.7985 634.07 58.3751 633.967 58.0018 633.76C57.6285 633.553 57.3351 633.26 57.1218 632.88C56.9085 632.493 56.8018 632.037 56.8018 631.51C56.8018 630.977 56.9085 630.517 57.1218 630.13C57.3418 629.743 57.6385 629.447 58.0118 629.24C58.3918 629.033 58.8185 628.93 59.2918 628.93C59.7651 628.93 60.1885 629.033 60.5618 629.24C60.9418 629.447 61.2385 629.743 61.4518 630.13C61.6718 630.51 61.7818 630.963 61.7818 631.49C61.7818 632.023 61.6718 632.483 61.4518 632.87C61.2318 633.257 60.9318 633.553 60.5518 633.76C60.1718 633.967 59.7451 634.07 59.2718 634.07ZM59.2618 633.36C59.5551 633.36 59.8318 633.297 60.0918 633.17C60.3518 633.037 60.5618 632.833 60.7218 632.56C60.8885 632.28 60.9718 631.927 60.9718 631.5C60.9718 631.067 60.8918 630.713 60.7318 630.44C60.5718 630.167 60.3618 629.967 60.1018 629.84C59.8485 629.707 59.5751 629.64 59.2818 629.64C58.9885 629.64 58.7151 629.707 58.4618 629.84C58.2085 629.967 58.0018 630.17 57.8418 630.45C57.6885 630.723 57.6118 631.073 57.6118 631.5C57.6118 631.933 57.6885 632.287 57.8418 632.56C57.9951 632.833 58.1951 633.037 58.4418 633.17C58.6951 633.297 58.9685 633.36 59.2618 633.36ZM63.0102 629H63.7002L63.7402 629.73C63.8736 629.55 64.0336 629.397 64.2202 629.27C64.4136 629.143 64.6236 629.057 64.8502 629.01C65.0836 628.957 65.3302 628.953 65.5902 629V629.75C65.3102 629.697 65.0569 629.697 64.8302 629.75C64.6102 629.803 64.4202 629.903 64.2602 630.05C64.1002 630.197 63.9769 630.383 63.8902 630.61C63.8036 630.83 63.7602 631.087 63.7602 631.38V634H63.0102V629ZM66.6138 629H67.3038L67.3538 629.72C67.5004 629.48 67.6971 629.29 67.9438 629.15C68.1971 629.003 68.4971 628.93 68.8438 628.93C69.1971 628.93 69.5171 629.017 69.8038 629.19C70.0971 629.357 70.3238 629.607 70.4838 629.94C70.6371 629.6 70.8704 629.347 71.1838 629.18C71.4971 629.013 71.8438 628.93 72.2238 628.93C72.5971 628.93 72.9271 629.013 73.2138 629.18C73.5004 629.34 73.7238 629.583 73.8838 629.91C74.0438 630.23 74.1238 630.633 74.1238 631.12V634H73.3738V631.21C73.3738 630.69 73.2604 630.297 73.0338 630.03C72.8138 629.757 72.4971 629.62 72.0838 629.62C71.6638 629.62 71.3304 629.767 71.0838 630.06C70.8371 630.347 70.7138 630.773 70.7138 631.34V634H69.9638V631.21C69.9638 630.69 69.8571 630.297 69.6438 630.03C69.4304 629.757 69.1171 629.62 68.7038 629.62C68.2838 629.62 67.9538 629.767 67.7138 630.06C67.4804 630.347 67.3638 630.773 67.3638 631.34V634H66.6138V629ZM81.5113 634L81.4513 633.1C81.3113 633.407 81.1047 633.647 80.8313 633.82C80.558 633.987 80.2113 634.07 79.7913 634.07C79.4313 634.07 79.1247 634.013 78.8713 633.9C78.618 633.787 78.4213 633.627 78.2813 633.42C78.148 633.207 78.0813 632.957 78.0813 632.67C78.0813 632.25 78.238 631.907 78.5513 631.64C78.8647 631.367 79.318 631.2 79.9113 631.14L81.4513 630.97V630.57C81.4513 630.29 81.348 630.067 81.1413 629.9C80.9347 629.727 80.6547 629.64 80.3013 629.64C79.9547 629.64 79.6647 629.72 79.4313 629.88C79.2047 630.04 79.048 630.27 78.9613 630.57L78.2813 630.33C78.4147 629.89 78.658 629.547 79.0113 629.3C79.3713 629.053 79.808 628.93 80.3213 628.93C80.9147 628.93 81.3747 629.083 81.7013 629.39C82.0347 629.69 82.2013 630.1 82.2013 630.62V634H81.5113ZM81.4513 631.61L79.9013 631.79C79.568 631.83 79.3147 631.923 79.1413 632.07C78.968 632.21 78.8813 632.397 78.8813 632.63C78.8813 632.863 78.9647 633.05 79.1313 633.19C79.3047 633.33 79.5513 633.4 79.8713 633.4C80.238 633.4 80.538 633.327 80.7713 633.18C81.0047 633.033 81.1747 632.837 81.2813 632.59C81.3947 632.337 81.4513 632.063 81.4513 631.77V631.61ZM83.6645 629H84.3545L84.3945 629.71C84.5545 629.463 84.7645 629.273 85.0245 629.14C85.2845 629 85.5879 628.93 85.9345 628.93C86.3145 628.93 86.6479 629.013 86.9345 629.18C87.2212 629.34 87.4445 629.583 87.6045 629.91C87.7645 630.23 87.8445 630.633 87.8445 631.12V634H87.0945V631.21C87.0945 630.69 86.9812 630.297 86.7545 630.03C86.5345 629.757 86.2145 629.62 85.7945 629.62C85.3612 629.62 85.0212 629.763 84.7745 630.05C84.5345 630.337 84.4145 630.76 84.4145 631.32V634H83.6645V629ZM93.1593 630.01L93.0793 630.02V626.8H93.8293V634H93.1393L93.0893 633.07C92.936 633.35 92.706 633.587 92.3993 633.78C92.0993 633.973 91.726 634.07 91.2793 634.07C90.8193 634.07 90.416 633.967 90.0693 633.76C89.7293 633.547 89.4626 633.247 89.2693 632.86C89.0826 632.473 88.9893 632.02 88.9893 631.5C88.9893 630.98 89.0826 630.53 89.2693 630.15C89.4626 629.763 89.7293 629.463 90.0693 629.25C90.416 629.037 90.8193 628.93 91.2793 628.93C91.7526 628.93 92.146 629.033 92.4593 629.24C92.7726 629.447 93.006 629.703 93.1593 630.01ZM89.7993 631.5C89.7993 632.073 89.946 632.53 90.2393 632.87C90.5326 633.203 90.9326 633.37 91.4393 633.37C91.7526 633.37 92.0326 633.297 92.2793 633.15C92.526 633.003 92.7193 632.79 92.8593 632.51C93.006 632.23 93.0793 631.893 93.0793 631.5C93.0793 631.107 93.006 630.773 92.8593 630.5C92.7193 630.22 92.526 630.007 92.2793 629.86C92.0326 629.707 91.7526 629.63 91.4393 629.63C90.9393 629.63 90.5393 629.8 90.2393 630.14C89.946 630.473 89.7993 630.927 89.7993 631.5ZM102.026 630.01L101.946 630.02V626.8H102.696V634H102.006L101.956 633.07C101.803 633.35 101.573 633.587 101.266 633.78C100.966 633.973 100.593 634.07 100.146 634.07C99.6865 634.07 99.2832 633.967 98.9365 633.76C98.5965 633.547 98.3298 633.247 98.1365 632.86C97.9498 632.473 97.8565 632.02 97.8565 631.5C97.8565 630.98 97.9498 630.53 98.1365 630.15C98.3298 629.763 98.5965 629.463 98.9365 629.25C99.2832 629.037 99.6865 628.93 100.146 628.93C100.62 628.93 101.013 629.033 101.326 629.24C101.64 629.447 101.873 629.703 102.026 630.01ZM98.6665 631.5C98.6665 632.073 98.8132 632.53 99.1065 632.87C99.3998 633.203 99.7998 633.37 100.306 633.37C100.62 633.37 100.9 633.297 101.146 633.15C101.393 633.003 101.586 632.79 101.726 632.51C101.873 632.23 101.946 631.893 101.946 631.5C101.946 631.107 101.873 630.773 101.726 630.5C101.586 630.22 101.393 630.007 101.146 629.86C100.9 629.707 100.62 629.63 100.306 629.63C99.8065 629.63 99.4065 629.8 99.1065 630.14C98.8132 630.473 98.6665 630.927 98.6665 631.5ZM107.361 634L107.301 633.1C107.161 633.407 106.954 633.647 106.681 633.82C106.408 633.987 106.061 634.07 105.641 634.07C105.281 634.07 104.974 634.013 104.721 633.9C104.468 633.787 104.271 633.627 104.131 633.42C103.998 633.207 103.931 632.957 103.931 632.67C103.931 632.25 104.088 631.907 104.401 631.64C104.714 631.367 105.168 631.2 105.761 631.14L107.301 630.97V630.57C107.301 630.29 107.198 630.067 106.991 629.9C106.784 629.727 106.504 629.64 106.151 629.64C105.804 629.64 105.514 629.72 105.281 629.88C105.054 630.04 104.898 630.27 104.811 630.57L104.131 630.33C104.264 629.89 104.508 629.547 104.861 629.3C105.221 629.053 105.658 628.93 106.171 628.93C106.764 628.93 107.224 629.083 107.551 629.39C107.884 629.69 108.051 630.1 108.051 630.62V634H107.361ZM107.301 631.61L105.751 631.79C105.418 631.83 105.164 631.923 104.991 632.07C104.818 632.21 104.731 632.397 104.731 632.63C104.731 632.863 104.814 633.05 104.981 633.19C105.154 633.33 105.401 633.4 105.721 633.4C106.088 633.4 106.388 633.327 106.621 633.18C106.854 633.033 107.024 632.837 107.131 632.59C107.244 632.337 107.301 632.063 107.301 631.77V631.61ZM109.834 629V627.6H110.584V629H111.914V629.7H110.584V632.39C110.584 632.697 110.647 632.92 110.774 633.06C110.907 633.2 111.074 633.283 111.274 633.31C111.481 633.337 111.694 633.337 111.914 633.31V633.96C111.654 634.02 111.397 634.037 111.144 634.01C110.897 633.983 110.674 633.91 110.474 633.79C110.281 633.663 110.124 633.487 110.004 633.26C109.891 633.033 109.834 632.743 109.834 632.39V629.7H109.084V629H109.834ZM116.16 634L116.1 633.1C115.96 633.407 115.753 633.647 115.48 633.82C115.206 633.987 114.86 634.07 114.44 634.07C114.08 634.07 113.773 634.013 113.52 633.9C113.266 633.787 113.07 633.627 112.93 633.42C112.796 633.207 112.73 632.957 112.73 632.67C112.73 632.25 112.886 631.907 113.2 631.64C113.513 631.367 113.966 631.2 114.56 631.14L116.1 630.97V630.57C116.1 630.29 115.996 630.067 115.79 629.9C115.583 629.727 115.303 629.64 114.95 629.64C114.603 629.64 114.313 629.72 114.08 629.88C113.853 630.04 113.696 630.27 113.61 630.57L112.93 630.33C113.063 629.89 113.306 629.547 113.66 629.3C114.02 629.053 114.456 628.93 114.97 628.93C115.563 628.93 116.023 629.083 116.35 629.39C116.683 629.69 116.85 630.1 116.85 630.62V634H116.16ZM116.1 631.61L114.55 631.79C114.216 631.83 113.963 631.923 113.79 632.07C113.616 632.21 113.53 632.397 113.53 632.63C113.53 632.863 113.613 633.05 113.78 633.19C113.953 633.33 114.2 633.4 114.52 633.4C114.886 633.4 115.186 633.327 115.42 633.18C115.653 633.033 115.823 632.837 115.93 632.59C116.043 632.337 116.1 632.063 116.1 631.77V631.61ZM121.116 629H121.806L121.856 629.72C122.002 629.48 122.199 629.29 122.446 629.15C122.699 629.003 122.999 628.93 123.346 628.93C123.699 628.93 124.019 629.017 124.306 629.19C124.599 629.357 124.826 629.607 124.986 629.94C125.139 629.6 125.372 629.347 125.686 629.18C125.999 629.013 126.346 628.93 126.726 628.93C127.099 628.93 127.429 629.013 127.716 629.18C128.002 629.34 128.226 629.583 128.386 629.91C128.546 630.23 128.626 630.633 128.626 631.12V634H127.876V631.21C127.876 630.69 127.762 630.297 127.536 630.03C127.316 629.757 126.999 629.62 126.586 629.62C126.166 629.62 125.832 629.767 125.586 630.06C125.339 630.347 125.216 630.773 125.216 631.34V634H124.466V631.21C124.466 630.69 124.359 630.297 124.146 630.03C123.932 629.757 123.619 629.62 123.206 629.62C122.786 629.62 122.456 629.767 122.216 630.06C121.982 630.347 121.866 630.773 121.866 631.34V634H121.116V629ZM130.231 629H130.971V634H130.231V629ZM130.611 628C130.457 628 130.331 627.95 130.231 627.85C130.131 627.75 130.081 627.627 130.081 627.48C130.081 627.327 130.131 627.2 130.231 627.1C130.331 627 130.457 626.95 130.611 626.95C130.751 626.95 130.871 627 130.971 627.1C131.077 627.2 131.131 627.327 131.131 627.48C131.131 627.627 131.077 627.75 130.971 627.85C130.871 627.95 130.751 628 130.611 628ZM136.499 629H137.189V633.08C137.189 633.693 137.052 634.217 136.779 634.65C136.505 635.09 136.109 635.423 135.589 635.65C135.069 635.883 134.435 636 133.689 636L133.569 635.31C134.509 635.297 135.222 635.1 135.709 634.72C136.195 634.347 136.439 633.8 136.439 633.08V632.97L136.519 632.99C136.365 633.283 136.135 633.537 135.829 633.75C135.522 633.957 135.125 634.063 134.639 634.07C134.179 634.07 133.775 633.967 133.429 633.76C133.089 633.547 132.822 633.247 132.629 632.86C132.442 632.473 132.349 632.02 132.349 631.5C132.349 630.98 132.442 630.53 132.629 630.15C132.822 629.763 133.089 629.463 133.429 629.25C133.775 629.037 134.179 628.93 134.639 628.93C134.939 628.93 135.205 628.977 135.439 629.07C135.672 629.157 135.872 629.277 136.039 629.43C136.205 629.577 136.342 629.743 136.449 629.93L136.499 629ZM133.159 631.5C133.159 632.073 133.305 632.53 133.599 632.87C133.899 633.203 134.302 633.37 134.809 633.37C135.115 633.37 135.392 633.297 135.639 633.15C135.885 633.003 136.079 632.79 136.219 632.51C136.365 632.23 136.439 631.893 136.439 631.5C136.439 631.107 136.365 630.773 136.219 630.5C136.079 630.22 135.885 630.007 135.639 629.86C135.392 629.707 135.115 629.63 134.809 629.63C134.309 629.63 133.909 629.8 133.609 630.14C133.309 630.48 133.159 630.933 133.159 631.5ZM138.723 629H139.413L139.453 629.73C139.586 629.55 139.746 629.397 139.933 629.27C140.126 629.143 140.336 629.057 140.563 629.01C140.796 628.957 141.043 628.953 141.303 629V629.75C141.023 629.697 140.77 629.697 140.543 629.75C140.323 629.803 140.133 629.903 139.973 630.05C139.813 630.197 139.69 630.383 139.603 630.61C139.516 630.83 139.473 631.087 139.473 631.38V634H138.723V629ZM145.457 634L145.397 633.1C145.257 633.407 145.05 633.647 144.777 633.82C144.503 633.987 144.157 634.07 143.737 634.07C143.377 634.07 143.07 634.013 142.817 633.9C142.563 633.787 142.367 633.627 142.227 633.42C142.093 633.207 142.027 632.957 142.027 632.67C142.027 632.25 142.183 631.907 142.497 631.64C142.81 631.367 143.263 631.2 143.857 631.14L145.397 630.97V630.57C145.397 630.29 145.293 630.067 145.087 629.9C144.88 629.727 144.6 629.64 144.247 629.64C143.9 629.64 143.61 629.72 143.377 629.88C143.15 630.04 142.993 630.27 142.907 630.57L142.227 630.33C142.36 629.89 142.603 629.547 142.957 629.3C143.317 629.053 143.753 628.93 144.267 628.93C144.86 628.93 145.32 629.083 145.647 629.39C145.98 629.69 146.147 630.1 146.147 630.62V634H145.457ZM145.397 631.61L143.847 631.79C143.513 631.83 143.26 631.923 143.087 632.07C142.913 632.21 142.827 632.397 142.827 632.63C142.827 632.863 142.91 633.05 143.077 633.19C143.25 633.33 143.497 633.4 143.817 633.4C144.183 633.4 144.483 633.327 144.717 633.18C144.95 633.033 145.12 632.837 145.227 632.59C145.34 632.337 145.397 632.063 145.397 631.77V631.61ZM147.93 629V627.6H148.68V629H150.01V629.7H148.68V632.39C148.68 632.697 148.743 632.92 148.87 633.06C149.003 633.2 149.17 633.283 149.37 633.31C149.577 633.337 149.79 633.337 150.01 633.31V633.96C149.75 634.02 149.493 634.037 149.24 634.01C148.993 633.983 148.77 633.91 148.57 633.79C148.377 633.663 148.22 633.487 148.1 633.26C147.987 633.033 147.93 632.743 147.93 632.39V629.7H147.18V629H147.93ZM151.275 629H152.015V634H151.275V629ZM151.655 628C151.502 628 151.375 627.95 151.275 627.85C151.175 627.75 151.125 627.627 151.125 627.48C151.125 627.327 151.175 627.2 151.275 627.1C151.375 627 151.502 626.95 151.655 626.95C151.795 626.95 151.915 627 152.015 627.1C152.122 627.2 152.175 627.327 152.175 627.48C152.175 627.627 152.122 627.75 152.015 627.85C151.915 627.95 151.795 628 151.655 628ZM155.864 634.07C155.39 634.07 154.967 633.967 154.594 633.76C154.22 633.553 153.927 633.26 153.714 632.88C153.5 632.493 153.394 632.037 153.394 631.51C153.394 630.977 153.5 630.517 153.714 630.13C153.934 629.743 154.23 629.447 154.604 629.24C154.984 629.033 155.41 628.93 155.884 628.93C156.357 628.93 156.78 629.033 157.154 629.24C157.534 629.447 157.83 629.743 158.044 630.13C158.264 630.51 158.374 630.963 158.374 631.49C158.374 632.023 158.264 632.483 158.044 632.87C157.824 633.257 157.524 633.553 157.144 633.76C156.764 633.967 156.337 634.07 155.864 634.07ZM155.854 633.36C156.147 633.36 156.424 633.297 156.684 633.17C156.944 633.037 157.154 632.833 157.314 632.56C157.48 632.28 157.564 631.927 157.564 631.5C157.564 631.067 157.484 630.713 157.324 630.44C157.164 630.167 156.954 629.967 156.694 629.84C156.44 629.707 156.167 629.64 155.874 629.64C155.58 629.64 155.307 629.707 155.054 629.84C154.8 629.967 154.594 630.17 154.434 630.45C154.28 630.723 154.204 631.073 154.204 631.5C154.204 631.933 154.28 632.287 154.434 632.56C154.587 632.833 154.787 633.037 155.034 633.17C155.287 633.297 155.56 633.36 155.854 633.36ZM159.602 629H160.292L160.332 629.71C160.492 629.463 160.702 629.273 160.962 629.14C161.222 629 161.525 628.93 161.872 628.93C162.252 628.93 162.585 629.013 162.872 629.18C163.159 629.34 163.382 629.583 163.542 629.91C163.702 630.23 163.782 630.633 163.782 631.12V634H163.032V631.21C163.032 630.69 162.919 630.297 162.692 630.03C162.472 629.757 162.152 629.62 161.732 629.62C161.299 629.62 160.959 629.763 160.712 630.05C160.472 630.337 160.352 630.76 160.352 631.32V634H159.602V629Z" fill="#ECECEC"/>
<rect x="177" y="616" width="114" height="28" rx="14" fill="#1244C5"/>
<path d="M185.43 630.5C185.43 629.973 185.517 629.493 185.69 629.06C185.863 628.62 186.107 628.243 186.42 627.93C186.74 627.61 187.107 627.363 187.52 627.19C187.94 627.017 188.397 626.93 188.89 626.93C189.61 626.93 190.24 627.097 190.78 627.43C191.327 627.763 191.74 628.237 192.02 628.85L191.37 629.09C191.217 628.763 191.013 628.497 190.76 628.29C190.507 628.077 190.22 627.917 189.9 627.81C189.58 627.703 189.243 627.65 188.89 627.65C188.39 627.65 187.94 627.763 187.54 627.99C187.14 628.217 186.823 628.543 186.59 628.97C186.363 629.397 186.25 629.907 186.25 630.5C186.25 631.087 186.363 631.593 186.59 632.02C186.823 632.447 187.14 632.777 187.54 633.01C187.94 633.237 188.39 633.35 188.89 633.35C189.25 633.35 189.593 633.293 189.92 633.18C190.247 633.067 190.54 632.89 190.8 632.65C191.067 632.41 191.28 632.11 191.44 631.75L192.09 631.99C191.803 632.677 191.383 633.197 190.83 633.55C190.277 633.897 189.63 634.07 188.89 634.07C188.397 634.07 187.94 633.983 187.52 633.81C187.107 633.637 186.74 633.39 186.42 633.07C186.107 632.75 185.863 632.373 185.69 631.94C185.517 631.5 185.43 631.02 185.43 630.5ZM197.536 629.07C197.536 628.65 197.413 628.317 197.166 628.07C196.92 627.823 196.516 627.7 195.956 627.7H194.296V630.44H195.966C196.333 630.44 196.63 630.383 196.856 630.27C197.09 630.157 197.26 629.997 197.366 629.79C197.48 629.583 197.536 629.343 197.536 629.07ZM195.956 627C196.503 627 196.95 627.093 197.296 627.28C197.65 627.467 197.913 627.717 198.086 628.03C198.26 628.337 198.346 628.683 198.346 629.07C198.346 629.343 198.3 629.603 198.206 629.85C198.12 630.097 197.98 630.317 197.786 630.51C197.593 630.703 197.346 630.857 197.046 630.97C196.746 631.083 196.386 631.14 195.966 631.14H194.296V634H193.496V627H195.956ZM196.536 630.84L198.476 634H197.566L195.676 630.84H196.536ZM200.546 634H199.746V627H200.626L203.226 632.9L205.816 627H206.686V634H205.886V628.58L203.506 634H202.936L200.546 628.58V634ZM211.262 629H212.002V634H211.262V629ZM211.642 628C211.488 628 211.362 627.95 211.262 627.85C211.162 627.75 211.112 627.627 211.112 627.48C211.112 627.327 211.162 627.2 211.262 627.1C211.362 627 211.488 626.95 211.642 626.95C211.782 626.95 211.902 627 212.002 627.1C212.108 627.2 212.162 627.327 212.162 627.48C212.162 627.627 212.108 627.75 212.002 627.85C211.902 627.95 211.782 628 211.642 628ZM213.69 629H214.38L214.43 629.72C214.577 629.48 214.773 629.29 215.02 629.15C215.273 629.003 215.573 628.93 215.92 628.93C216.273 628.93 216.593 629.017 216.88 629.19C217.173 629.357 217.4 629.607 217.56 629.94C217.713 629.6 217.947 629.347 218.26 629.18C218.573 629.013 218.92 628.93 219.3 628.93C219.673 628.93 220.003 629.013 220.29 629.18C220.577 629.34 220.8 629.583 220.96 629.91C221.12 630.23 221.2 630.633 221.2 631.12V634H220.45V631.21C220.45 630.69 220.337 630.297 220.11 630.03C219.89 629.757 219.573 629.62 219.16 629.62C218.74 629.62 218.407 629.767 218.16 630.06C217.913 630.347 217.79 630.773 217.79 631.34V634H217.04V631.21C217.04 630.69 216.933 630.297 216.72 630.03C216.507 629.757 216.193 629.62 215.78 629.62C215.36 629.62 215.03 629.767 214.79 630.06C214.557 630.347 214.44 630.773 214.44 631.34V634H213.69V629ZM223.325 632.99L223.405 632.98V636H222.655V629H223.345L223.395 629.93C223.548 629.65 223.775 629.413 224.075 629.22C224.375 629.027 224.751 628.93 225.205 628.93C225.638 628.93 226.028 629.037 226.375 629.25C226.721 629.457 226.995 629.753 227.195 630.14C227.395 630.52 227.495 630.973 227.495 631.5C227.495 632.02 227.398 632.473 227.205 632.86C227.018 633.24 226.751 633.537 226.405 633.75C226.065 633.963 225.665 634.07 225.205 634.07C224.725 634.07 224.328 633.967 224.015 633.76C223.701 633.553 223.471 633.297 223.325 632.99ZM226.685 631.5C226.685 630.927 226.535 630.473 226.235 630.14C225.941 629.8 225.545 629.63 225.045 629.63C224.731 629.63 224.448 629.703 224.195 629.85C223.948 629.997 223.755 630.21 223.615 630.49C223.475 630.77 223.405 631.107 223.405 631.5C223.405 631.887 223.475 632.22 223.615 632.5C223.755 632.78 223.948 632.997 224.195 633.15C224.448 633.297 224.731 633.37 225.045 633.37C225.545 633.37 225.941 633.203 226.235 632.87C226.535 632.53 226.685 632.073 226.685 631.5ZM228.719 626.8H229.469V634H228.719V626.8ZM233.095 634.07C232.628 634.07 232.211 633.957 231.845 633.73C231.485 633.503 231.201 633.193 230.995 632.8C230.788 632.407 230.685 631.957 230.685 631.45C230.685 630.963 230.788 630.53 230.995 630.15C231.201 629.77 231.485 629.473 231.845 629.26C232.205 629.04 232.615 628.93 233.075 628.93C233.528 628.93 233.931 629.03 234.285 629.23C234.645 629.43 234.925 629.707 235.125 630.06C235.325 630.413 235.418 630.817 235.405 631.27C235.405 631.343 235.401 631.42 235.395 631.5C235.388 631.58 235.381 631.667 235.375 631.76H231.505C231.518 632.073 231.595 632.35 231.735 632.59C231.875 632.83 232.058 633.02 232.285 633.16C232.518 633.293 232.781 633.36 233.075 633.36C233.461 633.36 233.788 633.287 234.055 633.14C234.328 632.993 234.525 632.783 234.645 632.51L235.295 632.77C235.095 633.19 234.805 633.513 234.425 633.74C234.045 633.96 233.601 634.07 233.095 634.07ZM234.585 631.11C234.591 630.823 234.528 630.57 234.395 630.35C234.268 630.13 234.088 629.957 233.855 629.83C233.621 629.703 233.351 629.64 233.045 629.64C232.778 629.64 232.535 629.703 232.315 629.83C232.095 629.957 231.911 630.133 231.765 630.36C231.625 630.58 231.541 630.83 231.515 631.11H234.585ZM236.639 629H237.329L237.379 629.72C237.526 629.48 237.722 629.29 237.969 629.15C238.222 629.003 238.522 628.93 238.869 628.93C239.222 628.93 239.542 629.017 239.829 629.19C240.122 629.357 240.349 629.607 240.509 629.94C240.662 629.6 240.896 629.347 241.209 629.18C241.522 629.013 241.869 628.93 242.249 628.93C242.622 628.93 242.952 629.013 243.239 629.18C243.526 629.34 243.749 629.583 243.909 629.91C244.069 630.23 244.149 630.633 244.149 631.12V634H243.399V631.21C243.399 630.69 243.286 630.297 243.059 630.03C242.839 629.757 242.522 629.62 242.109 629.62C241.689 629.62 241.356 629.767 241.109 630.06C240.862 630.347 240.739 630.773 240.739 631.34V634H239.989V631.21C239.989 630.69 239.882 630.297 239.669 630.03C239.456 629.757 239.142 629.62 238.729 629.62C238.309 629.62 237.979 629.767 237.739 630.06C237.506 630.347 237.389 630.773 237.389 631.34V634H236.639V629ZM247.704 634.07C247.237 634.07 246.821 633.957 246.454 633.73C246.094 633.503 245.811 633.193 245.604 632.8C245.397 632.407 245.294 631.957 245.294 631.45C245.294 630.963 245.397 630.53 245.604 630.15C245.811 629.77 246.094 629.473 246.454 629.26C246.814 629.04 247.224 628.93 247.684 628.93C248.137 628.93 248.541 629.03 248.894 629.23C249.254 629.43 249.534 629.707 249.734 630.06C249.934 630.413 250.027 630.817 250.014 631.27C250.014 631.343 250.011 631.42 250.004 631.5C249.997 631.58 249.991 631.667 249.984 631.76H246.114C246.127 632.073 246.204 632.35 246.344 632.59C246.484 632.83 246.667 633.02 246.894 633.16C247.127 633.293 247.391 633.36 247.684 633.36C248.071 633.36 248.397 633.287 248.664 633.14C248.937 632.993 249.134 632.783 249.254 632.51L249.904 632.77C249.704 633.19 249.414 633.513 249.034 633.74C248.654 633.96 248.211 634.07 247.704 634.07ZM249.194 631.11C249.201 630.823 249.137 630.57 249.004 630.35C248.877 630.13 248.697 629.957 248.464 629.83C248.231 629.703 247.961 629.64 247.654 629.64C247.387 629.64 247.144 629.703 246.924 629.83C246.704 629.957 246.521 630.133 246.374 630.36C246.234 630.58 246.151 630.83 246.124 631.11H249.194ZM251.249 629H251.939L251.979 629.71C252.139 629.463 252.349 629.273 252.609 629.14C252.869 629 253.172 628.93 253.519 628.93C253.899 628.93 254.232 629.013 254.519 629.18C254.805 629.34 255.029 629.583 255.189 629.91C255.349 630.23 255.429 630.633 255.429 631.12V634H254.679V631.21C254.679 630.69 254.565 630.297 254.339 630.03C254.119 629.757 253.799 629.62 253.379 629.62C252.945 629.62 252.605 629.763 252.359 630.05C252.119 630.337 251.999 630.76 251.999 631.32V634H251.249V629ZM257.203 629V627.6H257.953V629H259.283V629.7H257.953V632.39C257.953 632.697 258.017 632.92 258.143 633.06C258.277 633.2 258.443 633.283 258.643 633.31C258.85 633.337 259.063 633.337 259.283 633.31V633.96C259.023 634.02 258.767 634.037 258.513 634.01C258.267 633.983 258.043 633.91 257.843 633.79C257.65 633.663 257.493 633.487 257.373 633.26C257.26 633.033 257.203 632.743 257.203 632.39V629.7H256.453V629H257.203ZM263.529 634L263.469 633.1C263.329 633.407 263.122 633.647 262.849 633.82C262.576 633.987 262.229 634.07 261.809 634.07C261.449 634.07 261.142 634.013 260.889 633.9C260.636 633.787 260.439 633.627 260.299 633.42C260.166 633.207 260.099 632.957 260.099 632.67C260.099 632.25 260.256 631.907 260.569 631.64C260.882 631.367 261.336 631.2 261.929 631.14L263.469 630.97V630.57C263.469 630.29 263.366 630.067 263.159 629.9C262.952 629.727 262.672 629.64 262.319 629.64C261.972 629.64 261.682 629.72 261.449 629.88C261.222 630.04 261.066 630.27 260.979 630.57L260.299 630.33C260.432 629.89 260.676 629.547 261.029 629.3C261.389 629.053 261.826 628.93 262.339 628.93C262.932 628.93 263.392 629.083 263.719 629.39C264.052 629.69 264.219 630.1 264.219 630.62V634H263.529ZM263.469 631.61L261.919 631.79C261.586 631.83 261.332 631.923 261.159 632.07C260.986 632.21 260.899 632.397 260.899 632.63C260.899 632.863 260.982 633.05 261.149 633.19C261.322 633.33 261.569 633.4 261.889 633.4C262.256 633.4 262.556 633.327 262.789 633.18C263.022 633.033 263.192 632.837 263.299 632.59C263.412 632.337 263.469 632.063 263.469 631.77V631.61ZM266.002 629V627.6H266.752V629H268.082V629.7H266.752V632.39C266.752 632.697 266.815 632.92 266.942 633.06C267.075 633.2 267.242 633.283 267.442 633.31C267.649 633.337 267.862 633.337 268.082 633.31V633.96C267.822 634.02 267.565 634.037 267.312 634.01C267.065 633.983 266.842 633.91 266.642 633.79C266.449 633.663 266.292 633.487 266.172 633.26C266.059 633.033 266.002 632.743 266.002 632.39V629.7H265.252V629H266.002ZM269.348 629H270.088V634H269.348V629ZM269.728 628C269.574 628 269.448 627.95 269.348 627.85C269.248 627.75 269.198 627.627 269.198 627.48C269.198 627.327 269.248 627.2 269.348 627.1C269.448 627 269.574 626.95 269.728 626.95C269.868 626.95 269.988 627 270.088 627.1C270.194 627.2 270.248 627.327 270.248 627.48C270.248 627.627 270.194 627.75 270.088 627.85C269.988 627.95 269.868 628 269.728 628ZM273.936 634.07C273.463 634.07 273.039 633.967 272.666 633.76C272.293 633.553 271.999 633.26 271.786 632.88C271.573 632.493 271.466 632.037 271.466 631.51C271.466 630.977 271.573 630.517 271.786 630.13C272.006 629.743 272.303 629.447 272.676 629.24C273.056 629.033 273.483 628.93 273.956 628.93C274.429 628.93 274.853 629.033 275.226 629.24C275.606 629.447 275.903 629.743 276.116 630.13C276.336 630.51 276.446 630.963 276.446 631.49C276.446 632.023 276.336 632.483 276.116 632.87C275.896 633.257 275.596 633.553 275.216 633.76C274.836 633.967 274.409 634.07 273.936 634.07ZM273.926 633.36C274.219 633.36 274.496 633.297 274.756 633.17C275.016 633.037 275.226 632.833 275.386 632.56C275.553 632.28 275.636 631.927 275.636 631.5C275.636 631.067 275.556 630.713 275.396 630.44C275.236 630.167 275.026 629.967 274.766 629.84C274.513 629.707 274.239 629.64 273.946 629.64C273.653 629.64 273.379 629.707 273.126 629.84C272.873 629.967 272.666 630.17 272.506 630.45C272.353 630.723 272.276 631.073 272.276 631.5C272.276 631.933 272.353 632.287 272.506 632.56C272.659 632.833 272.859 633.037 273.106 633.17C273.359 633.297 273.633 633.36 273.926 633.36ZM277.674 629H278.364L278.404 629.71C278.564 629.463 278.774 629.273 279.034 629.14C279.294 629 279.598 628.93 279.944 628.93C280.324 628.93 280.658 629.013 280.944 629.18C281.231 629.34 281.454 629.583 281.614 629.91C281.774 630.23 281.854 630.633 281.854 631.12V634H281.104V631.21C281.104 630.69 280.991 630.297 280.764 630.03C280.544 629.757 280.224 629.62 279.804 629.62C279.371 629.62 279.031 629.763 278.784 630.05C278.544 630.337 278.424 630.76 278.424 631.32V634H277.674V629Z" fill="#ECECEC"/>
<g clip-path="url(#clip1_608_3103)">
<path d="M164.5 43.4805C84.5362 43.4805 19.4805 108.536 19.4805 188.5C19.4805 268.464 84.5362 333.52 164.5 333.52C244.464 333.52 309.52 268.464 309.52 188.5C309.52 108.536 244.464 43.4805 164.5 43.4805ZM252.583 151.213C239.216 148.169 224.258 145.906 208.56 144.44C207.095 128.743 204.832 113.785 201.788 100.418C215.528 103.246 228.34 107.593 239.821 113.181C245.409 124.662 249.756 137.473 252.583 151.213ZM258.806 124.407C274.567 135.658 286.231 149.705 292.087 165.37C285.232 161.366 276.614 157.875 266.709 154.905C264.908 144.331 262.26 134.11 258.806 124.407ZM256.33 188.5C256.33 196.341 255.848 204.022 254.929 211.49C242.308 214.716 227.077 217.43 209.605 219.192C210.246 209.086 210.57 198.784 210.57 188.5C210.57 178.215 210.246 167.913 209.605 157.807C227.077 159.569 242.308 162.283 254.929 165.509C255.848 172.977 256.33 180.659 256.33 188.5ZM164.5 221.375C153.312 221.375 142.69 220.997 132.687 220.313C132.003 210.311 131.625 199.688 131.625 188.5C131.625 177.312 132.003 166.689 132.687 156.686C142.69 156.002 153.312 155.625 164.5 155.625C175.688 155.625 186.311 156.002 196.314 156.686C196.998 166.689 197.375 177.312 197.375 188.5C197.375 199.688 196.998 210.31 196.314 220.313C186.312 220.997 175.688 221.375 164.5 221.375ZM195.193 233.604C193.431 251.076 190.717 266.307 187.491 278.928C180.023 279.847 172.341 280.329 164.5 280.329C156.66 280.329 148.978 279.847 141.51 278.928C138.284 266.307 135.57 251.076 133.808 233.604C143.914 234.245 154.216 234.569 164.5 234.569C174.785 234.569 185.087 234.245 195.193 233.604ZM72.6713 188.5C72.6713 180.659 73.1532 172.977 74.0716 165.509C86.6934 162.283 101.925 159.569 119.396 157.807C118.755 167.913 118.431 178.215 118.431 188.5C118.431 198.784 118.755 209.086 119.396 219.192C101.925 217.43 86.6934 214.716 74.0716 211.49C73.1531 204.022 72.6713 196.341 72.6713 188.5ZM133.808 143.395C135.57 125.924 138.284 110.693 141.51 98.0716C148.978 97.1531 156.66 96.6713 164.501 96.6713C172.341 96.6713 180.023 97.1532 187.491 98.0716C190.717 110.693 193.431 125.924 195.193 143.395C185.087 142.754 174.785 142.43 164.501 142.43C154.216 142.43 143.914 142.754 133.808 143.395ZM198.096 86.2915C195.126 76.386 191.635 67.7683 187.63 60.9127C203.296 66.7689 217.344 78.4331 228.595 94.1952C218.891 90.7412 208.67 88.0932 198.096 86.2915ZM183.46 84.3651C177.222 83.781 170.893 83.4772 164.5 83.4772C158.108 83.4772 151.78 83.781 145.541 84.3651C151.594 66.5287 158.629 56.6745 164.5 56.6745C170.372 56.6746 177.407 66.5287 183.46 84.3651ZM141.371 60.9127C137.367 67.7684 133.875 76.3861 130.905 86.2915C120.331 88.0932 110.11 90.7412 100.407 94.1951C111.658 78.4331 125.705 66.7689 141.371 60.9127ZM127.213 100.418C124.17 113.785 121.906 128.743 120.441 144.44C104.743 145.906 89.7852 148.169 76.4182 151.213C79.2457 137.473 83.5923 124.662 89.1804 113.181C100.662 107.593 113.473 103.246 127.213 100.418ZM62.292 154.904C52.3866 157.874 43.7684 161.366 36.9128 165.37C42.7694 149.705 54.4331 135.658 70.1952 124.407C66.7412 134.109 64.0932 144.33 62.292 154.904ZM60.3655 169.54C59.781 175.779 59.4772 182.107 59.4772 188.5C59.4772 194.892 59.781 201.221 60.3655 207.459C42.5287 201.406 32.6745 194.371 32.6745 188.5C32.6745 182.628 42.5287 175.593 60.3655 169.54ZM62.292 222.095C64.0932 232.669 66.7412 242.891 70.1952 252.593C54.4331 241.343 42.7694 227.295 36.9127 211.629C43.7684 215.634 52.3861 219.125 62.292 222.095ZM76.4182 225.787C89.7852 228.831 104.743 231.094 120.441 232.559C121.907 248.257 124.17 263.215 127.213 276.582C113.473 273.755 100.662 269.408 89.1809 263.82C83.5927 252.338 79.2457 239.527 76.4182 225.787ZM130.906 290.708C133.876 300.614 137.367 309.232 141.371 316.088C125.705 310.231 111.658 298.567 100.407 282.805C110.11 286.259 120.331 288.907 130.906 290.708ZM145.541 292.635C151.78 293.219 158.108 293.523 164.5 293.523C170.893 293.523 177.222 293.219 183.46 292.635C177.407 310.472 170.372 320.325 164.5 320.325C158.629 320.325 151.594 310.472 145.541 292.635ZM187.63 316.088C191.635 309.232 195.126 300.614 198.096 290.708C208.67 288.907 218.891 286.259 228.594 282.805C217.343 298.567 203.296 310.231 187.63 316.088ZM201.788 276.582C204.832 263.215 207.095 248.257 208.56 232.559C224.258 231.094 239.216 228.831 252.583 225.786C249.756 239.527 245.409 252.338 239.821 263.819C228.339 269.408 215.528 273.755 201.788 276.582ZM266.709 222.095C276.614 219.125 285.232 215.634 292.088 211.629C286.231 227.295 274.567 241.342 258.806 252.593C262.26 242.89 264.908 232.669 266.709 222.095ZM268.636 207.459C269.22 201.221 269.524 194.892 269.524 188.5C269.524 182.107 269.22 175.779 268.636 169.541C286.472 175.593 296.325 182.628 296.325 188.5C296.325 194.371 286.472 201.406 268.636 207.459ZM279.797 124.653C275.664 120.753 271.133 117.032 266.202 113.526C260.987 109.818 255.445 106.431 249.627 103.374C246.57 97.5563 243.183 92.0135 239.475 86.7979C235.969 81.8673 232.249 77.3366 228.348 73.204C249.926 85.2002 267.801 103.075 279.797 124.653ZM100.653 73.2034C96.7529 77.3366 93.0324 81.8673 89.5261 86.7979C85.8178 92.0134 82.4312 97.5559 79.3743 103.374C73.5563 106.431 68.0135 109.818 62.7979 113.526C57.8673 117.032 53.3361 120.753 49.203 124.653C61.1997 103.075 79.0752 85.2002 100.653 73.2034ZM49.2039 252.348C53.3371 256.248 57.8678 259.968 62.7979 263.474C68.0134 267.183 73.5563 270.569 79.3748 273.626C82.4316 279.445 85.8178 284.987 89.5261 290.202C93.0323 295.133 96.7529 299.664 100.653 303.797C79.0757 291.8 61.2007 273.925 49.2039 252.348ZM228.348 303.797C232.248 299.663 235.969 295.133 239.475 290.202C243.183 284.987 246.57 279.444 249.627 273.626C255.445 270.569 260.987 267.182 266.202 263.474C271.133 259.968 275.663 256.248 279.796 252.348C267.8 273.925 249.925 291.8 228.348 303.797Z" fill="#1244C5"/>
</g>
</g>
<defs>
<clipPath id="clip0_608_3103">
<rect width="328" height="708" fill="white"/>
</clipPath>
<clipPath id="clip1_608_3103">
<rect width="297" height="297" fill="white" transform="translate(16 40)"/>
</clipPath>
</defs>
</svg>
