<svg width="328" height="708" viewBox="0 0 328 708" fill="none" xmlns="http://www.w3.org/2000/svg">
<g clip-path="url(#clip0_608_3411)">
<rect width="328" height="708" fill="#FF7C52"/>
<path d="M30.16 498H26.16V470H30.56L40.52 492.68L50.44 470H54.8V498H50.84V477.76L41.96 498H39.04L30.16 477.76V498ZM73.0409 498L72.7209 495.08C72.1076 496.093 71.3076 496.88 70.3209 497.44C69.3609 497.973 68.1076 498.24 66.5609 498.24C65.1209 498.24 63.8943 498.013 62.8809 497.56C61.8676 497.08 61.0809 496.427 60.5209 495.6C59.9876 494.747 59.7209 493.76 59.7209 492.64C59.7209 490.96 60.3476 489.573 61.6009 488.48C62.8543 487.36 64.6676 486.667 67.0409 486.4L72.7209 485.76V484.2C72.7209 483.347 72.3743 482.627 71.6809 482.04C70.9876 481.427 69.9876 481.12 68.6809 481.12C67.4543 481.12 66.4143 481.413 65.5609 482C64.7076 482.56 64.1343 483.4 63.8409 484.52L60.4809 483.32C60.9876 481.56 61.9743 480.187 63.4409 479.2C64.9343 478.213 66.7343 477.72 68.8409 477.72C71.3476 477.72 73.2543 478.347 74.5609 479.6C75.8676 480.853 76.5209 482.507 76.5209 484.56V498H73.0409ZM72.7209 488.84L67.2409 489.52C66.0676 489.68 65.1876 490.013 64.6009 490.52C64.0143 491 63.7209 491.64 63.7209 492.44C63.7209 493.187 64.0009 493.813 64.5609 494.32C65.1476 494.8 65.9609 495.04 67.0009 495.04C68.2809 495.04 69.3476 494.8 70.2009 494.32C71.0543 493.84 71.6809 493.173 72.0809 492.32C72.5076 491.44 72.7209 490.427 72.7209 489.28V488.84ZM81.9347 478H85.3747L85.6147 480.68C86.1747 479.987 86.8147 479.413 87.5347 478.96C88.2814 478.48 89.0814 478.147 89.9347 477.96C90.8147 477.773 91.7214 477.787 92.6547 478V481.56C91.7747 481.347 90.9214 481.32 90.0947 481.48C89.268 481.64 88.5214 481.987 87.8547 482.52C87.2147 483.027 86.6947 483.707 86.2947 484.56C85.8947 485.413 85.6947 486.44 85.6947 487.64V498H81.9347V478ZM96.4659 469.2H100.266V486.36H101.906L109.386 478H114.506L105.226 488L114.546 498H109.386L101.906 489.6H100.266V498H96.4659V469.2ZM125.615 498.28C123.695 498.28 121.988 497.84 120.495 496.96C119.028 496.053 117.868 494.813 117.015 493.24C116.188 491.667 115.775 489.867 115.775 487.84C115.775 485.893 116.188 484.16 117.015 482.64C117.841 481.12 118.975 479.92 120.415 479.04C121.881 478.16 123.535 477.72 125.375 477.72C127.241 477.72 128.895 478.133 130.335 478.96C131.775 479.76 132.895 480.893 133.695 482.36C134.495 483.8 134.881 485.467 134.855 487.36C134.855 487.68 134.841 488.013 134.815 488.36C134.788 488.68 134.748 489.04 134.695 489.44H119.895C119.975 490.507 120.268 491.453 120.775 492.28C121.308 493.08 121.975 493.707 122.775 494.16C123.601 494.613 124.535 494.84 125.575 494.84C126.908 494.84 128.068 494.587 129.055 494.08C130.041 493.547 130.735 492.84 131.135 491.96L134.415 493.12C133.615 494.747 132.441 496.013 130.895 496.92C129.375 497.827 127.615 498.28 125.615 498.28ZM130.735 486.2C130.735 485.24 130.495 484.373 130.015 483.6C129.535 482.827 128.881 482.227 128.055 481.8C127.255 481.347 126.348 481.12 125.335 481.12C124.428 481.12 123.588 481.347 122.815 481.8C122.068 482.227 121.428 482.827 120.895 483.6C120.388 484.347 120.068 485.213 119.935 486.2H130.735ZM140.09 478V472.4H143.89V478H148.89V481.36H143.89V491.2C143.89 492.427 144.13 493.293 144.61 493.8C145.116 494.307 145.743 494.6 146.49 494.68C147.263 494.733 148.063 494.707 148.89 494.6V497.84C147.796 498.08 146.716 498.147 145.65 498.04C144.61 497.96 143.663 497.667 142.81 497.16C141.983 496.653 141.316 495.92 140.81 494.96C140.33 493.973 140.09 492.72 140.09 491.2V481.36H137.21V478H140.09ZM153.707 478H157.507V498H153.707V478ZM155.627 474.48C154.907 474.48 154.307 474.24 153.827 473.76C153.347 473.28 153.107 472.693 153.107 472C153.107 471.28 153.347 470.68 153.827 470.2C154.307 469.693 154.907 469.44 155.627 469.44C156.32 469.44 156.907 469.693 157.387 470.2C157.893 470.68 158.147 471.28 158.147 472C158.147 472.693 157.893 473.28 157.387 473.76C156.907 474.24 156.32 474.48 155.627 474.48ZM163.81 478H167.25L167.49 480.32C168.13 479.493 168.943 478.853 169.93 478.4C170.916 477.947 172.01 477.72 173.21 477.72C174.756 477.72 176.09 478.053 177.21 478.72C178.356 479.36 179.236 480.32 179.85 481.6C180.49 482.88 180.81 484.48 180.81 486.4V498H177.05V486.88C177.05 485.013 176.65 483.6 175.85 482.64C175.076 481.653 173.943 481.16 172.45 481.16C170.903 481.16 169.703 481.667 168.85 482.68C167.996 483.667 167.57 485.133 167.57 487.08V498H163.81V478ZM201.232 478H204.672V494.72C204.672 497.067 204.112 499.08 202.992 500.76C201.872 502.44 200.258 503.733 198.152 504.64C196.072 505.547 193.552 506 190.592 506L189.992 502.68C193.565 502.6 196.272 501.88 198.112 500.52C199.952 499.187 200.872 497.253 200.872 494.72V494.52L201.312 494.56C200.672 495.573 199.752 496.453 198.552 497.2C197.378 497.92 195.912 498.28 194.152 498.28C192.365 498.28 190.778 497.853 189.392 497C188.032 496.147 186.965 494.947 186.192 493.4C185.445 491.853 185.072 490.053 185.072 488C185.072 485.947 185.445 484.147 186.192 482.6C186.965 481.053 188.032 479.853 189.392 479C190.778 478.147 192.365 477.72 194.152 477.72C195.245 477.72 196.218 477.867 197.072 478.16C197.952 478.453 198.712 478.853 199.352 479.36C199.992 479.84 200.525 480.387 200.952 481L201.232 478ZM189.112 488C189.112 490.053 189.645 491.707 190.712 492.96C191.805 494.213 193.258 494.84 195.072 494.84C196.138 494.84 197.112 494.573 197.992 494.04C198.872 493.48 199.565 492.693 200.072 491.68C200.605 490.64 200.872 489.413 200.872 488C200.872 486.56 200.605 485.333 200.072 484.32C199.565 483.307 198.858 482.533 197.952 482C197.072 481.44 196.112 481.16 195.072 481.16C193.258 481.16 191.805 481.787 190.712 483.04C189.645 484.293 189.112 485.947 189.112 488ZM28.12 539.68C28.3067 540.48 28.6267 541.107 29.08 541.56C29.5333 542.013 30.0667 542.347 30.68 542.56C31.32 542.747 31.9867 542.84 32.68 542.84C33.88 542.84 34.8133 542.6 35.48 542.12C36.1467 541.64 36.48 541.04 36.48 540.32C36.48 539.707 36.2667 539.227 35.84 538.88C35.44 538.507 34.8933 538.213 34.2 538C33.5333 537.787 32.8133 537.587 32.04 537.4C31.3467 537.213 30.5867 537 29.76 536.76C28.96 536.52 28.2 536.2 27.48 535.8C26.7867 535.373 26.2133 534.84 25.76 534.2C25.3067 533.533 25.08 532.693 25.08 531.68C25.08 530.48 25.4 529.44 26.04 528.56C26.7067 527.653 27.6133 526.96 28.76 526.48C29.9333 525.973 31.2533 525.72 32.72 525.72C34.4267 525.72 35.92 526.093 37.2 526.84C38.5067 527.56 39.4533 528.653 40.04 530.12L36.64 531.24C36.4533 530.733 36.1467 530.32 35.72 530C35.2933 529.68 34.8 529.467 34.24 529.36C33.7067 529.227 33.1733 529.16 32.64 529.16C31.6267 529.16 30.7867 529.36 30.12 529.76C29.4533 530.16 29.12 530.747 29.12 531.52C29.12 531.947 29.2267 532.307 29.44 532.6C29.6533 532.867 29.9467 533.093 30.32 533.28C30.72 533.44 31.1867 533.587 31.72 533.72C32.2533 533.853 32.8267 534 33.44 534.16C34.24 534.4 35.0533 534.667 35.88 534.96C36.7067 535.227 37.4667 535.573 38.16 536C38.8533 536.427 39.4133 536.987 39.84 537.68C40.2667 538.373 40.4933 539.227 40.52 540.24C40.52 541.413 40.1867 542.453 39.52 543.36C38.88 544.267 37.96 544.987 36.76 545.52C35.5867 546.027 34.1867 546.28 32.56 546.28C30.5867 546.28 28.9067 545.84 27.52 544.96C26.1333 544.08 25.2 542.72 24.72 540.88L28.12 539.68ZM53.7788 546.28C51.8588 546.28 50.1521 545.84 48.6588 544.96C47.1921 544.053 46.0321 542.813 45.1788 541.24C44.3521 539.667 43.9388 537.867 43.9388 535.84C43.9388 533.893 44.3521 532.16 45.1788 530.64C46.0054 529.12 47.1388 527.92 48.5788 527.04C50.0454 526.16 51.6988 525.72 53.5388 525.72C55.4054 525.72 57.0588 526.133 58.4988 526.96C59.9388 527.76 61.0588 528.893 61.8588 530.36C62.6588 531.8 63.0454 533.467 63.0188 535.36C63.0188 535.68 63.0054 536.013 62.9788 536.36C62.9521 536.68 62.9121 537.04 62.8588 537.44H48.0588C48.1388 538.507 48.4321 539.453 48.9388 540.28C49.4721 541.08 50.1388 541.707 50.9388 542.16C51.7654 542.613 52.6988 542.84 53.7388 542.84C55.0721 542.84 56.2321 542.587 57.2188 542.08C58.2054 541.547 58.8988 540.84 59.2988 539.96L62.5788 541.12C61.7788 542.747 60.6054 544.013 59.0588 544.92C57.5388 545.827 55.7788 546.28 53.7788 546.28ZM58.8988 534.2C58.8988 533.24 58.6588 532.373 58.1788 531.6C57.6988 530.827 57.0454 530.227 56.2188 529.8C55.4188 529.347 54.5121 529.12 53.4988 529.12C52.5921 529.12 51.7521 529.347 50.9788 529.8C50.2321 530.227 49.5921 530.827 49.0588 531.6C48.5521 532.347 48.2321 533.213 48.0987 534.2H58.8988ZM67.6378 526H71.0778L71.3178 528.68C71.8778 527.987 72.5178 527.413 73.2378 526.96C73.9845 526.48 74.7845 526.147 75.6378 525.96C76.5178 525.773 77.4245 525.787 78.3578 526V529.56C77.4778 529.347 76.6245 529.32 75.7978 529.48C74.9711 529.64 74.2245 529.987 73.5578 530.52C72.9178 531.027 72.3978 531.707 71.9978 532.56C71.5978 533.413 71.3978 534.44 71.3978 535.64V546H67.6378V526ZM84.3291 526L90.0891 541.96L95.8891 526H99.8891L92.0891 546H88.0091L80.2491 526H84.3291ZM104.293 526H108.093V546H104.293V526ZM106.213 522.48C105.493 522.48 104.893 522.24 104.413 521.76C103.933 521.28 103.693 520.693 103.693 520C103.693 519.28 103.933 518.68 104.413 518.2C104.893 517.693 105.493 517.44 106.213 517.44C106.906 517.44 107.493 517.693 107.973 518.2C108.479 518.68 108.733 519.28 108.733 520C108.733 520.693 108.479 521.28 107.973 521.76C107.493 522.24 106.906 522.48 106.213 522.48ZM122.956 546.28C121.036 546.28 119.342 545.853 117.876 545C116.409 544.12 115.262 542.92 114.436 541.4C113.636 539.88 113.236 538.107 113.236 536.08C113.236 534.027 113.649 532.227 114.476 530.68C115.302 529.133 116.449 527.92 117.916 527.04C119.382 526.16 121.089 525.72 123.036 525.72C125.089 525.72 126.889 526.2 128.436 527.16C130.009 528.12 131.142 529.413 131.836 531.04L128.436 532.24C128.036 531.307 127.356 530.56 126.396 530C125.462 529.44 124.396 529.16 123.196 529.16C121.969 529.16 120.916 529.453 120.036 530.04C119.156 530.6 118.476 531.4 117.996 532.44C117.516 533.453 117.276 534.653 117.276 536.04C117.276 538.12 117.809 539.773 118.876 541C119.942 542.227 121.382 542.84 123.196 542.84C124.396 542.84 125.462 542.573 126.396 542.04C127.356 541.507 128.076 540.773 128.556 539.84L131.916 541.04C131.169 542.64 129.996 543.92 128.396 544.88C126.796 545.813 124.982 546.28 122.956 546.28ZM145.185 546.28C143.265 546.28 141.558 545.84 140.065 544.96C138.598 544.053 137.438 542.813 136.585 541.24C135.758 539.667 135.345 537.867 135.345 535.84C135.345 533.893 135.758 532.16 136.585 530.64C137.412 529.12 138.545 527.92 139.985 527.04C141.452 526.16 143.105 525.72 144.945 525.72C146.812 525.72 148.465 526.133 149.905 526.96C151.345 527.76 152.465 528.893 153.265 530.36C154.065 531.8 154.452 533.467 154.425 535.36C154.425 535.68 154.412 536.013 154.385 536.36C154.358 536.68 154.318 537.04 154.265 537.44H139.465C139.545 538.507 139.838 539.453 140.345 540.28C140.878 541.08 141.545 541.707 142.345 542.16C143.172 542.613 144.105 542.84 145.145 542.84C146.478 542.84 147.638 542.587 148.625 542.08C149.612 541.547 150.305 540.84 150.705 539.96L153.985 541.12C153.185 542.747 152.012 544.013 150.465 544.92C148.945 545.827 147.185 546.28 145.185 546.28ZM150.305 534.2C150.305 533.24 150.065 532.373 149.585 531.6C149.105 530.827 148.452 530.227 147.625 529.8C146.825 529.347 145.918 529.12 144.905 529.12C143.998 529.12 143.158 529.347 142.385 529.8C141.638 530.227 140.998 530.827 140.465 531.6C139.958 532.347 139.638 533.213 139.505 534.2H150.305ZM161.284 539.68C161.471 540.48 161.791 541.107 162.244 541.56C162.697 542.013 163.231 542.347 163.844 542.56C164.484 542.747 165.151 542.84 165.844 542.84C167.044 542.84 167.977 542.6 168.644 542.12C169.311 541.64 169.644 541.04 169.644 540.32C169.644 539.707 169.431 539.227 169.004 538.88C168.604 538.507 168.057 538.213 167.364 538C166.697 537.787 165.977 537.587 165.204 537.4C164.511 537.213 163.751 537 162.924 536.76C162.124 536.52 161.364 536.2 160.644 535.8C159.951 535.373 159.377 534.84 158.924 534.2C158.471 533.533 158.244 532.693 158.244 531.68C158.244 530.48 158.564 529.44 159.204 528.56C159.871 527.653 160.777 526.96 161.924 526.48C163.097 525.973 164.417 525.72 165.884 525.72C167.591 525.72 169.084 526.093 170.364 526.84C171.671 527.56 172.617 528.653 173.204 530.12L169.804 531.24C169.617 530.733 169.311 530.32 168.884 530C168.457 529.68 167.964 529.467 167.404 529.36C166.871 529.227 166.337 529.16 165.804 529.16C164.791 529.16 163.951 529.36 163.284 529.76C162.617 530.16 162.284 530.747 162.284 531.52C162.284 531.947 162.391 532.307 162.604 532.6C162.817 532.867 163.111 533.093 163.484 533.28C163.884 533.44 164.351 533.587 164.884 533.72C165.417 533.853 165.991 534 166.604 534.16C167.404 534.4 168.217 534.667 169.044 534.96C169.871 535.227 170.631 535.573 171.324 536C172.017 536.427 172.577 536.987 173.004 537.68C173.431 538.373 173.657 539.227 173.684 540.24C173.684 541.413 173.351 542.453 172.684 543.36C172.044 544.267 171.124 544.987 169.924 545.52C168.751 546.027 167.351 546.28 165.724 546.28C163.751 546.28 162.071 545.84 160.684 544.96C159.297 544.08 158.364 542.72 157.884 540.88L161.284 539.68Z" fill="#ECECEC"/>
<rect x="23" y="574" width="94" height="28" rx="14" fill="#953517"/>
<path d="M31.43 588.5C31.43 587.973 31.5167 587.493 31.69 587.06C31.8633 586.62 32.1067 586.243 32.42 585.93C32.74 585.61 33.1067 585.363 33.52 585.19C33.94 585.017 34.3967 584.93 34.89 584.93C35.61 584.93 36.24 585.097 36.78 585.43C37.3267 585.763 37.74 586.237 38.02 586.85L37.37 587.09C37.2167 586.763 37.0133 586.497 36.76 586.29C36.5067 586.077 36.22 585.917 35.9 585.81C35.58 585.703 35.2433 585.65 34.89 585.65C34.39 585.65 33.94 585.763 33.54 585.99C33.14 586.217 32.8233 586.543 32.59 586.97C32.3633 587.397 32.25 587.907 32.25 588.5C32.25 589.087 32.3633 589.593 32.59 590.02C32.8233 590.447 33.14 590.777 33.54 591.01C33.94 591.237 34.39 591.35 34.89 591.35C35.25 591.35 35.5933 591.293 35.92 591.18C36.2467 591.067 36.54 590.89 36.8 590.65C37.0667 590.41 37.28 590.11 37.44 589.75L38.09 589.99C37.8033 590.677 37.3833 591.197 36.83 591.55C36.2767 591.897 35.63 592.07 34.89 592.07C34.3967 592.07 33.94 591.983 33.52 591.81C33.1067 591.637 32.74 591.39 32.42 591.07C32.1067 590.75 31.8633 590.373 31.69 589.94C31.5167 589.5 31.43 589.02 31.43 588.5ZM41.5765 592.07C41.1032 592.07 40.6798 591.967 40.3065 591.76C39.9332 591.553 39.6398 591.26 39.4265 590.88C39.2132 590.493 39.1065 590.037 39.1065 589.51C39.1065 588.977 39.2132 588.517 39.4265 588.13C39.6465 587.743 39.9432 587.447 40.3165 587.24C40.6965 587.033 41.1232 586.93 41.5965 586.93C42.0698 586.93 42.4932 587.033 42.8665 587.24C43.2465 587.447 43.5432 587.743 43.7565 588.13C43.9765 588.51 44.0865 588.963 44.0865 589.49C44.0865 590.023 43.9765 590.483 43.7565 590.87C43.5365 591.257 43.2365 591.553 42.8565 591.76C42.4765 591.967 42.0498 592.07 41.5765 592.07ZM41.5665 591.36C41.8598 591.36 42.1365 591.297 42.3965 591.17C42.6565 591.037 42.8665 590.833 43.0265 590.56C43.1932 590.28 43.2765 589.927 43.2765 589.5C43.2765 589.067 43.1965 588.713 43.0365 588.44C42.8765 588.167 42.6665 587.967 42.4065 587.84C42.1532 587.707 41.8798 587.64 41.5865 587.64C41.2932 587.64 41.0198 587.707 40.7665 587.84C40.5132 587.967 40.3065 588.17 40.1465 588.45C39.9932 588.723 39.9165 589.073 39.9165 589.5C39.9165 589.933 39.9932 590.287 40.1465 590.56C40.2998 590.833 40.4998 591.037 40.7465 591.17C40.9998 591.297 41.2732 591.36 41.5665 591.36ZM45.3149 587H46.0049L46.0449 587.71C46.2049 587.463 46.4149 587.273 46.6749 587.14C46.9349 587 47.2383 586.93 47.5849 586.93C47.9649 586.93 48.2983 587.013 48.5849 587.18C48.8716 587.34 49.0949 587.583 49.2549 587.91C49.4149 588.23 49.4949 588.633 49.4949 589.12V592H48.7449V589.21C48.7449 588.69 48.6316 588.297 48.4049 588.03C48.1849 587.757 47.8649 587.62 47.4449 587.62C47.0116 587.62 46.6716 587.763 46.4249 588.05C46.1849 588.337 46.0649 588.76 46.0649 589.32V592H45.3149V587ZM51.2697 587V585.6H52.0197V587H53.3497V587.7H52.0197V590.39C52.0197 590.697 52.083 590.92 52.2097 591.06C52.343 591.2 52.5097 591.283 52.7097 591.31C52.9164 591.337 53.1297 591.337 53.3497 591.31V591.96C53.0897 592.02 52.833 592.037 52.5797 592.01C52.333 591.983 52.1097 591.91 51.9097 591.79C51.7164 591.663 51.5597 591.487 51.4397 591.26C51.3264 591.033 51.2697 590.743 51.2697 590.39V587.7H50.5197V587H51.2697ZM56.5653 592.07C56.0986 592.07 55.682 591.957 55.3153 591.73C54.9553 591.503 54.672 591.193 54.4653 590.8C54.2586 590.407 54.1553 589.957 54.1553 589.45C54.1553 588.963 54.2586 588.53 54.4653 588.15C54.672 587.77 54.9553 587.473 55.3153 587.26C55.6753 587.04 56.0853 586.93 56.5453 586.93C56.9986 586.93 57.402 587.03 57.7553 587.23C58.1153 587.43 58.3953 587.707 58.5953 588.06C58.7953 588.413 58.8886 588.817 58.8753 589.27C58.8753 589.343 58.872 589.42 58.8653 589.5C58.8586 589.58 58.852 589.667 58.8453 589.76H54.9753C54.9886 590.073 55.0653 590.35 55.2053 590.59C55.3453 590.83 55.5286 591.02 55.7553 591.16C55.9886 591.293 56.252 591.36 56.5453 591.36C56.932 591.36 57.2586 591.287 57.5253 591.14C57.7986 590.993 57.9953 590.783 58.1153 590.51L58.7653 590.77C58.5653 591.19 58.2753 591.513 57.8953 591.74C57.5153 591.96 57.072 592.07 56.5653 592.07ZM58.0553 589.11C58.062 588.823 57.9986 588.57 57.8653 588.35C57.7386 588.13 57.5586 587.957 57.3253 587.83C57.092 587.703 56.822 587.64 56.5153 587.64C56.2486 587.64 56.0053 587.703 55.7853 587.83C55.5653 587.957 55.382 588.133 55.2353 588.36C55.0953 588.58 55.012 588.83 54.9853 589.11H58.0553ZM60.1098 587H60.7998L60.8398 587.71C60.9998 587.463 61.2098 587.273 61.4698 587.14C61.7298 587 62.0332 586.93 62.3798 586.93C62.7598 586.93 63.0932 587.013 63.3798 587.18C63.6665 587.34 63.8898 587.583 64.0498 587.91C64.2098 588.23 64.2898 588.633 64.2898 589.12V592H63.5398V589.21C63.5398 588.69 63.4265 588.297 63.1998 588.03C62.9798 587.757 62.6598 587.62 62.2398 587.62C61.8065 587.62 61.4665 587.763 61.2198 588.05C60.9798 588.337 60.8598 588.76 60.8598 589.32V592H60.1098V587ZM66.0646 587V585.6H66.8146V587H68.1446V587.7H66.8146V590.39C66.8146 590.697 66.8779 590.92 67.0046 591.06C67.1379 591.2 67.3046 591.283 67.5046 591.31C67.7113 591.337 67.9246 591.337 68.1446 591.31V591.96C67.8846 592.02 67.6279 592.037 67.3746 592.01C67.1279 591.983 66.9046 591.91 66.7046 591.79C66.5113 591.663 66.3546 591.487 66.2346 591.26C66.1213 591.033 66.0646 590.743 66.0646 590.39V587.7H65.3146V587H66.0646ZM74.193 592.07C73.7063 592.07 73.2796 591.963 72.913 591.75C72.5463 591.537 72.2596 591.24 72.053 590.86C71.853 590.473 71.753 590.027 71.753 589.52C71.753 589.007 71.853 588.557 72.053 588.17C72.2596 587.777 72.5463 587.473 72.913 587.26C73.2796 587.04 73.7063 586.93 74.193 586.93C74.7063 586.93 75.1563 587.05 75.543 587.29C75.9296 587.523 76.2096 587.85 76.383 588.27L75.693 588.51C75.593 588.243 75.4096 588.033 75.143 587.88C74.883 587.72 74.5796 587.64 74.233 587.64C73.893 587.64 73.5963 587.717 73.343 587.87C73.0963 588.023 72.903 588.24 72.763 588.52C72.6296 588.8 72.563 589.13 72.563 589.51C72.563 590.07 72.713 590.52 73.013 590.86C73.313 591.193 73.713 591.36 74.213 591.36C74.553 591.36 74.8563 591.283 75.123 591.13C75.3896 590.977 75.5863 590.77 75.713 590.51L76.393 590.75C76.213 591.163 75.9296 591.487 75.543 591.72C75.1563 591.953 74.7063 592.07 74.193 592.07ZM77.6196 587H78.3096L78.3496 587.73C78.4829 587.55 78.6429 587.397 78.8296 587.27C79.0229 587.143 79.2329 587.057 79.4596 587.01C79.6929 586.957 79.9396 586.953 80.1996 587V587.75C79.9196 587.697 79.6663 587.697 79.4396 587.75C79.2196 587.803 79.0296 587.903 78.8696 588.05C78.7096 588.197 78.5863 588.383 78.4996 588.61C78.4129 588.83 78.3696 589.087 78.3696 589.38V592H77.6196V587ZM83.2255 592.07C82.7588 592.07 82.3421 591.957 81.9755 591.73C81.6155 591.503 81.3321 591.193 81.1255 590.8C80.9188 590.407 80.8155 589.957 80.8155 589.45C80.8155 588.963 80.9188 588.53 81.1255 588.15C81.3321 587.77 81.6155 587.473 81.9755 587.26C82.3355 587.04 82.7455 586.93 83.2055 586.93C83.6588 586.93 84.0621 587.03 84.4155 587.23C84.7755 587.43 85.0555 587.707 85.2555 588.06C85.4555 588.413 85.5488 588.817 85.5355 589.27C85.5355 589.343 85.5321 589.42 85.5255 589.5C85.5188 589.58 85.5121 589.667 85.5055 589.76H81.6355C81.6488 590.073 81.7255 590.35 81.8655 590.59C82.0055 590.83 82.1888 591.02 82.4155 591.16C82.6488 591.293 82.9121 591.36 83.2055 591.36C83.5921 591.36 83.9188 591.287 84.1855 591.14C84.4588 590.993 84.6555 590.783 84.7755 590.51L85.4255 590.77C85.2255 591.19 84.9355 591.513 84.5555 591.74C84.1755 591.96 83.7321 592.07 83.2255 592.07ZM84.7155 589.11C84.7221 588.823 84.6588 588.57 84.5255 588.35C84.3988 588.13 84.2188 587.957 83.9855 587.83C83.7521 587.703 83.4821 587.64 83.1755 587.64C82.9088 587.64 82.6655 587.703 82.4455 587.83C82.2255 587.957 82.0421 588.133 81.8955 588.36C81.7555 588.58 81.6721 588.83 81.6455 589.11H84.7155ZM89.9 592L89.84 591.1C89.7 591.407 89.4933 591.647 89.22 591.82C88.9467 591.987 88.6 592.07 88.18 592.07C87.82 592.07 87.5133 592.013 87.26 591.9C87.0067 591.787 86.81 591.627 86.67 591.42C86.5367 591.207 86.47 590.957 86.47 590.67C86.47 590.25 86.6267 589.907 86.94 589.64C87.2533 589.367 87.7067 589.2 88.3 589.14L89.84 588.97V588.57C89.84 588.29 89.7367 588.067 89.53 587.9C89.3233 587.727 89.0433 587.64 88.69 587.64C88.3433 587.64 88.0533 587.72 87.82 587.88C87.5933 588.04 87.4367 588.27 87.35 588.57L86.67 588.33C86.8033 587.89 87.0467 587.547 87.4 587.3C87.76 587.053 88.1967 586.93 88.71 586.93C89.3033 586.93 89.7633 587.083 90.09 587.39C90.4233 587.69 90.59 588.1 90.59 588.62V592H89.9ZM89.84 589.61L88.29 589.79C87.9567 589.83 87.7033 589.923 87.53 590.07C87.3567 590.21 87.27 590.397 87.27 590.63C87.27 590.863 87.3533 591.05 87.52 591.19C87.6933 591.33 87.94 591.4 88.26 591.4C88.6267 591.4 88.9267 591.327 89.16 591.18C89.3933 591.033 89.5633 590.837 89.67 590.59C89.7833 590.337 89.84 590.063 89.84 589.77V589.61ZM92.3732 587V585.6H93.1232V587H94.4532V587.7H93.1232V590.39C93.1232 590.697 93.1865 590.92 93.3132 591.06C93.4465 591.2 93.6132 591.283 93.8132 591.31C94.0199 591.337 94.2332 591.337 94.4532 591.31V591.96C94.1932 592.02 93.9365 592.037 93.6832 592.01C93.4365 591.983 93.2132 591.91 93.0132 591.79C92.8199 591.663 92.6632 591.487 92.5432 591.26C92.4299 591.033 92.3732 590.743 92.3732 590.39V587.7H91.6232V587H92.3732ZM95.7188 587H96.4588V592H95.7188V587ZM96.0988 586C95.9455 586 95.8188 585.95 95.7188 585.85C95.6188 585.75 95.5688 585.627 95.5688 585.48C95.5688 585.327 95.6188 585.2 95.7188 585.1C95.8188 585 95.9455 584.95 96.0988 584.95C96.2388 584.95 96.3588 585 96.4588 585.1C96.5655 585.2 96.6188 585.327 96.6188 585.48C96.6188 585.627 96.5655 585.75 96.4588 585.85C96.3588 585.95 96.2388 586 96.0988 586ZM100.307 592.07C99.8336 592.07 99.4103 591.967 99.037 591.76C98.6636 591.553 98.3703 591.26 98.157 590.88C97.9436 590.493 97.837 590.037 97.837 589.51C97.837 588.977 97.9436 588.517 98.157 588.13C98.377 587.743 98.6736 587.447 99.047 587.24C99.427 587.033 99.8536 586.93 100.327 586.93C100.8 586.93 101.224 587.033 101.597 587.24C101.977 587.447 102.274 587.743 102.487 588.13C102.707 588.51 102.817 588.963 102.817 589.49C102.817 590.023 102.707 590.483 102.487 590.87C102.267 591.257 101.967 591.553 101.587 591.76C101.207 591.967 100.78 592.07 100.307 592.07ZM100.297 591.36C100.59 591.36 100.867 591.297 101.127 591.17C101.387 591.037 101.597 590.833 101.757 590.56C101.924 590.28 102.007 589.927 102.007 589.5C102.007 589.067 101.927 588.713 101.767 588.44C101.607 588.167 101.397 587.967 101.137 587.84C100.884 587.707 100.61 587.64 100.317 587.64C100.024 587.64 99.7503 587.707 99.497 587.84C99.2436 587.967 99.037 588.17 98.877 588.45C98.7236 588.723 98.647 589.073 98.647 589.5C98.647 589.933 98.7236 590.287 98.877 590.56C99.0303 590.833 99.2303 591.037 99.477 591.17C99.7303 591.297 100.004 591.36 100.297 591.36ZM104.045 587H104.735L104.775 587.71C104.935 587.463 105.145 587.273 105.405 587.14C105.665 587 105.969 586.93 106.315 586.93C106.695 586.93 107.029 587.013 107.315 587.18C107.602 587.34 107.825 587.583 107.985 587.91C108.145 588.23 108.225 588.633 108.225 589.12V592H107.475V589.21C107.475 588.69 107.362 588.297 107.135 588.03C106.915 587.757 106.595 587.62 106.175 587.62C105.742 587.62 105.402 587.763 105.155 588.05C104.915 588.337 104.795 588.76 104.795 589.32V592H104.045V587Z" fill="#ECECEC"/>
<rect x="121" y="574" width="58" height="28" rx="14" fill="#953517"/>
<path d="M134.08 586.9C134.08 586.533 133.957 586.243 133.71 586.03C133.47 585.81 133.11 585.7 132.63 585.7H130.65V588.09H132.66C133.113 588.09 133.463 587.983 133.71 587.77C133.957 587.557 134.08 587.267 134.08 586.9ZM129.85 592V585H132.7C133.193 585 133.6 585.083 133.92 585.25C134.24 585.417 134.477 585.637 134.63 585.91C134.79 586.177 134.87 586.473 134.87 586.8C134.87 587.12 134.81 587.39 134.69 587.61C134.577 587.823 134.42 587.993 134.22 588.12C134.027 588.247 133.813 588.333 133.58 588.38V588.45C133.86 588.49 134.11 588.58 134.33 588.72C134.55 588.853 134.723 589.037 134.85 589.27C134.977 589.503 135.04 589.787 135.04 590.12C135.04 590.467 134.953 590.783 134.78 591.07C134.607 591.357 134.35 591.583 134.01 591.75C133.677 591.917 133.267 592 132.78 592H129.85ZM130.65 591.3H132.72C133.2 591.3 133.573 591.193 133.84 590.98C134.113 590.76 134.25 590.447 134.25 590.04C134.25 589.633 134.107 589.323 133.82 589.11C133.54 588.897 133.163 588.79 132.69 588.79H130.65V591.3ZM136.372 587H137.062L137.102 587.73C137.235 587.55 137.395 587.397 137.582 587.27C137.775 587.143 137.985 587.057 138.212 587.01C138.445 586.957 138.692 586.953 138.952 587V587.75C138.672 587.697 138.418 587.697 138.192 587.75C137.972 587.803 137.782 587.903 137.622 588.05C137.462 588.197 137.338 588.383 137.252 588.61C137.165 588.83 137.122 589.087 137.122 589.38V592H136.372V587ZM143.105 592L143.045 591.1C142.905 591.407 142.698 591.647 142.425 591.82C142.152 591.987 141.805 592.07 141.385 592.07C141.025 592.07 140.718 592.013 140.465 591.9C140.212 591.787 140.015 591.627 139.875 591.42C139.742 591.207 139.675 590.957 139.675 590.67C139.675 590.25 139.832 589.907 140.145 589.64C140.458 589.367 140.912 589.2 141.505 589.14L143.045 588.97V588.57C143.045 588.29 142.942 588.067 142.735 587.9C142.528 587.727 142.248 587.64 141.895 587.64C141.548 587.64 141.258 587.72 141.025 587.88C140.798 588.04 140.642 588.27 140.555 588.57L139.875 588.33C140.008 587.89 140.252 587.547 140.605 587.3C140.965 587.053 141.402 586.93 141.915 586.93C142.508 586.93 142.968 587.083 143.295 587.39C143.628 587.69 143.795 588.1 143.795 588.62V592H143.105ZM143.045 589.61L141.495 589.79C141.162 589.83 140.908 589.923 140.735 590.07C140.562 590.21 140.475 590.397 140.475 590.63C140.475 590.863 140.558 591.05 140.725 591.19C140.898 591.33 141.145 591.4 141.465 591.4C141.832 591.4 142.132 591.327 142.365 591.18C142.598 591.033 142.768 590.837 142.875 590.59C142.988 590.337 143.045 590.063 143.045 589.77V589.61ZM145.258 587H145.948L145.988 587.71C146.148 587.463 146.358 587.273 146.618 587.14C146.878 587 147.182 586.93 147.528 586.93C147.908 586.93 148.242 587.013 148.528 587.18C148.815 587.34 149.038 587.583 149.198 587.91C149.358 588.23 149.438 588.633 149.438 589.12V592H148.688V589.21C148.688 588.69 148.575 588.297 148.348 588.03C148.128 587.757 147.808 587.62 147.388 587.62C146.955 587.62 146.615 587.763 146.368 588.05C146.128 588.337 146.008 588.76 146.008 589.32V592H145.258V587ZM154.753 588.01L154.673 588.02V584.8H155.423V592H154.733L154.683 591.07C154.53 591.35 154.3 591.587 153.993 591.78C153.693 591.973 153.32 592.07 152.873 592.07C152.413 592.07 152.01 591.967 151.663 591.76C151.323 591.547 151.056 591.247 150.863 590.86C150.676 590.473 150.583 590.02 150.583 589.5C150.583 588.98 150.676 588.53 150.863 588.15C151.056 587.763 151.323 587.463 151.663 587.25C152.01 587.037 152.413 586.93 152.873 586.93C153.346 586.93 153.74 587.033 154.053 587.24C154.366 587.447 154.6 587.703 154.753 588.01ZM151.393 589.5C151.393 590.073 151.54 590.53 151.833 590.87C152.126 591.203 152.526 591.37 153.033 591.37C153.346 591.37 153.626 591.297 153.873 591.15C154.12 591.003 154.313 590.79 154.453 590.51C154.6 590.23 154.673 589.893 154.673 589.5C154.673 589.107 154.6 588.773 154.453 588.5C154.313 588.22 154.12 588.007 153.873 587.86C153.626 587.707 153.346 587.63 153.033 587.63C152.533 587.63 152.133 587.8 151.833 588.14C151.54 588.473 151.393 588.927 151.393 589.5ZM157.108 587H157.848V592H157.108V587ZM157.488 586C157.334 586 157.208 585.95 157.108 585.85C157.008 585.75 156.958 585.627 156.958 585.48C156.958 585.327 157.008 585.2 157.108 585.1C157.208 585 157.334 584.95 157.488 584.95C157.628 584.95 157.748 585 157.848 585.1C157.954 585.2 158.008 585.327 158.008 585.48C158.008 585.627 157.954 585.75 157.848 585.85C157.748 585.95 157.628 586 157.488 586ZM159.536 587H160.226L160.266 587.71C160.426 587.463 160.636 587.273 160.896 587.14C161.156 587 161.459 586.93 161.806 586.93C162.186 586.93 162.519 587.013 162.806 587.18C163.092 587.34 163.316 587.583 163.476 587.91C163.636 588.23 163.716 588.633 163.716 589.12V592H162.966V589.21C162.966 588.69 162.852 588.297 162.626 588.03C162.406 587.757 162.086 587.62 161.666 587.62C161.232 587.62 160.892 587.763 160.646 588.05C160.406 588.337 160.286 588.76 160.286 589.32V592H159.536V587ZM169.01 587H169.7V591.08C169.7 591.693 169.564 592.217 169.29 592.65C169.017 593.09 168.62 593.423 168.1 593.65C167.58 593.883 166.947 594 166.2 594L166.08 593.31C167.02 593.297 167.734 593.1 168.22 592.72C168.707 592.347 168.95 591.8 168.95 591.08V590.97L169.03 590.99C168.877 591.283 168.647 591.537 168.34 591.75C168.034 591.957 167.637 592.063 167.15 592.07C166.69 592.07 166.287 591.967 165.94 591.76C165.6 591.547 165.334 591.247 165.14 590.86C164.954 590.473 164.86 590.02 164.86 589.5C164.86 588.98 164.954 588.53 165.14 588.15C165.334 587.763 165.6 587.463 165.94 587.25C166.287 587.037 166.69 586.93 167.15 586.93C167.45 586.93 167.717 586.977 167.95 587.07C168.184 587.157 168.384 587.277 168.55 587.43C168.717 587.577 168.854 587.743 168.96 587.93L169.01 587ZM165.67 589.5C165.67 590.073 165.817 590.53 166.11 590.87C166.41 591.203 166.814 591.37 167.32 591.37C167.627 591.37 167.904 591.297 168.15 591.15C168.397 591.003 168.59 590.79 168.73 590.51C168.877 590.23 168.95 589.893 168.95 589.5C168.95 589.107 168.877 588.773 168.73 588.5C168.59 588.22 168.397 588.007 168.15 587.86C167.904 587.707 167.627 587.63 167.32 587.63C166.82 587.63 166.42 587.8 166.12 588.14C165.82 588.48 165.67 588.933 165.67 589.5Z" fill="#ECECEC"/>
<rect x="183" y="574" width="107" height="28" rx="14" fill="#953517"/>
<path d="M192.65 592H191.85V585H192.73L195.33 590.9L197.92 585H198.79V592H197.99V586.58L195.61 592H195.04L192.65 586.58V592ZM203.543 592L203.483 591.1C203.343 591.407 203.136 591.647 202.863 591.82C202.589 591.987 202.243 592.07 201.823 592.07C201.463 592.07 201.156 592.013 200.903 591.9C200.649 591.787 200.453 591.627 200.313 591.42C200.179 591.207 200.113 590.957 200.113 590.67C200.113 590.25 200.269 589.907 200.583 589.64C200.896 589.367 201.349 589.2 201.943 589.14L203.483 588.97V588.57C203.483 588.29 203.379 588.067 203.173 587.9C202.966 587.727 202.686 587.64 202.333 587.64C201.986 587.64 201.696 587.72 201.463 587.88C201.236 588.04 201.079 588.27 200.993 588.57L200.313 588.33C200.446 587.89 200.689 587.547 201.043 587.3C201.403 587.053 201.839 586.93 202.353 586.93C202.946 586.93 203.406 587.083 203.733 587.39C204.066 587.69 204.233 588.1 204.233 588.62V592H203.543ZM203.483 589.61L201.933 589.79C201.599 589.83 201.346 589.923 201.173 590.07C200.999 590.21 200.913 590.397 200.913 590.63C200.913 590.863 200.996 591.05 201.163 591.19C201.336 591.33 201.583 591.4 201.903 591.4C202.269 591.4 202.569 591.327 202.803 591.18C203.036 591.033 203.206 590.837 203.313 590.59C203.426 590.337 203.483 590.063 203.483 589.77V589.61ZM205.696 587H206.386L206.426 587.73C206.559 587.55 206.719 587.397 206.906 587.27C207.099 587.143 207.309 587.057 207.536 587.01C207.769 586.957 208.016 586.953 208.276 587V587.75C207.996 587.697 207.742 587.697 207.516 587.75C207.296 587.803 207.106 587.903 206.946 588.05C206.786 588.197 206.662 588.383 206.576 588.61C206.489 588.83 206.446 589.087 206.446 589.38V592H205.696V587ZM209.299 584.8H210.059V589.17H210.519L212.489 587H213.549L211.189 589.5L213.559 592H212.489L210.519 589.82H210.059V592H209.299V584.8ZM216.36 592.07C215.894 592.07 215.477 591.957 215.11 591.73C214.75 591.503 214.467 591.193 214.26 590.8C214.054 590.407 213.95 589.957 213.95 589.45C213.95 588.963 214.054 588.53 214.26 588.15C214.467 587.77 214.75 587.473 215.11 587.26C215.47 587.04 215.88 586.93 216.34 586.93C216.794 586.93 217.197 587.03 217.55 587.23C217.91 587.43 218.19 587.707 218.39 588.06C218.59 588.413 218.684 588.817 218.67 589.27C218.67 589.343 218.667 589.42 218.66 589.5C218.654 589.58 218.647 589.667 218.64 589.76H214.77C214.784 590.073 214.86 590.35 215 590.59C215.14 590.83 215.324 591.02 215.55 591.16C215.784 591.293 216.047 591.36 216.34 591.36C216.727 591.36 217.054 591.287 217.32 591.14C217.594 590.993 217.79 590.783 217.91 590.51L218.56 590.77C218.36 591.19 218.07 591.513 217.69 591.74C217.31 591.96 216.867 592.07 216.36 592.07ZM217.85 589.11C217.857 588.823 217.794 588.57 217.66 588.35C217.534 588.13 217.354 587.957 217.12 587.83C216.887 587.703 216.617 587.64 216.31 587.64C216.044 587.64 215.8 587.703 215.58 587.83C215.36 587.957 215.177 588.133 215.03 588.36C214.89 588.58 214.807 588.83 214.78 589.11H217.85ZM220.029 587V585.6H220.779V587H222.109V587.7H220.779V590.39C220.779 590.697 220.843 590.92 220.969 591.06C221.103 591.2 221.269 591.283 221.469 591.31C221.676 591.337 221.889 591.337 222.109 591.31V591.96C221.849 592.02 221.593 592.037 221.339 592.01C221.093 591.983 220.869 591.91 220.669 591.79C220.476 591.663 220.319 591.487 220.199 591.26C220.086 591.033 220.029 590.743 220.029 590.39V587.7H219.279V587H220.029ZM223.375 587H224.115V592H223.375V587ZM223.755 586C223.602 586 223.475 585.95 223.375 585.85C223.275 585.75 223.225 585.627 223.225 585.48C223.225 585.327 223.275 585.2 223.375 585.1C223.475 585 223.602 584.95 223.755 584.95C223.895 584.95 224.015 585 224.115 585.1C224.222 585.2 224.275 585.327 224.275 585.48C224.275 585.627 224.222 585.75 224.115 585.85C224.015 585.95 223.895 586 223.755 586ZM225.803 587H226.493L226.533 587.71C226.693 587.463 226.903 587.273 227.163 587.14C227.423 587 227.727 586.93 228.073 586.93C228.453 586.93 228.787 587.013 229.073 587.18C229.36 587.34 229.583 587.583 229.743 587.91C229.903 588.23 229.983 588.633 229.983 589.12V592H229.233V589.21C229.233 588.69 229.12 588.297 228.893 588.03C228.673 587.757 228.353 587.62 227.933 587.62C227.5 587.62 227.16 587.763 226.913 588.05C226.673 588.337 226.553 588.76 226.553 589.32V592H225.803V587ZM235.278 587H235.968V591.08C235.968 591.693 235.831 592.217 235.558 592.65C235.285 593.09 234.888 593.423 234.368 593.65C233.848 593.883 233.215 594 232.468 594L232.348 593.31C233.288 593.297 234.001 593.1 234.488 592.72C234.975 592.347 235.218 591.8 235.218 591.08V590.97L235.298 590.99C235.145 591.283 234.915 591.537 234.608 591.75C234.301 591.957 233.905 592.063 233.418 592.07C232.958 592.07 232.555 591.967 232.208 591.76C231.868 591.547 231.601 591.247 231.408 590.86C231.221 590.473 231.128 590.02 231.128 589.5C231.128 588.98 231.221 588.53 231.408 588.15C231.601 587.763 231.868 587.463 232.208 587.25C232.555 587.037 232.958 586.93 233.418 586.93C233.718 586.93 233.985 586.977 234.218 587.07C234.451 587.157 234.651 587.277 234.818 587.43C234.985 587.577 235.121 587.743 235.228 587.93L235.278 587ZM231.938 589.5C231.938 590.073 232.085 590.53 232.378 590.87C232.678 591.203 233.081 591.37 233.588 591.37C233.895 591.37 234.171 591.297 234.418 591.15C234.665 591.003 234.858 590.79 234.998 590.51C235.145 590.23 235.218 589.893 235.218 589.5C235.218 589.107 235.145 588.773 234.998 588.5C234.858 588.22 234.665 588.007 234.418 587.86C234.171 587.707 233.895 587.63 233.588 587.63C233.088 587.63 232.688 587.8 232.388 588.14C232.088 588.48 231.938 588.933 231.938 589.5ZM240.975 590.99L241.055 590.98V594H240.305V587H240.995L241.045 587.93C241.198 587.65 241.425 587.413 241.725 587.22C242.025 587.027 242.402 586.93 242.855 586.93C243.288 586.93 243.678 587.037 244.025 587.25C244.372 587.457 244.645 587.753 244.845 588.14C245.045 588.52 245.145 588.973 245.145 589.5C245.145 590.02 245.048 590.473 244.855 590.86C244.668 591.24 244.402 591.537 244.055 591.75C243.715 591.963 243.315 592.07 242.855 592.07C242.375 592.07 241.978 591.967 241.665 591.76C241.352 591.553 241.122 591.297 240.975 590.99ZM244.335 589.5C244.335 588.927 244.185 588.473 243.885 588.14C243.592 587.8 243.195 587.63 242.695 587.63C242.382 587.63 242.098 587.703 241.845 587.85C241.598 587.997 241.405 588.21 241.265 588.49C241.125 588.77 241.055 589.107 241.055 589.5C241.055 589.887 241.125 590.22 241.265 590.5C241.405 590.78 241.598 590.997 241.845 591.15C242.098 591.297 242.382 591.37 242.695 591.37C243.195 591.37 243.592 591.203 243.885 590.87C244.185 590.53 244.335 590.073 244.335 589.5ZM248.47 592.07C248.003 592.07 247.586 591.957 247.22 591.73C246.86 591.503 246.576 591.193 246.37 590.8C246.163 590.407 246.06 589.957 246.06 589.45C246.06 588.963 246.163 588.53 246.37 588.15C246.576 587.77 246.86 587.473 247.22 587.26C247.58 587.04 247.99 586.93 248.45 586.93C248.903 586.93 249.306 587.03 249.66 587.23C250.02 587.43 250.3 587.707 250.5 588.06C250.7 588.413 250.793 588.817 250.78 589.27C250.78 589.343 250.776 589.42 250.77 589.5C250.763 589.58 250.756 589.667 250.75 589.76H246.88C246.893 590.073 246.97 590.35 247.11 590.59C247.25 590.83 247.433 591.02 247.66 591.16C247.893 591.293 248.156 591.36 248.45 591.36C248.836 591.36 249.163 591.287 249.43 591.14C249.703 590.993 249.9 590.783 250.02 590.51L250.67 590.77C250.47 591.19 250.18 591.513 249.8 591.74C249.42 591.96 248.976 592.07 248.47 592.07ZM249.96 589.11C249.966 588.823 249.903 588.57 249.77 588.35C249.643 588.13 249.463 587.957 249.23 587.83C248.996 587.703 248.726 587.64 248.42 587.64C248.153 587.64 247.91 587.703 247.69 587.83C247.47 587.957 247.286 588.133 247.14 588.36C247 588.58 246.916 588.83 246.89 589.11H249.96ZM252.014 587H252.704L252.744 587.73C252.877 587.55 253.037 587.397 253.224 587.27C253.417 587.143 253.627 587.057 253.854 587.01C254.087 586.957 254.334 586.953 254.594 587V587.75C254.314 587.697 254.061 587.697 253.834 587.75C253.614 587.803 253.424 587.903 253.264 588.05C253.104 588.197 252.981 588.383 252.894 588.61C252.807 588.83 252.764 589.087 252.764 589.38V592H252.014V587ZM256.028 590.47C256.068 590.67 256.141 590.837 256.248 590.97C256.354 591.097 256.491 591.193 256.658 591.26C256.831 591.327 257.031 591.36 257.258 591.36C257.611 591.36 257.878 591.293 258.058 591.16C258.244 591.02 258.338 590.847 258.338 590.64C258.338 590.467 258.281 590.327 258.168 590.22C258.061 590.113 257.918 590.027 257.738 589.96C257.558 589.887 257.358 589.823 257.138 589.77C256.964 589.73 256.778 589.683 256.578 589.63C256.378 589.57 256.188 589.49 256.008 589.39C255.828 589.29 255.681 589.16 255.568 589C255.454 588.84 255.398 588.63 255.398 588.37C255.398 588.083 255.474 587.833 255.628 587.62C255.788 587.4 256.004 587.23 256.278 587.11C256.558 586.99 256.878 586.93 257.238 586.93C257.651 586.93 258.018 587.02 258.338 587.2C258.664 587.38 258.891 587.66 259.018 588.04L258.318 588.28C258.271 588.107 258.184 587.973 258.058 587.88C257.938 587.787 257.801 587.723 257.648 587.69C257.501 587.657 257.354 587.64 257.208 587.64C256.908 587.64 256.664 587.7 256.478 587.82C256.298 587.933 256.208 588.107 256.208 588.34C256.208 588.467 256.238 588.573 256.298 588.66C256.358 588.74 256.441 588.807 256.548 588.86C256.654 588.913 256.781 588.96 256.928 589C257.074 589.033 257.234 589.073 257.408 589.12C257.601 589.167 257.798 589.227 257.998 589.3C258.198 589.367 258.384 589.457 258.558 589.57C258.731 589.677 258.871 589.817 258.978 589.99C259.091 590.157 259.148 590.367 259.148 590.62C259.148 590.913 259.068 591.17 258.908 591.39C258.748 591.603 258.524 591.77 258.238 591.89C257.958 592.01 257.631 592.07 257.258 592.07C256.744 592.07 256.318 591.957 255.978 591.73C255.644 591.497 255.421 591.157 255.308 590.71L256.028 590.47ZM262.524 592.07C262.05 592.07 261.627 591.967 261.254 591.76C260.88 591.553 260.587 591.26 260.374 590.88C260.16 590.493 260.054 590.037 260.054 589.51C260.054 588.977 260.16 588.517 260.374 588.13C260.594 587.743 260.89 587.447 261.264 587.24C261.644 587.033 262.07 586.93 262.544 586.93C263.017 586.93 263.44 587.033 263.814 587.24C264.194 587.447 264.49 587.743 264.704 588.13C264.924 588.51 265.034 588.963 265.034 589.49C265.034 590.023 264.924 590.483 264.704 590.87C264.484 591.257 264.184 591.553 263.804 591.76C263.424 591.967 262.997 592.07 262.524 592.07ZM262.514 591.36C262.807 591.36 263.084 591.297 263.344 591.17C263.604 591.037 263.814 590.833 263.974 590.56C264.14 590.28 264.224 589.927 264.224 589.5C264.224 589.067 264.144 588.713 263.984 588.44C263.824 588.167 263.614 587.967 263.354 587.84C263.1 587.707 262.827 587.64 262.534 587.64C262.24 587.64 261.967 587.707 261.714 587.84C261.46 587.967 261.254 588.17 261.094 588.45C260.94 588.723 260.864 589.073 260.864 589.5C260.864 589.933 260.94 590.287 261.094 590.56C261.247 590.833 261.447 591.037 261.694 591.17C261.947 591.297 262.22 591.36 262.514 591.36ZM266.262 587H266.952L266.992 587.71C267.152 587.463 267.362 587.273 267.622 587.14C267.882 587 268.186 586.93 268.532 586.93C268.912 586.93 269.246 587.013 269.532 587.18C269.819 587.34 270.042 587.583 270.202 587.91C270.362 588.23 270.442 588.633 270.442 589.12V592H269.692V589.21C269.692 588.69 269.579 588.297 269.352 588.03C269.132 587.757 268.812 587.62 268.392 587.62C267.959 587.62 267.619 587.763 267.372 588.05C267.132 588.337 267.012 588.76 267.012 589.32V592H266.262V587ZM275.027 592L274.967 591.1C274.827 591.407 274.62 591.647 274.347 591.82C274.074 591.987 273.727 592.07 273.307 592.07C272.947 592.07 272.64 592.013 272.387 591.9C272.134 591.787 271.937 591.627 271.797 591.42C271.664 591.207 271.597 590.957 271.597 590.67C271.597 590.25 271.754 589.907 272.067 589.64C272.38 589.367 272.834 589.2 273.427 589.14L274.967 588.97V588.57C274.967 588.29 274.864 588.067 274.657 587.9C274.45 587.727 274.17 587.64 273.817 587.64C273.47 587.64 273.18 587.72 272.947 587.88C272.72 588.04 272.564 588.27 272.477 588.57L271.797 588.33C271.93 587.89 272.174 587.547 272.527 587.3C272.887 587.053 273.324 586.93 273.837 586.93C274.43 586.93 274.89 587.083 275.217 587.39C275.55 587.69 275.717 588.1 275.717 588.62V592H275.027ZM274.967 589.61L273.417 589.79C273.084 589.83 272.83 589.923 272.657 590.07C272.484 590.21 272.397 590.397 272.397 590.63C272.397 590.863 272.48 591.05 272.647 591.19C272.82 591.33 273.067 591.4 273.387 591.4C273.754 591.4 274.054 591.327 274.287 591.18C274.52 591.033 274.69 590.837 274.797 590.59C274.91 590.337 274.967 590.063 274.967 589.77V589.61ZM277.59 590.47C277.63 590.67 277.703 590.837 277.81 590.97C277.917 591.097 278.053 591.193 278.22 591.26C278.393 591.327 278.593 591.36 278.82 591.36C279.173 591.36 279.44 591.293 279.62 591.16C279.807 591.02 279.9 590.847 279.9 590.64C279.9 590.467 279.843 590.327 279.73 590.22C279.623 590.113 279.48 590.027 279.3 589.96C279.12 589.887 278.92 589.823 278.7 589.77C278.527 589.73 278.34 589.683 278.14 589.63C277.94 589.57 277.75 589.49 277.57 589.39C277.39 589.29 277.243 589.16 277.13 589C277.017 588.84 276.96 588.63 276.96 588.37C276.96 588.083 277.037 587.833 277.19 587.62C277.35 587.4 277.567 587.23 277.84 587.11C278.12 586.99 278.44 586.93 278.8 586.93C279.213 586.93 279.58 587.02 279.9 587.2C280.227 587.38 280.453 587.66 280.58 588.04L279.88 588.28C279.833 588.107 279.747 587.973 279.62 587.88C279.5 587.787 279.363 587.723 279.21 587.69C279.063 587.657 278.917 587.64 278.77 587.64C278.47 587.64 278.227 587.7 278.04 587.82C277.86 587.933 277.77 588.107 277.77 588.34C277.77 588.467 277.8 588.573 277.86 588.66C277.92 588.74 278.003 588.807 278.11 588.86C278.217 588.913 278.343 588.96 278.49 589C278.637 589.033 278.797 589.073 278.97 589.12C279.163 589.167 279.36 589.227 279.56 589.3C279.76 589.367 279.947 589.457 280.12 589.57C280.293 589.677 280.433 589.817 280.54 589.99C280.653 590.157 280.71 590.367 280.71 590.62C280.71 590.913 280.63 591.17 280.47 591.39C280.31 591.603 280.087 591.77 279.8 591.89C279.52 592.01 279.193 592.07 278.82 592.07C278.307 592.07 277.88 591.957 277.54 591.73C277.207 591.497 276.983 591.157 276.87 590.71L277.59 590.47Z" fill="#ECECEC"/>
<rect x="23" y="606" width="67" height="28" rx="14" fill="#953517"/>
<path d="M34.32 620.44C34.6933 620.44 34.9967 620.383 35.23 620.27C35.4633 620.157 35.6333 619.997 35.74 619.79C35.8533 619.583 35.91 619.343 35.91 619.07C35.91 618.637 35.7833 618.3 35.53 618.06C35.2833 617.82 34.88 617.7 34.32 617.7H32.65V620.44H34.32ZM36.7 619.07C36.7 619.343 36.6533 619.607 36.56 619.86C36.4733 620.107 36.3333 620.327 36.14 620.52C35.9467 620.713 35.7 620.867 35.4 620.98C35.1 621.087 34.74 621.14 34.32 621.14H32.65V624H31.85V617H34.32C34.8667 617 35.3133 617.093 35.66 617.28C36.0133 617.467 36.2733 617.717 36.44 618.03C36.6133 618.343 36.7 618.69 36.7 619.07ZM40.6227 624L40.5627 623.1C40.4227 623.407 40.216 623.647 39.9427 623.82C39.6693 623.987 39.3227 624.07 38.9027 624.07C38.5427 624.07 38.236 624.013 37.9827 623.9C37.7293 623.787 37.5327 623.627 37.3927 623.42C37.2593 623.207 37.1927 622.957 37.1927 622.67C37.1927 622.25 37.3493 621.907 37.6627 621.64C37.976 621.367 38.4293 621.2 39.0227 621.14L40.5627 620.97V620.57C40.5627 620.29 40.4593 620.067 40.2527 619.9C40.046 619.727 39.766 619.64 39.4127 619.64C39.066 619.64 38.776 619.72 38.5427 619.88C38.316 620.04 38.1593 620.27 38.0727 620.57L37.3927 620.33C37.526 619.89 37.7693 619.547 38.1227 619.3C38.4827 619.053 38.9193 618.93 39.4327 618.93C40.026 618.93 40.486 619.083 40.8127 619.39C41.146 619.69 41.3127 620.1 41.3127 620.62V624H40.6227ZM40.5627 621.61L39.0127 621.79C38.6793 621.83 38.426 621.923 38.2527 622.07C38.0793 622.21 37.9927 622.397 37.9927 622.63C37.9927 622.863 38.076 623.05 38.2427 623.19C38.416 623.33 38.6627 623.4 38.9827 623.4C39.3493 623.4 39.6493 623.327 39.8827 623.18C40.116 623.033 40.286 622.837 40.3927 622.59C40.506 622.337 40.5627 622.063 40.5627 621.77V621.61ZM42.9259 619H43.6659V624H42.9259V619ZM43.3059 618C43.1525 618 43.0259 617.95 42.9259 617.85C42.8259 617.75 42.7759 617.627 42.7759 617.48C42.7759 617.327 42.8259 617.2 42.9259 617.1C43.0259 617 43.1525 616.95 43.3059 616.95C43.4459 616.95 43.5659 617 43.6659 617.1C43.7725 617.2 43.8259 617.327 43.8259 617.48C43.8259 617.627 43.7725 617.75 43.6659 617.85C43.5659 617.95 43.4459 618 43.3059 618ZM49.214 620.01L49.134 620.02V616.8H49.884V624H49.194L49.144 623.07C48.9907 623.35 48.7607 623.587 48.454 623.78C48.154 623.973 47.7807 624.07 47.334 624.07C46.874 624.07 46.4707 623.967 46.124 623.76C45.784 623.547 45.5173 623.247 45.324 622.86C45.1373 622.473 45.044 622.02 45.044 621.5C45.044 620.98 45.1373 620.53 45.324 620.15C45.5173 619.763 45.784 619.463 46.124 619.25C46.4707 619.037 46.874 618.93 47.334 618.93C47.8073 618.93 48.2007 619.033 48.514 619.24C48.8273 619.447 49.0607 619.703 49.214 620.01ZM45.854 621.5C45.854 622.073 46.0007 622.53 46.294 622.87C46.5873 623.203 46.9873 623.37 47.494 623.37C47.8073 623.37 48.0873 623.297 48.334 623.15C48.5807 623.003 48.774 622.79 48.914 622.51C49.0607 622.23 49.134 621.893 49.134 621.5C49.134 621.107 49.0607 620.773 48.914 620.5C48.774 620.22 48.5807 620.007 48.334 619.86C48.0873 619.707 47.8073 619.63 47.494 619.63C46.994 619.63 46.594 619.8 46.294 620.14C46.0007 620.473 45.854 620.927 45.854 621.5ZM54.2212 619H54.9112L54.9612 619.72C55.1078 619.48 55.3045 619.29 55.5512 619.15C55.8045 619.003 56.1045 618.93 56.4512 618.93C56.8045 618.93 57.1245 619.017 57.4112 619.19C57.7045 619.357 57.9312 619.607 58.0912 619.94C58.2445 619.6 58.4778 619.347 58.7912 619.18C59.1045 619.013 59.4512 618.93 59.8312 618.93C60.2045 618.93 60.5345 619.013 60.8212 619.18C61.1078 619.34 61.3312 619.583 61.4912 619.91C61.6512 620.23 61.7312 620.633 61.7312 621.12V624H60.9812V621.21C60.9812 620.69 60.8678 620.297 60.6412 620.03C60.4212 619.757 60.1045 619.62 59.6912 619.62C59.2712 619.62 58.9378 619.767 58.6912 620.06C58.4445 620.347 58.3212 620.773 58.3212 621.34V624H57.5712V621.21C57.5712 620.69 57.4645 620.297 57.2512 620.03C57.0378 619.757 56.7245 619.62 56.3112 619.62C55.8912 619.62 55.5612 619.767 55.3212 620.06C55.0878 620.347 54.9712 620.773 54.9712 621.34V624H54.2212V619ZM65.286 624.07C64.8193 624.07 64.4027 623.957 64.036 623.73C63.676 623.503 63.3927 623.193 63.186 622.8C62.9793 622.407 62.876 621.957 62.876 621.45C62.876 620.963 62.9793 620.53 63.186 620.15C63.3927 619.77 63.676 619.473 64.036 619.26C64.396 619.04 64.806 618.93 65.266 618.93C65.7193 618.93 66.1227 619.03 66.476 619.23C66.836 619.43 67.116 619.707 67.316 620.06C67.516 620.413 67.6093 620.817 67.596 621.27C67.596 621.343 67.5927 621.42 67.586 621.5C67.5793 621.58 67.5727 621.667 67.566 621.76H63.696C63.7093 622.073 63.786 622.35 63.926 622.59C64.066 622.83 64.2493 623.02 64.476 623.16C64.7093 623.293 64.9727 623.36 65.266 623.36C65.6527 623.36 65.9793 623.287 66.246 623.14C66.5193 622.993 66.716 622.783 66.836 622.51L67.486 622.77C67.286 623.19 66.996 623.513 66.616 623.74C66.236 623.96 65.7927 624.07 65.286 624.07ZM66.776 621.11C66.7827 620.823 66.7193 620.57 66.586 620.35C66.4593 620.13 66.2793 619.957 66.046 619.83C65.8127 619.703 65.5427 619.64 65.236 619.64C64.9693 619.64 64.726 619.703 64.506 619.83C64.286 619.957 64.1027 620.133 63.956 620.36C63.816 620.58 63.7327 620.83 63.706 621.11H66.776ZM72.6905 620.01L72.6105 620.02V616.8H73.3605V624H72.6705L72.6205 623.07C72.4672 623.35 72.2372 623.587 71.9305 623.78C71.6305 623.973 71.2572 624.07 70.8105 624.07C70.3505 624.07 69.9472 623.967 69.6005 623.76C69.2605 623.547 68.9939 623.247 68.8005 622.86C68.6139 622.473 68.5205 622.02 68.5205 621.5C68.5205 620.98 68.6139 620.53 68.8005 620.15C68.9939 619.763 69.2605 619.463 69.6005 619.25C69.9472 619.037 70.3505 618.93 70.8105 618.93C71.2839 618.93 71.6772 619.033 71.9905 619.24C72.3039 619.447 72.5372 619.703 72.6905 620.01ZM69.3305 621.5C69.3305 622.073 69.4772 622.53 69.7705 622.87C70.0639 623.203 70.4639 623.37 70.9705 623.37C71.2839 623.37 71.5639 623.297 71.8105 623.15C72.0572 623.003 72.2505 622.79 72.3905 622.51C72.5372 622.23 72.6105 621.893 72.6105 621.5C72.6105 621.107 72.5372 620.773 72.3905 620.5C72.2505 620.22 72.0572 620.007 71.8105 619.86C71.5639 619.707 71.2839 619.63 70.9705 619.63C70.4705 619.63 70.0705 619.8 69.7705 620.14C69.4772 620.473 69.3305 620.927 69.3305 621.5ZM75.045 619H75.785V624H75.045V619ZM75.425 618C75.2717 618 75.145 617.95 75.045 617.85C74.945 617.75 74.895 617.627 74.895 617.48C74.895 617.327 74.945 617.2 75.045 617.1C75.145 617 75.2717 616.95 75.425 616.95C75.565 616.95 75.685 617 75.785 617.1C75.8917 617.2 75.945 617.327 75.945 617.48C75.945 617.627 75.8917 617.75 75.785 617.85C75.685 617.95 75.565 618 75.425 618ZM80.6031 624L80.5431 623.1C80.4031 623.407 80.1965 623.647 79.9231 623.82C79.6498 623.987 79.3031 624.07 78.8831 624.07C78.5231 624.07 78.2165 624.013 77.9631 623.9C77.7098 623.787 77.5131 623.627 77.3731 623.42C77.2398 623.207 77.1731 622.957 77.1731 622.67C77.1731 622.25 77.3298 621.907 77.6431 621.64C77.9565 621.367 78.4098 621.2 79.0031 621.14L80.5431 620.97V620.57C80.5431 620.29 80.4398 620.067 80.2331 619.9C80.0265 619.727 79.7465 619.64 79.3931 619.64C79.0465 619.64 78.7565 619.72 78.5231 619.88C78.2965 620.04 78.1398 620.27 78.0531 620.57L77.3731 620.33C77.5065 619.89 77.7498 619.547 78.1031 619.3C78.4631 619.053 78.8998 618.93 79.4131 618.93C80.0065 618.93 80.4665 619.083 80.7931 619.39C81.1265 619.69 81.2931 620.1 81.2931 620.62V624H80.6031ZM80.5431 621.61L78.9931 621.79C78.6598 621.83 78.4065 621.923 78.2331 622.07C78.0598 622.21 77.9731 622.397 77.9731 622.63C77.9731 622.863 78.0565 623.05 78.2231 623.19C78.3965 623.33 78.6431 623.4 78.9631 623.4C79.3298 623.4 79.6298 623.327 79.8631 623.18C80.0965 623.033 80.2665 622.837 80.3731 622.59C80.4865 622.337 80.5431 622.063 80.5431 621.77V621.61Z" fill="#ECECEC"/>
<rect x="94" y="606" width="36" height="28" rx="14" fill="#953517"/>
<path d="M103.24 622.22C103.28 622.4 103.363 622.58 103.49 622.76C103.623 622.933 103.803 623.08 104.03 623.2C104.263 623.313 104.56 623.37 104.92 623.37C105.433 623.37 105.813 623.25 106.06 623.01C106.307 622.77 106.43 622.487 106.43 622.16C106.43 621.9 106.36 621.687 106.22 621.52C106.08 621.353 105.89 621.217 105.65 621.11C105.41 620.997 105.14 620.897 104.84 620.81C104.573 620.737 104.307 620.657 104.04 620.57C103.78 620.477 103.543 620.363 103.33 620.23C103.117 620.09 102.947 619.91 102.82 619.69C102.693 619.47 102.63 619.197 102.63 618.87C102.63 618.477 102.723 618.137 102.91 617.85C103.097 617.557 103.36 617.33 103.7 617.17C104.04 617.01 104.437 616.93 104.89 616.93C105.283 616.93 105.627 616.987 105.92 617.1C106.213 617.213 106.457 617.373 106.65 617.58C106.85 617.78 106.997 618.013 107.09 618.28L106.38 618.55C106.333 618.397 106.243 618.25 106.11 618.11C105.977 617.963 105.803 617.843 105.59 617.75C105.377 617.657 105.133 617.61 104.86 617.61C104.593 617.61 104.35 617.657 104.13 617.75C103.917 617.843 103.747 617.977 103.62 618.15C103.493 618.323 103.43 618.533 103.43 618.78C103.43 619.047 103.503 619.26 103.65 619.42C103.803 619.573 104.003 619.7 104.25 619.8C104.503 619.893 104.78 619.983 105.08 620.07C105.353 620.157 105.617 620.25 105.87 620.35C106.13 620.45 106.36 620.573 106.56 620.72C106.767 620.867 106.93 621.05 107.05 621.27C107.17 621.49 107.23 621.76 107.23 622.08C107.23 622.433 107.147 622.763 106.98 623.07C106.813 623.37 106.56 623.613 106.22 623.8C105.887 623.98 105.457 624.07 104.93 624.07C104.49 624.07 104.103 624.003 103.77 623.87C103.437 623.73 103.163 623.543 102.95 623.31C102.737 623.077 102.59 622.81 102.51 622.51L103.24 622.22ZM113.182 617.7H109.392V620.09H112.242V620.79H109.392V623.3H113.182V624H108.592V617H113.182V617.7ZM117.756 624.07C117.263 624.07 116.803 623.983 116.376 623.81C115.956 623.637 115.586 623.393 115.266 623.08C114.953 622.76 114.706 622.383 114.526 621.95C114.353 621.51 114.266 621.027 114.266 620.5C114.266 619.973 114.353 619.493 114.526 619.06C114.706 618.62 114.953 618.243 115.266 617.93C115.586 617.61 115.956 617.363 116.376 617.19C116.803 617.017 117.263 616.93 117.756 616.93C118.243 616.93 118.696 617.017 119.116 617.19C119.543 617.363 119.913 617.61 120.226 617.93C120.539 618.243 120.783 618.62 120.956 619.06C121.136 619.493 121.226 619.973 121.226 620.5C121.226 621.027 121.136 621.51 120.956 621.95C120.783 622.383 120.539 622.76 120.226 623.08C119.913 623.393 119.543 623.637 119.116 623.81C118.696 623.983 118.243 624.07 117.756 624.07ZM117.756 623.37C118.256 623.37 118.706 623.253 119.106 623.02C119.506 622.787 119.823 622.457 120.056 622.03C120.289 621.597 120.406 621.087 120.406 620.5C120.406 619.907 120.289 619.397 120.056 618.97C119.823 618.537 119.506 618.207 119.106 617.98C118.706 617.747 118.256 617.63 117.756 617.63C117.249 617.63 116.793 617.747 116.386 617.98C115.986 618.207 115.669 618.537 115.436 618.97C115.203 619.397 115.086 619.907 115.086 620.5C115.086 621.087 115.203 621.597 115.436 622.03C115.669 622.457 115.986 622.787 116.386 623.02C116.793 623.253 117.249 623.37 117.756 623.37Z" fill="#ECECEC"/>
<rect x="134" y="606" width="83" height="28" rx="14" fill="#953517"/>
<path d="M143.65 617V623.3H146.92V624H142.85V617H143.65ZM150.065 624.07C149.599 624.07 149.182 623.957 148.815 623.73C148.455 623.503 148.172 623.193 147.965 622.8C147.759 622.407 147.655 621.957 147.655 621.45C147.655 620.963 147.759 620.53 147.965 620.15C148.172 619.77 148.455 619.473 148.815 619.26C149.175 619.04 149.585 618.93 150.045 618.93C150.499 618.93 150.902 619.03 151.255 619.23C151.615 619.43 151.895 619.707 152.095 620.06C152.295 620.413 152.389 620.817 152.375 621.27C152.375 621.343 152.372 621.42 152.365 621.5C152.359 621.58 152.352 621.667 152.345 621.76H148.475C148.489 622.073 148.565 622.35 148.705 622.59C148.845 622.83 149.029 623.02 149.255 623.16C149.489 623.293 149.752 623.36 150.045 623.36C150.432 623.36 150.759 623.287 151.025 623.14C151.299 622.993 151.495 622.783 151.615 622.51L152.265 622.77C152.065 623.19 151.775 623.513 151.395 623.74C151.015 623.96 150.572 624.07 150.065 624.07ZM151.555 621.11C151.562 620.823 151.499 620.57 151.365 620.35C151.239 620.13 151.059 619.957 150.825 619.83C150.592 619.703 150.322 619.64 150.015 619.64C149.749 619.64 149.505 619.703 149.285 619.83C149.065 619.957 148.882 620.133 148.735 620.36C148.595 620.58 148.512 620.83 148.485 621.11H151.555ZM156.74 624L156.68 623.1C156.54 623.407 156.333 623.647 156.06 623.82C155.787 623.987 155.44 624.07 155.02 624.07C154.66 624.07 154.353 624.013 154.1 623.9C153.847 623.787 153.65 623.627 153.51 623.42C153.377 623.207 153.31 622.957 153.31 622.67C153.31 622.25 153.467 621.907 153.78 621.64C154.093 621.367 154.547 621.2 155.14 621.14L156.68 620.97V620.57C156.68 620.29 156.577 620.067 156.37 619.9C156.163 619.727 155.883 619.64 155.53 619.64C155.183 619.64 154.893 619.72 154.66 619.88C154.433 620.04 154.277 620.27 154.19 620.57L153.51 620.33C153.643 619.89 153.887 619.547 154.24 619.3C154.6 619.053 155.037 618.93 155.55 618.93C156.143 618.93 156.603 619.083 156.93 619.39C157.263 619.69 157.43 620.1 157.43 620.62V624H156.74ZM156.68 621.61L155.13 621.79C154.797 621.83 154.543 621.923 154.37 622.07C154.197 622.21 154.11 622.397 154.11 622.63C154.11 622.863 154.193 623.05 154.36 623.19C154.533 623.33 154.78 623.4 155.1 623.4C155.467 623.4 155.767 623.327 156 623.18C156.233 623.033 156.403 622.837 156.51 622.59C156.623 622.337 156.68 622.063 156.68 621.77V621.61ZM162.753 620.01L162.673 620.02V616.8H163.423V624H162.733L162.683 623.07C162.53 623.35 162.3 623.587 161.993 623.78C161.693 623.973 161.32 624.07 160.873 624.07C160.413 624.07 160.01 623.967 159.663 623.76C159.323 623.547 159.056 623.247 158.863 622.86C158.676 622.473 158.583 622.02 158.583 621.5C158.583 620.98 158.676 620.53 158.863 620.15C159.056 619.763 159.323 619.463 159.663 619.25C160.01 619.037 160.413 618.93 160.873 618.93C161.346 618.93 161.74 619.033 162.053 619.24C162.366 619.447 162.6 619.703 162.753 620.01ZM159.393 621.5C159.393 622.073 159.54 622.53 159.833 622.87C160.126 623.203 160.526 623.37 161.033 623.37C161.346 623.37 161.626 623.297 161.873 623.15C162.12 623.003 162.313 622.79 162.453 622.51C162.6 622.23 162.673 621.893 162.673 621.5C162.673 621.107 162.6 620.773 162.453 620.5C162.313 620.22 162.12 620.007 161.873 619.86C161.626 619.707 161.346 619.63 161.033 619.63C160.533 619.63 160.133 619.8 159.833 620.14C159.54 620.473 159.393 620.927 159.393 621.5ZM167.76 619H168.45L168.49 619.71C168.65 619.463 168.86 619.273 169.12 619.14C169.38 619 169.684 618.93 170.03 618.93C170.41 618.93 170.744 619.013 171.03 619.18C171.317 619.34 171.54 619.583 171.7 619.91C171.86 620.23 171.94 620.633 171.94 621.12V624H171.19V621.21C171.19 620.69 171.077 620.297 170.85 620.03C170.63 619.757 170.31 619.62 169.89 619.62C169.457 619.62 169.117 619.763 168.87 620.05C168.63 620.337 168.51 620.76 168.51 621.32V624H167.76V619ZM177.485 624H176.805L176.755 623.28C176.602 623.533 176.395 623.73 176.135 623.87C175.875 624.003 175.572 624.07 175.225 624.07C174.838 624.07 174.502 623.99 174.215 623.83C173.928 623.67 173.705 623.43 173.545 623.11C173.392 622.79 173.315 622.387 173.315 621.9V619H174.055V621.82C174.055 622.333 174.165 622.723 174.385 622.99C174.612 623.25 174.935 623.38 175.355 623.38C175.782 623.38 176.118 623.243 176.365 622.97C176.618 622.69 176.745 622.27 176.745 621.71V619H177.485V624ZM179.01 619H179.7L179.74 619.73C179.874 619.55 180.034 619.397 180.22 619.27C180.414 619.143 180.624 619.057 180.85 619.01C181.084 618.957 181.33 618.953 181.59 619V619.75C181.31 619.697 181.057 619.697 180.83 619.75C180.61 619.803 180.42 619.903 180.26 620.05C180.1 620.197 179.977 620.383 179.89 620.61C179.804 620.83 179.76 621.087 179.76 621.38V624H179.01V619ZM182.934 619V617.6H183.684V619H185.014V619.7H183.684V622.39C183.684 622.697 183.747 622.92 183.874 623.06C184.007 623.2 184.174 623.283 184.374 623.31C184.58 623.337 184.794 623.337 185.014 623.31V623.96C184.754 624.02 184.497 624.037 184.244 624.01C183.997 623.983 183.774 623.91 183.574 623.79C183.38 623.663 183.224 623.487 183.104 623.26C182.99 623.033 182.934 622.743 182.934 622.39V619.7H182.184V619H182.934ZM190.219 624H189.539L189.489 623.28C189.336 623.533 189.129 623.73 188.869 623.87C188.609 624.003 188.306 624.07 187.959 624.07C187.573 624.07 187.236 623.99 186.949 623.83C186.663 623.67 186.439 623.43 186.279 623.11C186.126 622.79 186.049 622.387 186.049 621.9V619H186.789V621.82C186.789 622.333 186.899 622.723 187.119 622.99C187.346 623.25 187.669 623.38 188.089 623.38C188.516 623.38 188.853 623.243 189.099 622.97C189.353 622.69 189.479 622.27 189.479 621.71V619H190.219V624ZM191.745 619H192.435L192.475 619.73C192.608 619.55 192.768 619.397 192.955 619.27C193.148 619.143 193.358 619.057 193.585 619.01C193.818 618.957 194.065 618.953 194.325 619V619.75C194.045 619.697 193.791 619.697 193.565 619.75C193.345 619.803 193.155 619.903 192.995 620.05C192.835 620.197 192.711 620.383 192.625 620.61C192.538 620.83 192.495 621.087 192.495 621.38V624H191.745V619ZM195.498 619H196.238V624H195.498V619ZM195.878 618C195.725 618 195.598 617.95 195.498 617.85C195.398 617.75 195.348 617.627 195.348 617.48C195.348 617.327 195.398 617.2 195.498 617.1C195.598 617 195.725 616.95 195.878 616.95C196.018 616.95 196.138 617 196.238 617.1C196.345 617.2 196.398 617.327 196.398 617.48C196.398 617.627 196.345 617.75 196.238 617.85C196.138 617.95 196.018 618 195.878 618ZM197.926 619H198.616L198.656 619.71C198.816 619.463 199.026 619.273 199.286 619.14C199.546 619 199.85 618.93 200.196 618.93C200.576 618.93 200.91 619.013 201.196 619.18C201.483 619.34 201.706 619.583 201.866 619.91C202.026 620.23 202.106 620.633 202.106 621.12V624H201.356V621.21C201.356 620.69 201.243 620.297 201.016 620.03C200.796 619.757 200.476 619.62 200.056 619.62C199.623 619.62 199.283 619.763 199.036 620.05C198.796 620.337 198.676 620.76 198.676 621.32V624H197.926V619ZM207.401 619H208.091V623.08C208.091 623.693 207.954 624.217 207.681 624.65C207.408 625.09 207.011 625.423 206.491 625.65C205.971 625.883 205.338 626 204.591 626L204.471 625.31C205.411 625.297 206.124 625.1 206.611 624.72C207.098 624.347 207.341 623.8 207.341 623.08V622.97L207.421 622.99C207.268 623.283 207.038 623.537 206.731 623.75C206.424 623.957 206.028 624.063 205.541 624.07C205.081 624.07 204.678 623.967 204.331 623.76C203.991 623.547 203.724 623.247 203.531 622.86C203.344 622.473 203.251 622.02 203.251 621.5C203.251 620.98 203.344 620.53 203.531 620.15C203.724 619.763 203.991 619.463 204.331 619.25C204.678 619.037 205.081 618.93 205.541 618.93C205.841 618.93 206.108 618.977 206.341 619.07C206.574 619.157 206.774 619.277 206.941 619.43C207.108 619.577 207.244 619.743 207.351 619.93L207.401 619ZM204.061 621.5C204.061 622.073 204.208 622.53 204.501 622.87C204.801 623.203 205.204 623.37 205.711 623.37C206.018 623.37 206.294 623.297 206.541 623.15C206.788 623.003 206.981 622.79 207.121 622.51C207.268 622.23 207.341 621.893 207.341 621.5C207.341 621.107 207.268 620.773 207.121 620.5C206.981 620.22 206.788 620.007 206.541 619.86C206.294 619.707 206.018 619.63 205.711 619.63C205.211 619.63 204.811 619.8 204.511 620.14C204.211 620.48 204.061 620.933 204.061 621.5Z" fill="#ECECEC"/>
<path d="M235.923 43.4805C226.907 43.4805 218.958 48.3909 212.116 56.8634C205.272 48.3909 197.323 43.4805 188.308 43.4805C179.292 43.4805 171.343 48.3909 164.501 56.8634C157.658 48.3909 149.708 43.4805 140.693 43.4805C131.677 43.4805 123.728 48.3909 116.886 56.8634C110.043 48.3909 102.093 43.4805 93.0778 43.4805C57.8771 43.4805 38.8828 118.198 38.8828 188.5C38.8828 258.801 57.8771 333.52 93.0778 333.52C102.093 333.52 110.043 328.609 116.886 320.136C123.728 328.609 131.677 333.52 140.693 333.52C149.708 333.52 157.658 328.609 164.501 320.136C171.343 328.609 179.292 333.52 188.308 333.52C197.323 333.52 205.272 328.609 212.116 320.136C218.958 328.609 226.907 333.52 235.923 333.52C271.123 333.52 290.118 258.801 290.118 188.5C290.118 118.198 271.123 43.4805 235.923 43.4805ZM188.308 56.6407C193.606 56.6407 199.173 60.9197 204.415 68.6941C197.489 81.6574 192.095 98.7457 188.308 117.856C184.521 98.7458 179.127 81.6575 172.201 68.6941C177.443 60.9197 183.01 56.6407 188.308 56.6407ZM215.755 92.7482C224.517 118.226 229.343 152.23 229.343 188.5C229.343 224.769 224.517 258.774 215.755 284.251C214.593 287.626 213.377 290.794 212.116 293.749C210.855 290.794 209.637 287.626 208.476 284.251C199.714 258.774 194.888 224.769 194.888 188.5C194.888 152.23 199.714 118.226 208.476 92.7482C209.637 89.3721 210.855 86.2047 212.116 83.2496C213.377 86.2047 214.593 89.3721 215.755 92.7482ZM164.501 293.749C163.24 290.794 162.022 287.626 160.861 284.251C152.099 258.774 147.273 224.769 147.273 188.5C147.273 152.23 152.099 118.226 160.861 92.7482C162.022 89.3721 163.24 86.2047 164.501 83.2496C165.762 86.2047 166.978 89.3722 168.14 92.7482C176.902 118.226 181.728 152.23 181.728 188.5C181.728 224.769 176.902 258.774 168.14 284.251C166.978 287.626 165.762 290.794 164.501 293.749ZM140.693 56.6407C145.991 56.6407 151.558 60.9197 156.801 68.6941C149.874 81.6574 144.48 98.7457 140.693 117.856C136.905 98.7458 131.512 81.6575 124.586 68.6941C129.828 60.9197 135.395 56.6407 140.693 56.6407ZM116.886 293.749C115.625 290.794 114.407 287.626 113.246 284.251C104.484 258.774 99.658 224.769 99.658 188.5C99.658 152.23 104.484 118.226 113.246 92.7482C114.407 89.3721 115.625 86.2047 116.886 83.2496C118.147 86.2047 119.364 89.3722 120.525 92.7482C129.287 118.226 134.113 152.23 134.113 188.5C134.113 224.769 129.287 258.774 120.525 284.251C119.364 287.626 118.147 290.794 116.886 293.749ZM93.0778 320.359C83.6676 320.359 73.408 306.861 65.6307 284.251C56.8688 258.774 52.043 224.769 52.043 188.5C52.043 152.23 56.8688 118.226 65.6307 92.7482C73.4079 70.1392 83.6676 56.6407 93.0778 56.6407C98.3763 56.6407 103.944 60.9197 109.185 68.6941C94.3059 96.5424 86.4977 143.428 86.4977 188.5C86.4977 233.571 94.3059 280.457 109.185 308.305C103.944 316.08 98.3763 320.359 93.0778 320.359ZM140.693 320.359C135.395 320.359 129.828 316.08 124.586 308.305C131.512 295.342 136.905 278.253 140.693 259.143C144.48 278.253 149.874 295.342 156.801 308.305C151.558 316.08 145.991 320.359 140.693 320.359ZM188.308 320.359C183.01 320.359 177.443 316.08 172.201 308.305C179.127 295.342 184.52 278.253 188.308 259.143C192.095 278.253 197.489 295.342 204.415 308.305C199.173 316.08 193.606 320.359 188.308 320.359ZM235.923 320.359C230.625 320.359 225.058 316.08 219.816 308.305C234.695 280.457 242.503 233.571 242.503 188.5C242.503 143.428 234.695 96.5424 219.816 68.6941C225.058 60.9197 230.625 56.6407 235.923 56.6407C245.333 56.6407 255.593 70.1392 263.37 92.7482C272.132 118.226 276.957 152.23 276.957 188.5C276.957 224.769 272.132 258.774 263.37 284.251C255.593 306.861 245.333 320.359 235.923 320.359Z" fill="#953517"/>
</g>
<defs>
<clipPath id="clip0_608_3411">
<rect width="328" height="708" fill="white"/>
</clipPath>
</defs>
</svg>
