<svg width="57" height="56" viewBox="0 0 57 56" fill="none" xmlns="http://www.w3.org/2000/svg">
<rect x="0.600098" width="56" height="56" rx="28" fill="#202020"/>
<path d="M36.5501 37C34.4001 37 32.3044 36.5207 30.2631 35.562C28.2218 34.6033 26.4134 33.3367 24.8381 31.762C23.2628 30.1873 21.9961 28.379 21.0381 26.337C20.0801 24.295 19.6008 22.1993 19.6001 20.05C19.6001 19.75 19.7001 19.5 19.9001 19.3C20.1001 19.1 20.3501 19 20.6501 19H24.7001C24.9334 19 25.1418 19.075 25.3251 19.225C25.5084 19.375 25.6168 19.5667 25.6501 19.8L26.3001 23.3C26.3334 23.5333 26.3291 23.746 26.2871 23.938C26.2451 24.13 26.1494 24.3007 26.0001 24.45L23.6001 26.9C24.3001 28.1 25.1751 29.225 26.2251 30.275C27.2751 31.325 28.4334 32.2333 29.7001 33L32.0501 30.65C32.2001 30.5 32.3961 30.3877 32.6381 30.313C32.8801 30.2383 33.1174 30.2173 33.3501 30.25L36.8001 30.95C37.0334 31 37.2251 31.1127 37.3751 31.288C37.5251 31.4633 37.6001 31.6673 37.6001 31.9V35.95C37.6001 36.25 37.5001 36.5 37.3001 36.7C37.1001 36.9 36.8501 37 36.5501 37Z" fill="#ECECEC"/>
</svg>
