<svg width="225" height="48" viewBox="0 0 225 48" fill="none" xmlns="http://www.w3.org/2000/svg">
<circle cx="24" cy="24" r="24" fill="#202020"/>
<path d="M22.6289 16.7812H26.3984L29.6211 25.9707C29.6732 26.1335 29.7155 26.2865 29.748 26.4297C29.7806 26.5729 29.8164 26.7454 29.8555 26.9473H29.9336C29.9727 26.7454 30.0085 26.5729 30.041 26.4297C30.0801 26.2799 30.1257 26.127 30.1777 25.9707L33.4688 16.7812H36.7695L31.6133 31.0293H27.8047L22.6289 16.7812ZM37.7949 31V16.7812H47.5898V19.4082H41.2324V22.4453H46.7207V24.9746H41.2324V28.3926H47.707V31H37.7949Z" fill="#FFDE52"/>
<path d="M49.6113 31V16.7812H55.1387C56.7988 16.7812 58.1009 17.1816 59.0449 17.9824C59.9889 18.7832 60.4609 19.9128 60.4609 21.3711C60.4609 22.8555 59.9792 24.0111 59.0156 24.8379C58.0586 25.6647 56.7598 26.0781 55.1191 26.0781H53.0977V31H49.6113ZM53.0977 23.6172H54.8652C55.6335 23.6172 56.1771 23.4251 56.4961 23.041C56.8151 22.6569 56.9746 22.123 56.9746 21.4395C56.9746 20.7624 56.8151 20.2383 56.4961 19.8672C56.1771 19.4961 55.6335 19.3105 54.8652 19.3105H53.0977V23.6172ZM57.2188 31L54.0547 24.5156L57.6582 24.2715L61.1055 31H57.2188ZM65.2949 31V25.9902L60.4121 16.7812H64.2598L66.7695 21.6934C66.8607 21.8691 66.9355 22.0417 66.9941 22.2109C67.0592 22.3802 67.1211 22.5527 67.1797 22.7285H67.248C67.3066 22.5527 67.3652 22.3835 67.4238 22.2207C67.4889 22.0514 67.5671 21.8757 67.6582 21.6934L70.2168 16.7812H73.5469L68.8008 25.8047V31H65.2949ZM79.5527 31V16.7812H85.1875C86.7956 16.7812 88.0423 17.0905 88.9277 17.709C89.8197 18.321 90.2656 19.2552 90.2656 20.5117C90.2656 21.2995 90.0898 21.9505 89.7383 22.4648C89.3932 22.9727 88.9603 23.3177 88.4395 23.5V23.5391C89.0775 23.7214 89.6081 24.0957 90.0312 24.6621C90.4609 25.2285 90.6758 25.9805 90.6758 26.918C90.6758 28.207 90.1973 29.2096 89.2402 29.9258C88.2897 30.6419 87.0299 31 85.4609 31H79.5527ZM83 28.6367H85.2266C85.8971 28.6367 86.3919 28.4609 86.7109 28.1094C87.0299 27.7578 87.1895 27.2793 87.1895 26.6738C87.1895 26.0879 87.0299 25.6191 86.7109 25.2676C86.3919 24.9095 85.8971 24.7305 85.2266 24.7305H83V28.6367ZM83 22.582H84.9629C85.627 22.582 86.1055 22.4355 86.3984 22.1426C86.6914 21.8431 86.8379 21.4199 86.8379 20.873C86.8379 20.3327 86.6914 19.916 86.3984 19.623C86.1055 19.3301 85.627 19.1836 84.9629 19.1836H83V22.582ZM91.0664 31L96.3398 16.7324H100.119L105.49 31H101.779L98.3516 21.3223C98.2734 21.0944 98.2116 20.8796 98.166 20.6777C98.127 20.4759 98.0879 20.2806 98.0488 20.0918H97.9805C97.9479 20.2806 97.9089 20.4792 97.8633 20.6875C97.8177 20.8893 97.7559 21.1009 97.6777 21.3223L94.2988 31H91.0664ZM94.3086 28.1289L95.0117 25.6484H101.242L101.955 28.1289H94.3086ZM106.525 31V16.7812H111.564C113.498 16.7812 115.103 17.3639 116.379 18.5293C117.655 19.6882 118.293 21.3255 118.293 23.4414V24.3203C118.293 26.4427 117.655 28.0866 116.379 29.252C115.103 30.4173 113.498 31 111.564 31H106.525ZM109.982 28.4805H111.457C112.427 28.4805 113.215 28.1517 113.82 27.4941C114.426 26.8366 114.729 25.8307 114.729 24.4766V23.3047C114.729 21.9505 114.426 20.9512 113.82 20.3066C113.215 19.6556 112.427 19.3301 111.457 19.3301H109.982V28.4805ZM124.934 24.3203V23.4609C124.934 21.1367 125.523 19.3984 126.701 18.2461C127.886 17.0872 129.442 16.5078 131.369 16.5078C133.186 16.5078 134.624 16.9701 135.686 17.8945C136.753 18.8125 137.287 20.0397 137.287 21.5762V21.9668H133.801V21.4688C133.801 20.681 133.599 20.0885 133.195 19.6914C132.792 19.2943 132.176 19.0957 131.35 19.0957C130.497 19.0957 129.816 19.3822 129.309 19.9551C128.807 20.528 128.557 21.5111 128.557 22.9043V24.877C128.557 26.179 128.801 27.1426 129.289 27.7676C129.784 28.3926 130.487 28.7051 131.398 28.7051C132.193 28.7051 132.785 28.4902 133.176 28.0605C133.566 27.6243 133.775 27.0221 133.801 26.2539V25.834H137.287V26.2734C137.248 27.7578 136.704 28.9622 135.656 29.8867C134.615 30.8112 133.186 31.2734 131.369 31.2734C129.423 31.2734 127.863 30.6908 126.691 29.5254C125.52 28.3535 124.934 26.6185 124.934 24.3203ZM138.566 24.3203V23.4609C138.566 21.1497 139.165 19.4147 140.363 18.2559C141.561 17.0905 143.107 16.5078 145.002 16.5078C146.89 16.5078 148.439 17.0905 149.65 18.2559C150.868 19.4147 151.477 21.1497 151.477 23.4609V24.3203C151.477 26.6315 150.868 28.3698 149.65 29.5352C148.439 30.694 146.89 31.2734 145.002 31.2734C143.107 31.2734 141.561 30.694 140.363 29.5352C139.165 28.3698 138.566 26.6315 138.566 24.3203ZM142.16 24.8281C142.16 26.1823 142.414 27.1686 142.922 27.7871C143.436 28.3991 144.13 28.7051 145.002 28.7051C145.881 28.7051 146.581 28.3991 147.102 27.7871C147.622 27.1686 147.883 26.1823 147.883 24.8281V22.9629C147.883 21.6087 147.622 20.6257 147.102 20.0137C146.581 19.4017 145.881 19.0957 145.002 19.0957C144.13 19.0957 143.436 19.4017 142.922 20.0137C142.414 20.6257 142.16 21.6087 142.16 22.9629V24.8281ZM153.693 31V16.7812H158.225L161.213 25.2578C161.298 25.4857 161.366 25.6973 161.418 25.8926C161.47 26.0814 161.516 26.3027 161.555 26.5566H161.604C161.643 26.3027 161.688 26.0814 161.74 25.8926C161.799 25.6973 161.867 25.4857 161.945 25.2578L164.953 16.7812H169.553V31H166.086V22.4941C166.086 22.2728 166.089 22.0286 166.096 21.7617C166.109 21.4883 166.128 21.2409 166.154 21.0195H166.076C166.044 21.2409 165.998 21.4883 165.939 21.7617C165.881 22.0286 165.812 22.2728 165.734 22.4941L162.756 31H159.885L156.926 22.4941C156.848 22.2728 156.779 22.0254 156.721 21.752C156.662 21.4785 156.617 21.2344 156.584 21.0195H156.506C156.525 21.2344 156.538 21.4785 156.545 21.752C156.558 22.0254 156.564 22.2728 156.564 22.4941V31H153.693ZM172.268 31V16.7812H178.068C179.729 16.7812 181.005 17.1914 181.896 18.0117C182.788 18.8255 183.234 19.9974 183.234 21.5273C183.234 23.0508 182.788 24.2259 181.896 25.0527C181.011 25.8796 179.732 26.293 178.059 26.293H175.754V31H172.268ZM175.754 23.7832H177.6C178.413 23.7832 178.973 23.5911 179.279 23.207C179.592 22.8164 179.748 22.263 179.748 21.5469C179.748 20.8307 179.592 20.2839 179.279 19.9062C178.973 19.5286 178.413 19.3366 177.6 19.3301H175.754V23.7832ZM182.824 31L188.098 16.7324H191.877L197.248 31H193.537L190.109 21.3223C190.031 21.0944 189.969 20.8796 189.924 20.6777C189.885 20.4759 189.846 20.2806 189.807 20.0918H189.738C189.706 20.2806 189.667 20.4792 189.621 20.6875C189.576 20.8893 189.514 21.1009 189.436 21.3223L186.057 31H182.824ZM186.066 28.1289L186.77 25.6484H193L193.713 28.1289H186.066ZM198.283 31V16.7812H201.975L206.379 24.9648C206.483 25.1667 206.571 25.3555 206.643 25.5312C206.714 25.707 206.786 25.9023 206.857 26.1172H206.926C206.913 25.8958 206.906 25.6908 206.906 25.502C206.906 25.3132 206.906 25.1048 206.906 24.877V16.7812H209.846V31H206.096L201.73 22.8945C201.626 22.6927 201.538 22.4974 201.467 22.3086C201.402 22.1198 201.337 21.9212 201.271 21.7129H201.203C201.21 21.9342 201.216 22.1523 201.223 22.3672C201.229 22.582 201.232 22.8001 201.232 23.0215V31H198.283ZM215.764 31V25.9902L210.881 16.7812H214.729L217.238 21.6934C217.329 21.8691 217.404 22.0417 217.463 22.2109C217.528 22.3802 217.59 22.5527 217.648 22.7285H217.717C217.775 22.5527 217.834 22.3835 217.893 22.2207C217.958 22.0514 218.036 21.8757 218.127 21.6934L220.686 16.7812H224.016L219.27 25.8047V31H215.764Z" fill="#202020"/>
</svg>
